<svg aria-hidden="true" style="position: absolute; width: 0; height: 0; overflow: hidden;" version="1.1" xmlns="http://www.w3.org/2000/svg" xmlns:xlink="http://www.w3.org/1999/xlink">
<defs>
<symbol id="icon-logo-white" viewBox="0 0 63 32">
<path fill="#32c1d4" style="fill: var(--color1, #32c1d4)" d="M29.831 6.305h0.817l0.462 0.639 0.994 1.35 0.426 0.568v0.071l0.178-0.178 0.426-0.568 0.994-1.35 0.391-0.533h0.781v5.008h-0.781v-2.983l0.036-0.71-0.497 0.639-0.426 0.568-0.355 0.462-0.462 0.604h-0.497l-0.497-0.639-0.497-0.675-0.462-0.604-0.249-0.32-0.036-0.036 0.036 0.497v3.196l-0.781 0z"></path>
<path fill="#32c1d4" style="fill: var(--color1, #32c1d4)" d="M12.642 6.305h0.781l0.426 0.462 1.279 1.421 0.391 0.426 0.249 0.284 0.391 0.426 0.639 0.71 0.142 0.178-0.071-1.634v-2.273h0.817v5.008h-0.817l-0.497-0.533-0.426-0.462-0.497-0.533-0.391-0.426-0.426-0.462-0.497-0.533-0.781-0.852-0.036 0 0.107 1.208v2.593h-0.781z"></path>
<path fill="#32c1d4" style="fill: var(--color1, #32c1d4)" d="M11.754 21.185h51.603v0.178l-0.036 0.036h-51.567z"></path>
<path fill="#32c1d4" style="fill: var(--color1, #32c1d4)" d="M12.642 13.372h0.781v2.166l3.125 0v-2.166l0.781-0v5.008l-0.746 0.036-0.036-0.036v-2.095h-3.125v2.095l-0.639 0.036-0.142-0.036z"></path>
<path fill="#32c1d4" style="fill: var(--color1, #32c1d4)" d="M24.859 14.544h0.781l0.426 0.107 0.426 0.213 0.32 0.249-0.036-0.178v-0.284l0.036-0.036 0.746-0v3.765l-0.391 0.036h-0.355l-0.036-0.107 0.036-0.497-0.462 0.355-0.391 0.178-0.391 0.107-0.497 0.036-0.497-0.071-0.462-0.178-0.391-0.284-0.249-0.284-0.249-0.497-0.107-0.533 0.036-0.533 0.107-0.355 0.213-0.391 0.32-0.355 0.391-0.249 0.355-0.142 0.32-0.071zM25.001 15.254l-0.426 0.142-0.32 0.249-0.213 0.249-0.107 0.249-0.036 0.178v0.391l0.142 0.391 0.32 0.355 0.284 0.178 0.462 0.142 0.533-0 0.462-0.142 0.32-0.213 0.249-0.284 0.142-0.355v-0.568l-0.142-0.355-0.284-0.32-0.497-0.249-0.142-0.036h-0.746z"></path>
<path fill="#32c1d4" style="fill: var(--color1, #32c1d4)" d="M20.065 14.544h0.852l0.533 0.142 0.391 0.213 0.391 0.355 0.213 0.32 0.142 0.462v0.675l-0.036 0.036-3.551 0.036 0.213 0.426 0.249 0.213 0.426 0.213 0.497 0.107 0.604-0 0.391-0.071 0.604-0.284 0.142-0.036 0.284 0.462-0.036 0.142-0.533 0.284-0.604 0.178-0.568 0.071-0.604-0.036-0.568-0.142-0.426-0.213-0.355-0.284-0.249-0.32-0.178-0.355-0.071-0.284v-0.639l0.142-0.497 0.249-0.391 0.32-0.32 0.497-0.284 0.462-0.142 0.178-0.035zM20.242 15.219l-0.497 0.107-0.355 0.178-0.249 0.249-0.142 0.32v0.071h2.806l0.036-0.107-0.107-0.284-0.284-0.284-0.391-0.178-0.355-0.071-0.462-0z"></path>
<path fill="#32c1d4" style="fill: var(--color1, #32c1d4)" d="M20.384 7.476h0.888l0.497 0.142 0.391 0.213 0.355 0.32 0.249 0.355 0.142 0.426v0.71l-0.036 0.036-3.48-0-0.071-0.036 0.107 0.32 0.249 0.32 0.355 0.213 0.462 0.142 0.249 0.036 0.568-0 0.568-0.142 0.462-0.249 0.107 0 0.284 0.462-0.036 0.142-0.533 0.284-0.604 0.178-0.213 0.036h-0.923l-0.568-0.142-0.568-0.284-0.32-0.284-0.249-0.391-0.142-0.355-0.036-0.142v-0.639l0.142-0.497 0.249-0.391 0.32-0.32 0.497-0.284 0.426-0.142 0.213-0.035zM20.526 8.151l-0.568 0.142-0.284 0.178-0.249 0.284-0.107 0.284 0.036 0.036h2.806l-0.036-0.249-0.213-0.32-0.355-0.213-0.284-0.107-0.213-0.036-0.533 0z"></path>
<path fill="#32c1d4" style="fill: var(--color1, #32c1d4)" d="M37.999 7.476h0.923l0.497 0.142 0.426 0.249 0.32 0.284 0.249 0.391 0.142 0.462v0.639l-0.036 0.036-3.551-0 0.142 0.355 0.213 0.249 0.355 0.213 0.462 0.142 0.249 0.036 0.568-0 0.462-0.107 0.568-0.284 0.142 0.071 0.249 0.426-0.036 0.107-0.568 0.284-0.426 0.142-0.355 0.071h-0.959l-0.568-0.142-0.426-0.213-0.32-0.249-0.249-0.284-0.213-0.426-0.071-0.249v-0.71l0.142-0.462 0.213-0.355 0.355-0.355 0.355-0.213 0.426-0.178 0.32-0.071zM38.177 8.151l-0.355 0.071-0.426 0.178-0.213 0.178-0.213 0.391v0.107l2.806 0 0.036-0.107-0.107-0.284-0.249-0.249-0.426-0.213-0.32-0.071h-0.533z"></path>
<path fill="#32c1d4" style="fill: var(--color1, #32c1d4)" d="M43.93 13.336h0.994l0.533 0.142 0.497 0.213 0.462 0.32 0.142 0.178-0.462 0.604-0.391-0.249-0.426-0.249-0.462-0.142-0.568-0.036-0.426 0.071-0.391 0.142-0.355 0.249-0.249 0.249-0.249 0.497-0.071 0.284v0.568l0.107 0.426 0.213 0.355 0.142 0.178 0.355 0.249 0.426 0.178 0.249 0.071 0.32 0.036h0.355l0.497-0.107 0.426-0.178 0.497-0.355 0.107 0.107 0.284 0.497-0.071 0.142-0.355 0.249-0.426 0.213-0.604 0.178-0.533 0.071-0.604-0.036-0.568-0.142-0.568-0.284-0.355-0.284-0.284-0.32-0.249-0.426-0.142-0.426-0.071-0.426v-0.497l0.107-0.533 0.284-0.568 0.213-0.284 0.355-0.355 0.391-0.249 0.462-0.213z"></path>
<path fill="#32c1d4" style="fill: var(--color1, #32c1d4)" d="M23.19 7.548h0.817l0.284 0.852 0.462 1.492 0.071 0.249 0.107-0.142 0.604-1.243 0.284-0.604 0.568-0.036 0.178 0.284 0.497 1.030 0.355 0.746 0.071-0.107 0.781-2.166 0.142-0.355 0.781-0-0.391 1.065-0.604 1.563-0.426 1.101-0.036 0.036-0.533 0-0.639-1.314-0.391-0.817v-0.107l-0.071 0.036-0.462 0.994-0.568 1.207h-0.533l-0.178-0.426-0.71-1.989-0.462-1.279z"></path>
<path fill="#32c1d4" style="fill: var(--color1, #32c1d4)" d="M34.732 13.088h0.746l0.036 2.060 0.355-0.284 0.497-0.249 0.284-0.071 0.71 0 0.355 0.107 0.355 0.213 0.249 0.284 0.178 0.391 0.071 0.533v2.308l-0.639 0.036-0.107-0.036-0.036-2.202-0.071-0.355-0.213-0.32-0.355-0.213-0.142-0.036-0.533-0-0.391 0.142-0.213 0.178h-0.071l-0.071 0.142-0.178 0.284-0.036 0.142-0.036 2.237-0.71 0.036-0.036-0.036z"></path>
<path fill="#32c1d4" style="fill: var(--color1, #32c1d4)" d="M53.945 14.544h0.71l0.462 0.142 0.391 0.284 0.213 0.32 0.142 0.391 0.036 0.178v2.522l-0.746-0-0.036-2.308-0.107-0.32-0.213-0.284-0.355-0.178-0.213-0.036h-0.32l-0.462 0.142-0.32 0.249-0.213 0.32-0.071 0.213-0.036 2.202-0.746-0v-3.765h0.746v0.604l0.284-0.249 0.355-0.249 0.355-0.142z"></path>
<path fill="#32c1d4" style="fill: var(--color1, #32c1d4)" d="M61.013 14.544h0.817l0.497 0.107 0.426 0.178 0.391 0.249 0.142 0.142-0.036 0.178-0.32 0.426-0.107-0-0.32-0.249-0.426-0.213-0.391-0.107h-0.568l-0.355 0.107-0.391 0.249-0.249 0.355-0.107 0.426v0.249l0.142 0.462 0.32 0.355 0.284 0.178 0.355 0.107 0.71 0 0.355-0.107 0.533-0.284 0.142-0.107h0.071l0.355 0.497v0.107l-0.462 0.284-0.497 0.213-0.462 0.107-0.604 0.036-0.462-0.071-0.426-0.142-0.355-0.213-0.355-0.32-0.249-0.391-0.142-0.391-0.036-0.178v-0.568l0.107-0.391 0.178-0.355 0.284-0.355 0.391-0.284 0.391-0.178z"></path>
<path fill="#32c1d4" style="fill: var(--color1, #32c1d4)" d="M2.805 9.678h0.852l0.533 0.142 0.32 0.142 0.426 0.249 0.426 0.391 0.32 0.426 0.249 0.533 0.142 0.568 0.036 0.568-0.071 0.497-0.213 0.639-0.426 0.923-0.284 0.568-0.462 0.888-0.426 0.71-0.497 0.781-0.462 0.639-0.284 0.391-0.355 0.462-0.462 0.568-0.249 0.32-0.071-0-0.071-0.355v-0.249l0.391-0.462 0.533-0.71 0.462-0.639 0.533-0.817 0.462-0.781 0.355-0.639 0.639-1.279 0.355-0.852 0.107-0.533v-0.426l-0.107-0.533-0.178-0.391-0.213-0.355-0.249-0.284-0.462-0.32-0.391-0.178-0.391-0.107-0.533-0.036-0.568 0.107-0.249 0.071-0.071-0.213-0.036-0.249 0.462-0.142z"></path>
<path fill="#32c1d4" style="fill: var(--color1, #32c1d4)" d="M2.698 7.015h1.065l0.675 0.107 0.71 0.213 0.639 0.284 0.533 0.32 0.497 0.391 0.355 0.32 0.249 0.284 0.355 0.462 0.32 0.533 0.249 0.533 0.178 0.533 0.178 0.817 0.036 0.355v0.817l-0.107 0.746-0.213 0.746-0.213 0.533-0.071 0.036-0.142-0.639 0.036-0.32 0.142-0.533 0.071-0.497v-0.994l-0.142-0.781-0.213-0.639-0.32-0.675-0.391-0.568-0.071-0.142-0.036-0.355-0.107 0.178-0.142-0.071-0.32-0.32-0.533-0.391-0.639-0.355-0.781-0.284-0.746-0.142-0.675-0.036-0.746 0.071-0.604 0.142-0.675 0.249-0.568 0.32-0.036-0.142 0.071-0.426 0.533-0.284 0.639-0.213 0.675-0.142z"></path>
<path fill="#32c1d4" style="fill: var(--color1, #32c1d4)" d="M31.678 13.514h0.71l0.036 0.036v1.030l1.208 0.036 0.036 0.036v0.675l-0.071 0.036-1.065-0-0.107-0.036v3.054l-0.746 0.036-0.036-0.036v-3.019h-1.030v-0.746l1.030 0v-1.065z"></path>
<path fill="#32c1d4" style="fill: var(--color1, #32c1d4)" d="M2.876 10.566h0.71l0.462 0.142 0.391 0.249 0.32 0.284 0.284 0.462 0.142 0.426 0.036 0.249v0.355l-0.107 0.497-0.355 0.817-0.426 0.888-0.497 0.923-0.497 0.817-0.568 0.852-0.462 0.639-0.355 0.462-0.249 0.32-0.071-0-0.071-0.604 0.462-0.604 0.462-0.639 0.497-0.781 0.32-0.533 0.355-0.639 0.426-0.817 0.462-0.994 0.142-0.391 0.036-0.142v-0.462l-0.142-0.462-0.249-0.391-0.284-0.213-0.355-0.178-0.391-0.071-0.426 0.036-0.391 0.142-0.142 0.036v-0.497l0.355-0.142z"></path>
<path fill="#32c1d4" style="fill: var(--color1, #32c1d4)" d="M7.137 14.047h0.035l0.107 0.568v0.284l-0.497 1.065-0.32 0.71-0.391 1.172-0.178 0.781-0.107 0.746-0.036 0.462v0.852l0.107 0.852 0.178 0.71 0.213 0.568 0.107 0.249 0.036 0.888-0.071 0-0.391-0.675-0.249-0.568-0.178-0.533-0.178-0.888-0.036-0.284-0.036-0.781 0.036-0.781 0.142-0.994 0.284-1.136 0.32-0.888 0.32-0.71 0.426-0.888 0.32-0.746z"></path>
<path fill="#32c1d4" style="fill: var(--color1, #32c1d4)" d="M2.662 6.127h1.136l0.71 0.107 0.675 0.178 0.568 0.213 0.568 0.284 0.533 0.32 0.497 0.391 0.533 0.497 0.391 0.462 0.178 0.284 0.071 0.71v0.284l-0.107-0.142-0.284-0.497-0.32-0.426-0.32-0.355-0.426-0.426-0.568-0.426-0.604-0.355-0.675-0.284-0.746-0.213-0.639-0.107-0.781-0.036-0.746 0.071-0.781 0.178-0.675 0.249-0.142 0.036 0.071-0.426 0.071-0.142 0.639-0.213 0.639-0.142z"></path>
<path fill="#32c1d4" style="fill: var(--color1, #32c1d4)" d="M2.982 11.454h0.497l0.355 0.142 0.249 0.213 0.213 0.426 0.036 0.107v0.426l-0.213 0.568-0.568 1.172-0.426 0.817-0.497 0.817-0.639 0.959-0.462 0.639h-0.036l-0.036-0.178v-0.568l0.32-0.426 0.497-0.781 0.462-0.781 0.355-0.639 0.391-0.817 0.355-0.817v-0.355l-0.142-0.249-0.178-0.142-0.355-0.071-0.249 0.071-0.178 0.142-0.604 1.279-0.355 0.71-0.071 0.036 0.036-0.284 0.249-0.71 0.32-0.675 0.036-0.142 0.036-0.497 0.178-0.213 0.284-0.142z"></path>
<path fill="#32c1d4" style="fill: var(--color1, #32c1d4)" d="M28.943 13.088h0.746v5.292h-0.746z"></path>
<path fill="#32c1d4" style="fill: var(--color1, #32c1d4)" d="M47.517 13.088h0.746v5.292l-0.746 0.036z"></path>
<path fill="#32c1d4" style="fill: var(--color1, #32c1d4)" d="M2.733 7.903h0.959l0.639 0.107 0.746 0.249 0.604 0.32 0.568 0.426 0.497 0.497-0.036 0.355-0.071 0.249-0.178-0.178-0.391-0.426-0.32-0.284-0.639-0.391-0.497-0.213-0.462-0.142-0.391-0.071-0.675-0.036-0.639 0.071-0.533 0.142-0.533 0.213-0.497 0.284-0.497 0.391-0.036-0 0.036-0.533 0.107-0.178 0.462-0.284 0.497-0.249 0.533-0.178 0.497-0.107z"></path>
<path fill="#32c1d4" style="fill: var(--color1, #32c1d4)" d="M49.79 14.615h0.746v3.765h-0.746z"></path>
<path fill="#32c1d4" style="fill: var(--color1, #32c1d4)" d="M57.461 14.615h0.71l0.036 0.036v3.729l-0.746 0.036z"></path>
<path fill="#32c1d4" style="fill: var(--color1, #32c1d4)" d="M7.35 15.68h0.035l0.036 0.32v0.639l-0.355 0.888-0.213 0.746-0.142 0.746-0.071 0.639v0.852l0.107 0.817v0.284l-0.142 0.604-0.107-0.036-0.142-0.391-0.142-0.675-0.071-0.639v-0.675l0.071-0.746 0.142-0.781 0.213-0.781 0.284-0.781z"></path>
<path fill="#32c1d4" style="fill: var(--color1, #32c1d4)" d="M3.444 5.239h0.391l0.781 0.107 0.817 0.213 0.746 0.284 0.817 0.426 0.568 0.391 0.391 0.32 0.178 0.142 0.107 0.284 0.071 0.391v0.178l-0.178-0.178-0.533-0.497-0.675-0.497-0.639-0.355-0.533-0.249-0.852-0.284-0.71-0.142-0.746-0.071-0.142-0.178 0.036-0.178z"></path>
<path fill="#32c1d4" style="fill: var(--color1, #32c1d4)" d="M6.534 12.52l0.107 0.142 0.249 0.533v0.249l-0.213 0.639-0.533 1.172-0.426 0.852-0.462 0.817-0.497 0.817-0.213 0.284-0.036-0-0.036-0.746 0.746-1.279 0.284-0.568 0.533-1.101 0.284-0.71 0.142-0.568z"></path>
<path fill="#32c1d4" style="fill: var(--color1, #32c1d4)" d="M2.769 8.791h0.923l0.639 0.142 0.462 0.178 0.462 0.249 0.426 0.32 0.426 0.426 0.32 0.462 0.071 0.142-0.036 0.249-0.107 0.071-0.213-0.036-0.284-0.391-0.284-0.355-0.355-0.32-0.462-0.284-0.391-0.178-0.462-0.142-0.568-0.071-0.604 0.036-0.568 0.142-0.142-0-0.107-0.32v-0.107l0.462-0.142z"></path>
<path fill="#fdfdfd" style="fill: var(--color2, #fdfdfd)" d="M26.777 24.133h0.284l0.213 0.107 0.107 0.213 0.178-0.213 0.249-0.107h0.284l0.213 0.107 0.107 0.178 0.036 0.391 0.036 0.994 0.213 0.107v0.071h-0.817v-0.071l0.178-0.107v-1.421l-0.178-0.107-0.249 0.071-0.142 0.178-0.071 0.178v1.065l0.036 0.071 0.178 0.071 0.036 0.071-0.817 0v-0.071l0.142-0.071 0.036-0.071v-1.35l-0.071-0.107-0.213-0.036-0.213 0.107-0.142 0.284v1.136l0.178 0.107v0.071h-0.817v-0.071l0.249-0.071v-1.279l-0.036-0.213-0.213-0.107v-0.036l0.604-0.036v0.284l0.178-0.213z"></path>
<path fill="#fdfdfd" style="fill: var(--color2, #fdfdfd)" d="M16.229 24.133l0.071 0.036v0.284l0.178-0.213 0.249-0.107h0.284l0.178 0.107 0.142 0.213 0.178-0.213 0.249-0.107h0.284l0.213 0.107 0.107 0.178 0.036 1.35 0.178 0.107 0.071 0.036v0.071l-0.817-0v-0.071l0.178-0.107v-1.385l-0.071-0.107h-0.284l-0.178 0.142-0.107 0.249v1.065l0.036 0.071 0.178 0.071v0.071h-0.781l-0.036-0.071 0.178-0.071 0.036-0.071v-1.314l-0.071-0.142-0.213-0.036-0.213 0.107-0.142 0.249v1.172l0.178 0.107v0.071h-0.817v-0.071l0.213-0.107 0.036-0.071v-1.136l-0.071-0.249-0.213-0.107v-0.036z"></path>
<path fill="#32c1d4" style="fill: var(--color1, #32c1d4)" d="M4.616 20.333l0.178 0.036 0.071 0.249 0.107 0.959 0.178 0.781 0.249 0.71 0.284 0.568 0.284 0.497 0.036 0.036v0.213l-0.142 0.142-0.355-0.071-0.852-0.178 0.036-0.426 0.142-0.036 0.426 0.107-0.284-0.604-0.249-0.675-0.107-0.391z"></path>
<path fill="#32c1d4" style="fill: var(--color1, #32c1d4)" d="M3.621 4.351l0.568 0.036 0.852 0.142 0.355 0.107 0.284 0.213 1.279 0.426 0.568 0.284 0.213 0.249 0.249 0.604-0.107-0-0.497-0.355-0.604-0.355-0.675-0.32-0.959-0.32-0.923-0.178-0.923-0.071 0.213-0.284z"></path>
<path fill="#32c1d4" style="fill: var(--color1, #32c1d4)" d="M3.124 12.342h0.213l0.107 0.107v0.213l-0.32 0.71-0.426 0.888-0.497 0.888-0.462 0.746-0.249 0.391-0.071-0.036 0.036-0.639 0.071-0.284 0.497-0.852 0.533-1.030 0.426-0.959z"></path>
<path fill="#fdfdfd" style="fill: var(--color2, #fdfdfd)" d="M40.095 23.28h0.249l0.036 1.101 0.213-0.178 0.178-0.071h0.284l0.213 0.107 0.107 0.142 0.036 0.107 0.036 1.279 0.036 0.071 0.178 0.071v0.071h-0.817v-0.071l0.178-0.071 0.036-0.107v-1.207l-0.071-0.178-0.036-0.036h-0.32l-0.178 0.178-0.071 0.142v1.172l0.178 0.107v0.071h-0.817v-0.071l0.213-0.107v-2.379l-0.249-0.071v-0.036z"></path>
<path fill="#32c1d4" style="fill: var(--color1, #32c1d4)" d="M4.332 17.492h0.035l-0.036 0.852-0.249 0.391-0.497 0.675-0.462 0.568-0.284 0.355-0.462 0.533-0.284 0.32h-0.071l-0.071-0.568 0.355-0.391 0.32-0.391 0.462-0.568 0.497-0.675 0.497-0.71z"></path>
<path fill="#fdfdfd" style="fill: var(--color2, #fdfdfd)" d="M47.127 23.742h0.178l0.107 0.107-0.036 0.178-0.071 0.071h-0.178l-0.071-0.142-0.107 0.249 0.142 0.071 0.142 0.178 0.036 0.355-0.142 0.284-0.284 0.142-0.568 0.036-0.178 0.142 0.036 0.142 1.065 0.036 0.178 0.107 0.071 0.071v0.32l-0.178 0.284-0.32 0.213-0.497 0.071-0.426-0.071-0.213-0.142-0.036-0.036 0.036-0.249 0.284-0.249-0.213-0.107-0.036-0.249 0.142-0.213 0.213-0.142-0.178-0.213-0.071-0.178v-0.249l0.107-0.213 0.213-0.178 0.142-0.036 0.462 0 0.036-0.213 0.142-0.142 0.071-0.035zM46.523 24.204l-0.178 0.142-0.036 0.107v0.497l0.107 0.178 0.071 0.036h0.249l0.142-0.142 0.036-0.071v-0.497l-0.107-0.178-0.107-0.071-0.178-0zM46.487 25.873l-0.249 0.036-0.142 0.178-0.036 0.213 0.178 0.213 0.107 0.036 0.462-0 0.213-0.107 0.178-0.213v-0.249l-0.071-0.071-0.639-0.035z"></path>
<path fill="#32c1d4" style="fill: var(--color1, #32c1d4)" d="M3.941 22.393h0.213l0.071 0.071v0.32l-0.071 0.533h-0.426l-0.32 0.32-0.036 0.071h0.639l0.142 0.036 0.036 0.462-1.492-0.036-0.142-0.142v-0.213l0.923-0.923 0.249-0.284z"></path>
<path fill="#fdfdfd" style="fill: var(--color2, #fdfdfd)" d="M30.683 23.28h0.568l0.036 1.669 0.213-0.107 0.355-0.355 0.036-0.107-0.249-0.142 0.071-0.071 0.639 0.036-0.036 0.071-0.249 0.142-0.249 0.284h-0.071v0.071l-0.071 0 0.036 0.178 0.462 0.639 0.213 0.249 0.107 0.071v0.071l-0.675-0 0.071-0.178-0.391-0.568-0.142-0.142-0.107-0.036 0.036 0.71 0.036 0.071 0.178 0.071v0.071l-0.817 0 0.036-0.107 0.142-0.036 0.036-0.071v-2.273l-0.178-0.107-0.071-0.071z"></path>
<path fill="#32c1d4" style="fill: var(--color1, #32c1d4)" d="M2.805 1.688h1.065l0.994 0.107 0.888 0.178 0.32 0.107-0.142 0.391-0.071 0.036-0.781-0.178-0.71-0.107-0.391-0.036-1.172-0.036z"></path>
<path fill="#32c1d4" style="fill: var(--color1, #32c1d4)" d="M4.225 19.196h0.035v0.746l-0.142 0.213-0.462 0.568-0.32 0.391-0.391 0.426-0.249 0.284-0.391 0.426-0.071-0.071-0.071-0.32v-0.178l0.355-0.355 0.32-0.391 0.355-0.391 0.391-0.497 0.426-0.533z"></path>
<path fill="#fdfdfd" style="fill: var(--color2, #fdfdfd)" d="M44.215 24.133h0.036l0.036 0.284 0.284-0.249 0.142-0.036 0.284 0 0.213 0.107 0.107 0.178 0.036 0.178 0.036 1.207 0.213 0.107v0.071h-0.817v-0.071l0.178-0.107 0.036-0.071v-1.172l-0.107-0.249-0.213-0.036-0.213 0.107-0.142 0.213-0.036 0.178v0.994l0.036 0.071 0.178 0.071v0.071l-0.817 0-0.036-0.071 0.249-0.107v-1.421l-0.249-0.142v-0.036z"></path>
<path fill="#32c1d4" style="fill: var(--color1, #32c1d4)" d="M3.018 0.8h0.817l1.101 0.107 0.959 0.178 0.036 0.036v0.462l-0.426-0.071-0.817-0.142-0.71-0.071-1.030-0.036-0.036-0.071z"></path>
<path fill="#32c1d4" style="fill: var(--color1, #32c1d4)" d="M1.562 10.176h0.071l-0.107 0.604-0.142 0.213-0.32 0.497-0.391 0.888-0.355 0.71-0.249 0.426-0.036-0.071 0.036-0.923 0.391-0.852 0.32-0.675 0.284-0.355 0.391-0.391z"></path>
<path fill="#32c1d4" style="fill: var(--color1, #32c1d4)" d="M2.947 2.575h0.888l0.959 0.107 0.888 0.178 0.142 0.071-0.107 0.32-0.107 0.107-0.817-0.178-0.852-0.107-0.852-0.036-0.107-0.249z"></path>
<path fill="#fdfdfd" style="fill: var(--color2, #fdfdfd)" d="M12.393 23.529h1.953v0.71h-0.107l-0.107-0.426-0.107-0.142-0.462-0.036v2.095l0.071 0.107 0.249 0.071v0.071l-1.030 0 0.036-0.107 0.249-0.071 0.036-0.036v-2.131l-0.462 0.036-0.107 0.142-0.107 0.426h-0.107z"></path>
<path fill="#fdfdfd" style="fill: var(--color2, #fdfdfd)" d="M23.509 24.133h0.391l0.355 0.178 0.178 0.284 0.071 0.249v0.497l-0.107 0.32-0.213 0.249-0.213 0.107-0.284 0.036-0.355-0.071-0.249-0.213-0.142-0.284-0.036-0.213v-0.391l0.107-0.355 0.249-0.284 0.249-0.107zM23.652 24.204l-0.178 0.107-0.142 0.178-0.071 0.284v0.639l0.107 0.32 0.142 0.178 0.071 0.036h0.249l0.213-0.178 0.107-0.391v-0.568l-0.071-0.32-0.213-0.249-0.213-0.036z"></path>
<path fill="#32c1d4" style="fill: var(--color1, #32c1d4)" d="M4.19 20.688h0.036l0.036 0.675-0.284 0.355-0.32 0.355-0.249 0.284-0.533 0.568-0.32 0.32-0.071-0.107-0.071-0.249v-0.178l0.391-0.391 0.249-0.284 0.426-0.462 0.32-0.391 0.355-0.426z"></path>
<path fill="#32c1d4" style="fill: var(--color1, #32c1d4)" d="M41.835 5.985h0.391l0.391 0.142 0.32 0.284 0.178 0.355 0.036 0.142v0.391l-0.142 0.391-0.249 0.284-0.284 0.178-0.249 0.071-0.426 0-0.391-0.142-0.284-0.249-0.178-0.355-0.036-0.107v-0.497l0.107-0.32 0.213-0.284 0.355-0.213 0.249-0.071zM41.835 6.162l-0.355 0.142-0.284 0.32-0.107 0.32v0.355l0.142 0.355 0.249 0.249 0.32 0.142 0.462-0 0.355-0.178 0.249-0.284 0.107-0.426-0.071-0.426-0.213-0.32-0.249-0.178-0.213-0.071h-0.391z"></path>
<path fill="#fdfdfd" style="fill: var(--color2, #fdfdfd)" d="M42.439 24.133h0.391l0.213 0.107 0.142 0.178 0.036 0.178v1.279l0.284-0.036-0.142 0.142-0.249 0.036-0.178-0.107-0.036-0.142-0.32 0.213-0.32 0.036-0.249-0.107-0.107-0.178 0.036-0.32 0.178-0.178 0.568-0.284 0.178-0.142v-0.32l-0.107-0.213-0.284-0.036-0.178 0.071 0.107 0.178-0.036 0.178-0.071 0.071-0.213 0-0.107-0.142 0.036-0.213 0.213-0.178 0.213-0.071zM42.829 24.95l-0.426 0.249-0.142 0.142-0.036 0.32 0.071 0.142 0.249 0.071 0.213-0.107 0.142-0.178v-0.604l-0.071-0.036z"></path>
<path fill="#fdfdfd" style="fill: var(--color2, #fdfdfd)" d="M35.869 24.133h0.391l0.249 0.107 0.142 0.213 0.036 1.385 0.249-0.036v0.107l-0.107 0.071-0.249 0.036-0.178-0.071-0.036-0.178-0.32 0.213-0.32 0.036-0.249-0.107-0.107-0.178v-0.249l0.107-0.178 0.284-0.178 0.497-0.249 0.036-0.036v-0.462l-0.107-0.107-0.249-0.036-0.213 0.036v0.107l0.071-0 0.036 0.071v0.213l-0.071 0.071-0.213 0-0.107-0.107 0.036-0.249 0.213-0.178 0.178-0.071zM36.295 24.95l-0.497 0.284-0.107 0.142v0.32l0.107 0.142 0.213 0.036 0.249-0.142 0.071-0.107v-0.675l-0.036-0z"></path>
<path fill="#fdfdfd" style="fill: var(--color2, #fdfdfd)" d="M29.44 24.133h0.391l0.249 0.107 0.142 0.213 0.036 1.421 0.249-0.071v0.107l-0.107 0.071-0.213 0.036-0.213-0.071-0.036-0.178-0.32 0.213-0.32 0.036-0.249-0.107-0.107-0.142v-0.32l0.178-0.213 0.675-0.32 0.071-0.071v-0.462l-0.107-0.107-0.249-0.036-0.213 0.071 0.107 0.142v0.213l-0.107 0.071-0.178-0-0.107-0.107 0.036-0.249 0.213-0.178 0.178-0.071zM29.867 24.95l-0.497 0.284-0.107 0.142v0.32l0.107 0.142 0.213 0.036 0.249-0.142 0.071-0.107v-0.675l-0.036-0z"></path>
<path fill="#32c1d4" style="fill: var(--color1, #32c1d4)" d="M1.277 11.987l0.036 0.142-0.249 1.279-0.142 0.426-0.568 0.959-0.284 0.426h-0.035v-0.852l0.32-0.533 0.426-0.781 0.391-0.817z"></path>
<path fill="#fdfdfd" style="fill: var(--color2, #fdfdfd)" d="M33.24 24.133h0.355l0.284 0.142 0.142 0.213 0.071 0.391-0.036 0.036-1.065-0 0.036 0.462 0.178 0.355 0.178 0.107 0.284 0 0.213-0.142 0.142-0.178h0.071l-0.036 0.178-0.142 0.178-0.284 0.142h-0.462l-0.284-0.178-0.142-0.178-0.107-0.284v-0.533l0.107-0.32 0.249-0.284 0.249-0.107zM33.347 24.204l-0.178 0.107-0.107 0.142-0.071 0.355 0.249 0.036h0.462l0.036-0.036-0.036-0.355-0.107-0.178-0.142-0.071-0.107-0z"></path>
<path fill="#fdfdfd" style="fill: var(--color2, #fdfdfd)" d="M48.334 24.133h0.355l0.284 0.142 0.142 0.178 0.071 0.284v0.178h-1.101l0.071 0.568 0.142 0.249 0.213 0.107h0.249l0.178-0.107h0.071l0.071-0.178 0.107-0.036-0.036 0.178-0.178 0.213-0.213 0.107h-0.462l-0.284-0.142-0.213-0.284-0.071-0.284v-0.391l0.107-0.355 0.213-0.284 0.284-0.142zM48.441 24.204l-0.213 0.142-0.142 0.355v0.107l0.249 0.036h0.462l0.036-0.036v-0.249l-0.107-0.249-0.178-0.107-0.107 0z"></path>
<path fill="#fdfdfd" style="fill: var(--color2, #fdfdfd)" d="M19.496 24.133h0.391l0.213 0.107 0.178 0.213 0.071 0.213v0.249l-1.101-0 0.071 0.533 0.107 0.213 0.142 0.142 0.107 0.036 0.249-0 0.249-0.142 0.107-0.178h0.071l-0.036 0.178-0.178 0.213-0.213 0.107h-0.462l-0.284-0.142-0.213-0.32-0.071-0.32v-0.284l0.107-0.391 0.213-0.284 0.284-0.142zM19.638 24.204l-0.178 0.071-0.142 0.213-0.071 0.32 0.32 0.036h0.426l0.036-0.071-0.107-0.426-0.178-0.142h-0.107z"></path>
<path fill="#fdfdfd" style="fill: var(--color2, #fdfdfd)" d="M21.911 23.636h0.213v0.533l0.533 0.036v0.071l-0.533-0 0.036 1.492 0.036 0.071 0.178 0.036 0.142-0.071 0.142-0.284h0.071l-0.036 0.249-0.178 0.213-0.071 0.036-0.391-0-0.178-0.142-0.071-0.213v-1.385h-0.32l-0.036-0.071h0.355v-0.533z"></path>
<path fill="#32c1d4" style="fill: var(--color1, #32c1d4)" d="M3.977-0.053h0.391l0.781 0.107 0.32 0.213 0.284 0.32v0.036l-0.32-0.036-1.030-0.142-1.065-0.071 0.071-0.142 0.355-0.213z"></path>
<path fill="#fdfdfd" style="fill: var(--color2, #fdfdfd)" d="M38.71 24.133h0.355l0.249 0.107 0.142 0.178v0.213l-0.142 0.107-0.178-0.036-0.071-0.107 0.036-0.178 0.071-0.107-0.142-0.071h-0.213l-0.213 0.142-0.107 0.213-0.036 0.178v0.604l0.107 0.284 0.142 0.142 0.32 0.036 0.213-0.107 0.178-0.213 0.071-0-0.071 0.213-0.142 0.178-0.213 0.107h-0.426l-0.284-0.142-0.213-0.32-0.071-0.284v-0.355l0.107-0.355 0.284-0.32z"></path>
<path fill="#32c1d4" style="fill: var(--color1, #32c1d4)" d="M1.704 9.075h0.036v0.284l-0.036 0.249-0.426 0.284-0.355 0.32-0.249 0.249-0.32 0.497-0.071-0.036 0.036-0.781 0.32-0.355 0.497-0.391z"></path>
<path fill="#32c1d4" style="fill: var(--color1, #32c1d4)" d="M3.266 3.463h0.568l0.888 0.107 0.604 0.107 0.071 0.071-0.107 0.178-0.036 0.213-0.32-0.036-0.994-0.142-0.355-0.036-0.32-0.426z"></path>
<path fill="#32c1d4" style="fill: var(--color1, #32c1d4)" d="M4.58 24.701l0.391 0.036 0.817 0.213 0.533 0.178 0.036 0.036v0.32l-0.036 0.142-0.178-0.036-0.639-0.213-0.923-0.213-0.036-0.036v-0.32z"></path>
<path fill="#32c1d4" style="fill: var(--color1, #32c1d4)" d="M4.509 25.589l0.391 0.036 0.781 0.213 0.568 0.213 0.036 0.178-0.036 0.32-0.178-0.036-0.675-0.249-0.817-0.213-0.036-0.036z"></path>
<path fill="#32c1d4" style="fill: var(--color1, #32c1d4)" d="M2.485 24.595h1.492l0.284 0.036 0.036 0.036 0.036 0.426-0.817-0.036h-1.030z"></path>
<path fill="#32c1d4" style="fill: var(--color1, #32c1d4)" d="M2.947 25.447h0.533l0.817 0.071 0.036 0.036v0.426l-0.675-0.036h-1.101l-0.036-0.462z"></path>
<path fill="#32c1d4" style="fill: var(--color1, #32c1d4)" d="M57.603 12.875h0.426l0.178 0.107 0.107 0.178v0.32l-0.107 0.178-0.178 0.142h-0.426l-0.178-0.107-0.107-0.178v-0.32l0.107-0.178z"></path>
<path fill="#32c1d4" style="fill: var(--color1, #32c1d4)" d="M49.968 12.875h0.391l0.213 0.142 0.071 0.142v0.355l-0.213 0.249-0.071 0.036-0.426-0-0.213-0.142-0.071-0.142v-0.32l0.107-0.178 0.107-0.107z"></path>
<path fill="#32c1d4" style="fill: var(--color1, #32c1d4)" d="M4.616 26.477l0.71 0.178 0.746 0.284 0.107 0.071-0.071 0.462-0.32-0.107-0.533-0.213-0.604-0.178-0.036-0.036-0.036-0.426z"></path>
<path fill="#32c1d4" style="fill: var(--color1, #32c1d4)" d="M2.876 26.335h0.639l0.746 0.071v0.462l-0.604-0.036-0.994 0-0.036-0.107v-0.355z"></path>
<path fill="#32c1d4" style="fill: var(--color1, #32c1d4)" d="M2.272 5.275h0.391l0.107 0.107v0.213l-0.107 0.107-0.959 0.178-0.533 0.142-0.142-0.036 0.213-0.355 0.213-0.178 0.391-0.107z"></path>
<path fill="#fdfdfd" style="fill: var(--color2, #fdfdfd)" d="M14.986 24.168h0.213l0.036 1.598 0.036 0.071 0.213 0.071v0.071h-0.852l0.036-0.107 0.178-0.036v-1.421l-0.107-0.107-0.142-0.071v-0.036z"></path>
<path fill="#32c1d4" style="fill: var(--color1, #32c1d4)" d="M2.876 27.223h0.604l0.71 0.071v0.426l-0.036 0.036-0.533-0.036h-0.817l-0.071-0.249v-0.213z"></path>
<path fill="#32c1d4" style="fill: var(--color1, #32c1d4)" d="M4.687 27.4l0.604 0.178 0.639 0.284 0.107 0.071-0.071 0.462-0.213-0.071-0.639-0.284-0.391-0.142-0.036-0.036-0.036-0.426z"></path>
<path fill="#32c1d4" style="fill: var(--color1, #32c1d4)" d="M8.806 14.579h0.036v1.136l-0.355 0.781-0.355 0.71-0.036-0.071 0.142-0.71 0.071-0.213v-0.497l0.391-0.888z"></path>
<path fill="#32c1d4" style="fill: var(--color1, #32c1d4)" d="M4.722 30.277l0.142 0.036 0.533 0.32 0.284 0.213 0.142 0.391 0.249 0.32-0.036 0.071-0.675-0.426-0.639-0.426-0.036-0.036v-0.284z"></path>
<path fill="#32c1d4" style="fill: var(--color1, #32c1d4)" d="M41.622 6.447h0.568l0.213 0.071 0.107 0.107 0.036 0.071v0.249l-0.142 0.178-0.142 0.107 0.32 0.462v0.071l-0.178 0-0.249-0.355-0.107-0.178-0.249-0.036v0.533l-0.142 0.036-0.036-0.036 0-1.279zM41.8 6.589l-0.036 0.178v0.249l0.036 0.036 0.355-0 0.178-0.107 0.036-0.178-0.107-0.142-0.462-0.035z"></path>
<path fill="#32c1d4" style="fill: var(--color1, #32c1d4)" d="M2.876 28.11h0.639l0.604 0.071v0.355l-0.036 0.107-1.136-0.071-0.071-0.249z"></path>
<path fill="#32c1d4" style="fill: var(--color1, #32c1d4)" d="M7.279 10.318l0.107 0.142 0.284 0.746 0.142 0.639 0.036 0.284v0.888l-0.036 0.213-0.071-0-0.213-1.279-0.142-0.959-0.107-0.462z"></path>
<path fill="#32c1d4" style="fill: var(--color1, #32c1d4)" d="M0.674 15.006l0.036 0.142-0.178 0.923-0.249 0.391-0.249 0.32-0.035-0v-0.746l0.426-0.639z"></path>
<path fill="#32c1d4" style="fill: var(--color1, #32c1d4)" d="M3.195 30.774l0.497 0.036 0.391 0.107 0.071 0.071v0.462l-0.355-0.107-0.284-0.071-0.462-0.036z"></path>
<path fill="#32c1d4" style="fill: var(--color1, #32c1d4)" d="M4.687 31.307l0.178 0.036 0.604 0.391 0.426 0.249v0.071l-0.249 0.036h-0.391l-0.071 0.036-0.462-0.284-0.036-0.071z"></path>
<path fill="#32c1d4" style="fill: var(--color1, #32c1d4)" d="M2.982 31.662h0.462l0.462 0.142 0.142 0.071-0.071 0.142-0.107 0.107-0.213-0-0.071-0.036-0.426 0-0.355-0.071-0.107-0.107 0.036-0.178z"></path>
<path fill="#32c1d4" style="fill: var(--color1, #32c1d4)" d="M3.018 28.998h0.462l0.568 0.071v0.32l-0.036 0.142-0.888-0.071-0.107-0.391z"></path>
<path fill="#32c1d4" style="fill: var(--color1, #32c1d4)" d="M4.829 29.318l0.426 0.178 0.391 0.249-0.036 0.32-0.036 0.178-0.178-0.071-0.462-0.284-0.107-0.071z"></path>
<path fill="#32c1d4" style="fill: var(--color1, #32c1d4)" d="M0.603 16.675h0.071l0.107 0.568-0.142 0.178-0.071 0-0.036-0.178-0.036 0.355-0.249 0.355-0.071 0-0.107-0.355v-0.213l0.497-0.639z"></path>
<path fill="#32c1d4" style="fill: var(--color1, #32c1d4)" d="M3.231 29.886l0.533 0.036 0.249 0.071 0.142 0.391v0.107l-0.888-0.142z"></path>
<path fill="#32c1d4" style="fill: var(--color1, #32c1d4)" d="M4.758 28.359l0.355 0.107 0.178 0.107 0.036 0.142-0.107 0.213-0.284-0-0.178-0.107z"></path>
<path fill="#32c1d4" style="fill: var(--color1, #32c1d4)" d="M8.38 17.882l0.249 0.071-0.036 0.249-0.284 0.533-0.142 0.071 0.036-0.355 0.142-0.533z"></path>
<path fill="#32c1d4" style="fill: var(--color1, #32c1d4)" d="M4.58 18.735h0.213l0.142 0.142v0.178l-0.284 0.391h-0.071z"></path>
<path fill="#fdfdfd" style="fill: var(--color2, #fdfdfd)" d="M14.95 23.316l0.213 0.036 0.071 0.107v0.178l-0.178 0.142-0.178-0.036-0.107-0.178 0.071-0.178z"></path>
<path fill="#32c1d4" style="fill: var(--color1, #32c1d4)" d="M8.842 16.675l0.036 0.142-0.071 0.604-0.142-0.036-0.071-0.107 0.036-0.213z"></path>
<path fill="#32c1d4" style="fill: var(--color1, #32c1d4)" d="M7.315 18.060l0.036 0.142-0.213 1.243-0.071 0.142 0.036-0.568 0.142-0.71z"></path>
<path fill="#32c1d4" style="fill: var(--color1, #32c1d4)" d="M0.496 18.237h0.071l0.107 0.284v0.284l-0.178-0.178-0.107-0.178 0.071-0.178z"></path>
<path fill="#32c1d4" style="fill: var(--color1, #32c1d4)" d="M5.788 28.998l0.036 0.107-0.036 0.142h-0.071z"></path>
<path fill="#32c1d4" style="fill: var(--color1, #32c1d4)" d="M6.427 11.632l0.071 0.142v0.071l-0.071-0z"></path>
</symbol>
<symbol id="icon-whatsapp" viewBox="0 0 32 32">
<path fill="#fff" style="fill: var(--color3, #fff)" d="M3.245 28.869l1.796-6.557c-1.108-1.919-1.691-4.096-1.69-6.326 0.003-6.977 5.681-12.653 12.658-12.653 3.386 0.001 6.563 1.319 8.953 3.711s3.705 5.571 3.704 8.952c-0.003 6.977-5.681 12.653-12.657 12.653-0.001 0 0 0 0 0h-0.005c-2.118-0.001-4.2-0.532-6.049-1.541l-6.71 1.76z"></path>
<path fill="#fff" style="fill: var(--color3, #fff)" d="M3.245 29.202c-0.088 0-0.173-0.035-0.237-0.099-0.083-0.085-0.116-0.208-0.085-0.322l1.759-6.424c-1.091-1.937-1.666-4.137-1.665-6.371 0.003-7.161 5.83-12.987 12.991-12.987 3.473 0.001 6.737 1.354 9.189 3.809s3.803 5.718 3.801 9.187c-0.003 7.161-5.831 12.987-12.991 12.987-2.126-0.001-4.229-0.525-6.096-1.518l-6.583 1.726c-0.028 0.008-0.056 0.011-0.085 0.011z"></path>
<path fill="#cfd8dc" style="fill: var(--color4, #cfd8dc)" d="M16.009 3.333c3.386 0.001 6.563 1.319 8.953 3.711s3.705 5.571 3.704 8.952c-0.003 6.977-5.681 12.653-12.657 12.653h-0.005c-2.118-0.001-4.2-0.532-6.049-1.541l-6.71 1.76 1.796-6.557c-1.108-1.919-1.691-4.096-1.69-6.326 0.003-6.977 5.681-12.653 12.658-12.653zM16.009 28.649c0 0 0 0 0 0s0 0 0 0zM16.009 28.649c0 0 0 0 0 0s0 0 0 0zM16.009 2.667c0 0 0 0 0 0-7.344 0-13.321 5.975-13.325 13.319-0.001 2.245 0.566 4.457 1.641 6.415l-1.723 6.293c-0.063 0.23 0.001 0.475 0.169 0.645 0.127 0.128 0.298 0.198 0.474 0.198 0.057 0 0.113-0.007 0.169-0.022l6.458-1.693c1.885 0.979 3.999 1.495 6.131 1.496 7.349 0 13.327-5.975 13.33-13.32 0.001-3.559-1.383-6.906-3.899-9.423-2.517-2.518-5.864-3.905-9.426-3.907v0z"></path>
<path fill="#40c351" style="fill: var(--color5, #40c351)" d="M23.451 8.555c-1.987-1.988-4.627-3.083-7.438-3.084-5.803 0-10.522 4.717-10.525 10.516-0.001 1.987 0.555 3.922 1.609 5.597l0.251 0.398-1.063 3.881 3.982-1.044 0.385 0.228c1.615 0.959 3.467 1.465 5.355 1.466h0.004c5.799 0 10.518-4.718 10.52-10.517 0.001-2.81-1.092-5.453-3.079-7.441z"></path>
<path fill="#fff" style="fill: var(--color3, #fff)" d="M12.845 10.697c-0.237-0.527-0.486-0.537-0.712-0.547-0.185-0.008-0.395-0.007-0.606-0.007s-0.553 0.079-0.843 0.396c-0.29 0.317-1.107 1.081-1.107 2.637s1.133 3.060 1.291 3.271c0.158 0.211 2.188 3.506 5.403 4.774 2.671 1.053 3.215 0.844 3.795 0.791s1.871-0.765 2.135-1.503c0.263-0.739 0.263-1.371 0.185-1.503s-0.29-0.211-0.606-0.369-1.871-0.923-2.161-1.029c-0.29-0.105-0.501-0.158-0.712 0.159s-0.817 1.029-1.001 1.239c-0.185 0.211-0.369 0.238-0.685 0.079s-1.335-0.492-2.543-1.569c-0.94-0.838-1.575-1.873-1.759-2.19s-0.020-0.487 0.139-0.645c0.142-0.142 0.316-0.369 0.475-0.554s0.211-0.317 0.316-0.527c0.105-0.211 0.053-0.396-0.027-0.554-0.078-0.159-0.693-1.723-0.974-2.348z"></path>
</symbol>
<symbol id="icon-percents" viewBox="0 0 32 32">
<path fill="#fff" style="fill: var(--color3, #fff)" d="M21.215 3.273l-13.258 25.345h2.778l13.316-25.345h-2.836zM2 17.338q1.476 1.375 4.233 1.375 2.633 0 4.131-1.302 0.356-0.313 0.647-0.691 1.513-1.993 1.513-5.527 0-3.491-1.498-5.513-0.291-0.385-0.64-0.698-1.491-1.324-4.153-1.324-2.538 0-4.044 1.251-2.189 1.818-2.189 6.284 0 3.564 1.462 5.542 0.247 0.327 0.538 0.604zM8.262 15.796q-0.749 0.633-2.029 0.633-1.193 0-1.891-0.531-0.029-0.022-0.058-0.044-0.655-0.531-0.945-1.498-0.305-1.011-0.305-3.164 0-2.058 0.305-3.135t1.011-1.6q0.713-0.531 1.884-0.531 1.207 0 1.949 0.582 0.298 0.24 0.524 0.567 0.785 1.156 0.785 4.116 0 2.953-0.764 4.095-0.204 0.291-0.465 0.509zM21.44 27.018q1.513 1.258 4.073 1.258 2.531 0 4.036-1.244 2.204-1.818 2.204-6.305 0-3.564-1.469-5.535-0.233-0.32-0.524-0.589-1.476-1.382-4.247-1.382-2.553 0-4.065 1.258-2.189 1.818-2.189 6.276 0 4.444 2.182 6.262zM27.396 25.476q-0.705 0.531-1.884 0.531-1.222 0-1.971-0.596-0.291-0.233-0.509-0.56-0.778-1.164-0.778-4.095t0.778-4.095q0.225-0.342 0.524-0.582 0.742-0.589 1.956-0.589 1.156 0 1.869 0.516 0.705 0.524 1.040 1.556 0.327 1.033 0.327 3.164 0 2.145-0.32 3.185-0.327 1.033-1.025 1.564h-0.007z"></path>
</symbol>
<symbol id="icon-logo" viewBox="0 0 63 32">
<path fill="#2ec0d2" style="fill: var(--color1, #2ec0d2)" d="M29.742 6.322h0.815l0.461 0.635 0.425 0.565 0.461 0.635 0.532 0.706v0.071l0.177-0.176 0.425-0.565 0.992-1.341 0.39-0.529h0.78v4.977h-0.78v-2.965l0.035-0.706-0.39 0.494-0.532 0.706-0.354 0.459-0.425 0.565-0.071 0.035h-0.425l-0.177-0.176-0.567-0.741-0.496-0.671-0.496-0.635-0.035-0.035 0.035 0.459v3.212l-0.78 0z"></path>
<path fill="#2ec0d2" style="fill: var(--color1, #2ec0d2)" d="M12.592 6.322h0.78l0.461 0.494 0.248 0.282 0.39 0.424 0.319 0.353 0.248 0.282 0.425 0.459 0.248 0.282 0.425 0.459 0.248 0.282 0.425 0.459 0.071 0.106-0.071-1.518v-2.365l0.779 0 0.035 0.035v4.906l-0.035 0.035-0.779-0-0.532-0.565-0.425-0.459-0.39-0.424-0.496-0.529-0.39-0.424-0.425-0.459-0.531-0.565-0.319-0.353 0.035 0.777 0.035 0.529v2.471l-0.78-0z"></path>
<path fill="#09c9f2" style="fill: var(--color2, #09c9f2)" d="M11.707 21.11h51.484v0.176l-0.071 0.035-51.413-0.035z"></path>
<path fill="#2fc0d2" style="fill: var(--color3, #2fc0d2)" d="M12.628 13.31l0.744 0.035v2.153h3.118v-2.153l0.78-0v4.977l-0.673 0.035-0.106-0.035v-2.082h-3.118v2.082l-0.744 0.035-0.035-0.035v-4.977z"></path>
<path fill="#2fc0d2" style="fill: var(--color3, #2fc0d2)" d="M24.782 14.51h0.779l0.425 0.106 0.425 0.212 0.283 0.212v-0.459l0.779-0v3.741l-0.744 0.035-0.035-0.565-0.425 0.318-0.39 0.176-0.39 0.106h-0.815l-0.496-0.141-0.354-0.212-0.354-0.318-0.283-0.494-0.106-0.353-0.035-0.529 0.106-0.565 0.248-0.459 0.319-0.353 0.39-0.247 0.354-0.141 0.319-0.071zM25.207 15.181l-0.425 0.071-0.319 0.141-0.283 0.212-0.213 0.247-0.106 0.247-0.035 0.176v0.388l0.142 0.388 0.319 0.353 0.354 0.212 0.39 0.106 0.496-0 0.425-0.106 0.354-0.212 0.283-0.318 0.142-0.353v-0.565l-0.142-0.353-0.283-0.318-0.496-0.247-0.425-0.071h-0.177z"></path>
<path fill="#2fc0d2" style="fill: var(--color3, #2fc0d2)" d="M19.998 14.51h0.85l0.532 0.141 0.39 0.212 0.39 0.353 0.213 0.353 0.142 0.424v0.671l-0.035 0.035h-3.508v0.106l0.142 0.282 0.177 0.212 0.425 0.247 0.354 0.106 0.248 0.035 0.602-0 0.354-0.071 0.425-0.176 0.248-0.141h0.106l0.248 0.424 0.035 0.141-0.354 0.212-0.532 0.212-0.496 0.106-0.957-0-0.567-0.141-0.425-0.212-0.39-0.318-0.213-0.282-0.177-0.353-0.071-0.282v-0.671l0.142-0.459 0.248-0.388 0.283-0.282 0.39-0.247 0.461-0.176 0.319-0.071zM20.175 15.181l-0.496 0.106-0.354 0.176-0.177 0.176-0.177 0.282-0.035 0.141 0.035 0.035h2.764l0.035-0.141-0.142-0.282-0.177-0.176-0.354-0.212-0.425-0.106h-0.496z"></path>
<path fill="#2ec0d2" style="fill: var(--color1, #2ec0d2)" d="M37.927 7.486h0.85l0.425 0.106 0.496 0.247 0.39 0.353 0.248 0.424 0.106 0.388v0.635l-0.283 0.035-3.295-0 0.142 0.353 0.213 0.247 0.425 0.247 0.39 0.106 0.248 0.035 0.531-0 0.496-0.106 0.567-0.282h0.106l0.283 0.494-0.035 0.106-0.567 0.282-0.602 0.176-0.213 0.035h-0.886l-0.567-0.141-0.319-0.141-0.39-0.247-0.248-0.247-0.248-0.424-0.106-0.318-0.035-0.424 0.071-0.494 0.177-0.424 0.248-0.318 0.248-0.247 0.354-0.212 0.425-0.176 0.354-0.071zM38.069 8.157l-0.496 0.106-0.39 0.212-0.213 0.282-0.106 0.212v0.106h2.764l0.071-0.035-0.035-0.176-0.142-0.247-0.283-0.247-0.425-0.176-0.213-0.035-0.531 0z"></path>
<path fill="#2ec0d2" style="fill: var(--color1, #2ec0d2)" d="M20.317 7.486h0.85l0.425 0.106 0.496 0.247 0.425 0.388 0.213 0.388 0.106 0.318v0.706l-0.673 0.035-2.906-0 0.142 0.318 0.177 0.247 0.39 0.247 0.461 0.141 0.248 0.035 0.567-0 0.567-0.141 0.461-0.247 0.106 0 0.283 0.459-0.035 0.141-0.567 0.282-0.425 0.141-0.39 0.071h-0.886l-0.567-0.141-0.567-0.282-0.283-0.247-0.248-0.353-0.177-0.424-0.035-0.141v-0.635l0.106-0.388 0.177-0.353 0.39-0.424 0.39-0.247 0.425-0.176 0.354-0.071zM20.459 8.157l-0.567 0.141-0.354 0.212-0.213 0.318-0.071 0.212 0.035 0.035 2.764-0 0.035-0.141-0.177-0.353-0.283-0.212-0.425-0.176-0.177-0.035h-0.567z"></path>
<path fill="#2fc0d2" style="fill: var(--color3, #2fc0d2)" d="M43.809 13.31h0.957l0.567 0.141 0.496 0.212 0.425 0.282 0.177 0.176-0.213 0.318-0.248 0.318-0.177-0.106-0.496-0.318-0.461-0.176-0.425-0.071-0.319-0-0.532 0.106-0.425 0.212-0.354 0.318-0.213 0.318-0.142 0.353-0.035 0.141v0.635l0.142 0.459 0.213 0.318 0.177 0.176 0.283 0.212 0.425 0.176 0.248 0.071 0.319 0.035 0.354-0 0.496-0.106 0.354-0.141 0.532-0.353h0.106l0.319 0.565-0.071 0.141-0.354 0.247-0.532 0.247-0.496 0.141-0.213 0.035-0.886-0-0.602-0.141-0.567-0.282-0.39-0.318-0.319-0.388-0.248-0.494-0.106-0.388-0.035-0.247v-0.565l0.106-0.494 0.283-0.565 0.213-0.282 0.354-0.353 0.39-0.247 0.354-0.176z"></path>
<path fill="#2ec0d2" style="fill: var(--color1, #2ec0d2)" d="M23.116 7.557h0.815l0.354 1.094 0.425 1.341 0.071 0.141 0.709-1.447 0.248-0.529 0.602-0 0.283 0.565 0.709 1.447 0.071 0.035 0.035-0.247 0.602-1.659 0.248-0.706 0.035-0.035 0.744 0-0.035 0.176-0.39 1.059-0.638 1.659-0.319 0.812-0.035 0.035-0.531 0-0.709-1.447-0.319-0.671v-0.106l-0.106 0.106-0.461 0.988-0.532 1.129-0.532-0-0.142-0.318-0.602-1.694-0.461-1.271-0.142-0.388z"></path>
<path fill="#2fc0d2" style="fill: var(--color3, #2fc0d2)" d="M34.632 13.063h0.744l0.035 2.047 0.354-0.282 0.496-0.247 0.283-0.071 0.709 0 0.354 0.106 0.354 0.212 0.248 0.282 0.177 0.388 0.071 0.494v2.33l-0.709 0.035-0.035-0.035-0.035-2.047-0.035-0.388-0.177-0.353-0.213-0.176-0.354-0.141-0.531-0-0.39 0.141-0.319 0.247-0.213 0.353-0.035 0.141-0.035 2.224-0.709 0.035-0.035-0.035z"></path>
<path fill="#2fc0d2" style="fill: var(--color3, #2fc0d2)" d="M53.801 14.51h0.709l0.461 0.141 0.354 0.247 0.213 0.282 0.177 0.424 0.035 0.212v2.506l-0.142 0.035-0.567-0-0.035-0.035-0.035-2.259-0.106-0.353-0.213-0.282-0.354-0.176-0.177-0.035-0.354-0-0.461 0.141-0.319 0.247-0.213 0.282-0.071 0.282-0.035 2.153-0.071 0.035h-0.602l-0.071-0.035v-3.741h0.744v0.6l0.283-0.247 0.354-0.247 0.354-0.141z"></path>
<path fill="#2fc0d2" style="fill: var(--color3, #2fc0d2)" d="M60.852 14.51h0.815l0.496 0.106 0.425 0.176 0.39 0.247 0.142 0.141-0.035 0.176-0.319 0.424-0.142-0.035-0.283-0.212-0.425-0.212-0.39-0.106-0.567-0-0.354 0.106-0.354 0.212-0.248 0.318-0.142 0.459v0.282l0.106 0.388 0.213 0.282 0.248 0.212 0.283 0.141 0.248 0.071 0.673 0 0.461-0.141 0.461-0.247 0.142-0.106 0.071 0 0.354 0.494v0.106l-0.461 0.282-0.496 0.212-0.496 0.106h-0.886l-0.496-0.141-0.39-0.212-0.39-0.353-0.248-0.388-0.142-0.388-0.035-0.176v-0.565l0.106-0.388 0.213-0.424 0.319-0.353 0.425-0.282 0.496-0.176z"></path>
<path fill="#2fc0d2" style="fill: var(--color3, #2fc0d2)" d="M2.813 9.675h0.78l0.567 0.141 0.567 0.282 0.39 0.282 0.283 0.282 0.319 0.494 0.177 0.388 0.142 0.529 0.035 0.6-0.071 0.494-0.177 0.529-0.39 0.882-0.319 0.671-0.425 0.776-0.496 0.847-0.248 0.388-0.425 0.635-0.354 0.494-0.425 0.565-0.461 0.565-0.354 0.424-0.035 0.071h-0.071l-0.071-0.353v-0.247l0.354-0.424 0.461-0.6 0.461-0.635 0.567-0.847 0.425-0.706 0.496-0.882 0.567-1.129 0.39-0.918 0.106-0.565v-0.353l-0.106-0.565-0.213-0.459-0.213-0.318-0.213-0.247-0.461-0.318-0.39-0.176-0.39-0.106-0.425-0.035-0.531 0.071-0.283 0.071-0.142 0-0.071-0.424 0.461-0.141z"></path>
<path fill="#2ec0d2" style="fill: var(--color1, #2ec0d2)" d="M2.671 7.028h1.028l0.673 0.106 0.638 0.176 0.744 0.318 0.638 0.388 0.461 0.388 0.354 0.318 0.319 0.388 0.319 0.459 0.319 0.565 0.248 0.6 0.177 0.671 0.106 0.741v0.812l-0.106 0.741-0.213 0.741-0.248 0.565-0.071-0.106-0.106-0.565 0.035-0.282 0.142-0.529 0.071-0.529v-0.918l-0.106-0.671-0.177-0.6-0.283-0.635-0.283-0.494-0.248-0.318-0.035-0.141v-0.318l-0.071 0.035-0.071 0.141-0.142-0.071-0.319-0.318-0.532-0.388-0.567-0.318-0.744-0.282-0.602-0.141-0.248-0.035-1.169 0-0.709 0.141-0.638 0.212-0.567 0.282-0.106 0.071h-0.106l0.071-0.529 0.213-0.141 0.709-0.282 0.709-0.176z"></path>
<path fill="#2fc0d2" style="fill: var(--color3, #2fc0d2)" d="M31.549 13.487h0.744l0.035 0.035v1.024l1.205 0.035 0.035 0.035v0.635l-0.035 0.035-1.205-0v3.035l-0.142 0.035-0.602-0-0.035-0.035v-3h-0.992l-0.035-0.035-0.035-0.671 0.035-0.035 1.028 0z"></path>
<path fill="#2fc0d2" style="fill: var(--color3, #2fc0d2)" d="M2.884 10.557h0.673l0.532 0.176 0.461 0.318 0.248 0.282 0.213 0.353 0.142 0.459 0.035 0.212v0.353l-0.106 0.494-0.39 0.882-0.461 0.953-0.461 0.812-0.461 0.776-0.567 0.847-0.461 0.635-0.354 0.459-0.248 0.318-0.071-0.071-0.071-0.353v-0.176l0.354-0.459 0.354-0.494 0.638-0.953 0.425-0.706 0.425-0.776 0.425-0.812 0.425-0.953 0.106-0.424v-0.353l-0.106-0.424-0.213-0.353-0.071-0.141-0.142-0.071-0.319-0.212-0.319-0.106-0.354-0.035-0.461 0.071-0.283 0.141-0.106-0v-0.494l0.39-0.141z"></path>
<path fill="#2fc0d2" style="fill: var(--color3, #2fc0d2)" d="M7.065 14.051l0.071 0.035 0.106 0.494v0.282l-0.496 1.024-0.319 0.741-0.248 0.671-0.213 0.776-0.142 0.706-0.071 0.529-0.035 0.459v0.847l0.106 0.847 0.142 0.6 0.248 0.671 0.106 0.247 0.035 0.882-0.071-0-0.354-0.6-0.248-0.529-0.248-0.776-0.142-0.706-0.071-0.847v-0.459l0.071-0.882 0.142-0.847 0.248-0.953 0.283-0.812 0.319-0.706 0.354-0.777 0.248-0.529z"></path>
<path fill="#2fc0d2" style="fill: var(--color3, #2fc0d2)" d="M2.671 6.145h1.063l0.921 0.141 0.709 0.212 0.638 0.282 0.532 0.282 0.602 0.424 0.354 0.318 0.283 0.247 0.319 0.353 0.283 0.388 0.071 0.353 0.071 0.671-0.071 0-0.354-0.6-0.319-0.424-0.39-0.424-0.354-0.353-0.567-0.424-0.567-0.318-0.602-0.282-0.709-0.212-0.496-0.106-0.815-0.071-0.709 0.035-0.815 0.141-1.063 0.353 0.035-0.282 0.106-0.282 0.638-0.212 0.85-0.176z"></path>
<path fill="#2fc0d2" style="fill: var(--color3, #2fc0d2)" d="M47.388 13.028l0.744 0.035v5.259l-0.709 0.035-0.035-0.035-0.035-1.447v-3.6z"></path>
<path fill="#2fc0d2" style="fill: var(--color3, #2fc0d2)" d="M2.955 11.439h0.496l0.354 0.141 0.213 0.176 0.213 0.353 0.071 0.247v0.318l-0.142 0.459-0.461 0.988-0.39 0.776-0.496 0.847-0.39 0.635-0.461 0.671-0.39 0.529-0.106 0.106-0.035-0.212v-0.494l0.354-0.529 0.461-0.706 0.39-0.671 0.425-0.777 0.425-0.847 0.283-0.671 0.035-0.106v-0.318l-0.106-0.212-0.213-0.176-0.071-0.035h-0.461l-0.248 0.176-0.213 0.424-0.39 0.847-0.39 0.776-0.071 0.035 0.071-0.353 0.213-0.635 0.283-0.565 0.106-0.282 0.035-0.529 0.177-0.212 0.283-0.141z"></path>
<path fill="#2fc0d2" style="fill: var(--color3, #2fc0d2)" d="M28.892 13.028l0.709 0.035v5.259l-0.709 0.035-0.035-0.035v-5.259z"></path>
<path fill="#2fc0d2" style="fill: var(--color3, #2fc0d2)" d="M2.742 7.91h0.921l0.638 0.106 0.638 0.212 0.567 0.282 0.39 0.247 0.39 0.318 0.425 0.424-0.035 0.318-0.071 0.282-0.177-0.176-0.39-0.424-0.425-0.353-0.532-0.318-0.602-0.247-0.531-0.141-0.602-0.071-0.319-0-0.602 0.071-0.744 0.212-0.567 0.282-0.39 0.247-0.354 0.282-0.035-0.106 0.035-0.459 0.142-0.176 0.744-0.424 0.567-0.212 0.638-0.141z"></path>
<path fill="#2fc0d2" style="fill: var(--color3, #2fc0d2)" d="M49.656 14.581h0.744v3.741l-0.709 0.035-0.035-0.035-0.035-1.306v-2.047z"></path>
<path fill="#2fc0d2" style="fill: var(--color3, #2fc0d2)" d="M57.309 14.581h0.709l0.035 0.035v3.706l-0.709 0.035-0.035-0.035-0.035-1.341v-1.941z"></path>
<path fill="#2fc0d2" style="fill: var(--color3, #2fc0d2)" d="M7.313 15.64l0.071 0.071v0.882l-0.354 0.882-0.213 0.741-0.142 0.741-0.071 0.671v0.847l0.106 0.776v0.282l-0.142 0.565h-0.106l-0.142-0.388-0.142-0.671-0.071-0.635v-0.706l0.071-0.741 0.177-0.918 0.283-0.918 0.213-0.529 0.425-0.882z"></path>
<path fill="#2fc0d2" style="fill: var(--color3, #2fc0d2)" d="M3.415 5.263h0.319l0.602 0.071 0.815 0.176 0.638 0.212 0.638 0.282 0.638 0.353 0.496 0.353 0.354 0.282 0.213 0.176 0.142 0.635v0.141l-0.106-0.035-0.248-0.282-0.354-0.318-0.638-0.459-0.532-0.318-0.673-0.318-0.85-0.282-0.709-0.141-0.673-0.071-0.177-0.106-0.035-0.176z"></path>
<path fill="#2fc0d2" style="fill: var(--color3, #2fc0d2)" d="M6.463 12.498h0.071l0.319 0.706-0.035 0.353-0.213 0.565-0.354 0.812-0.283 0.565-0.461 0.882-0.496 0.847-0.425 0.671-0.035 0.071-0.071 0-0.035-0.741 0.567-0.988 0.461-0.847 0.461-0.953 0.354-0.847 0.142-0.6z"></path>
<path fill="#2fc0d2" style="fill: var(--color3, #2fc0d2)" d="M2.777 8.792h0.85l0.567 0.106 0.567 0.212 0.567 0.318 0.354 0.282 0.39 0.388 0.319 0.459 0.071 0.106v0.212l-0.142 0.141h-0.177l-0.248-0.318-0.283-0.388-0.248-0.247-0.496-0.353-0.532-0.247-0.496-0.141-0.177-0.035-0.957 0-0.567 0.141-0.142-0.035-0.106-0.282v-0.106l0.461-0.141z"></path>
<path fill="#646e71" style="fill: var(--color4, #646e71)" d="M26.695 24.040h0.248l0.248 0.106 0.106 0.212 0.177-0.212 0.248-0.106h0.248l0.248 0.106 0.106 0.176 0.035 0.247 0.035 1.129 0.213 0.141v0.035l-0.78-0 0.035-0.106 0.106-0.071v-1.412l-0.177-0.106-0.248 0.071-0.142 0.176-0.071 0.176v1.129l0.213 0.071v0.071l-0.744 0 0.035-0.106 0.106-0.106v-1.306l-0.071-0.141-0.177-0.035-0.213 0.106-0.142 0.176-0.035 0.106-0.035 0.388v0.776l0.213 0.071v0.071l-0.78 0-0.035-0.071 0.248-0.071v-1.377l-0.035-0.106-0.213-0.106v-0.035l0.602-0.035v0.247l0.248-0.212z"></path>
<path fill="#656d6f" style="fill: var(--color5, #656d6f)" d="M16.667 24.040h0.248l0.177 0.071 0.106 0.106 0.035 0.106 0.071 0.035 0.071-0.141 0.177-0.141 0.142-0.035 0.248 0 0.248 0.106 0.106 0.212 0.035 1.377 0.213 0.071v0.071h-0.744l0.035-0.106 0.106-0.071v-1.412l-0.071-0.071h-0.284l-0.213 0.176-0.071 0.212v1.094l0.213 0.141v0.035l-0.78-0v-0.071l0.177-0.071v-1.377l-0.035-0.141-0.213-0.035-0.248 0.106-0.142 0.247-0.035 1.2 0.177 0.071v0.071h-0.744l-0.035-0.071 0.213-0.106 0.035-0.247v-1.2l-0.213-0.071-0.035-0.071 0.602-0.035v0.247l0.248-0.212z"></path>
<path fill="#2fc0d2" style="fill: var(--color3, #2fc0d2)" d="M4.585 20.263l0.142 0.035 0.071 0.071 0.071 0.6 0.106 0.741 0.213 0.812 0.283 0.706 0.319 0.6 0.177 0.247v0.212l-0.142 0.141-1.169-0.247-0.035-0.176 0.071-0.282 0.461 0.071 0.071 0.035-0.319-0.671-0.283-0.847-0.071-0.565z"></path>
<path fill="#2fc0d2" style="fill: var(--color3, #2fc0d2)" d="M3.592 4.38l0.532 0.035 0.85 0.141 0.39 0.106 0.283 0.212 1.276 0.424 0.567 0.282 0.213 0.247 0.213 0.494v0.106l-0.142-0.071-0.532-0.353-0.638-0.353-0.638-0.282-0.85-0.282-0.921-0.176-0.886-0.071 0.071-0.141z"></path>
<path fill="#2fc0d2" style="fill: var(--color3, #2fc0d2)" d="M3.061 12.322h0.213l0.142 0.106v0.212l-0.531 1.165-0.461 0.882-0.531 0.882-0.39 0.6-0.106 0.071 0.035-0.671 0.071-0.282 0.39-0.671 0.283-0.494 0.283-0.565 0.531-1.165z"></path>
<path fill="#2fc0d2" style="fill: var(--color3, #2fc0d2)" d="M4.266 17.475h0.071l-0.035 0.776-0.142 0.282-0.496 0.671-0.496 0.635-0.425 0.494-0.319 0.388-0.354 0.388-0.071-0.035-0.071-0.388 0.035-0.176 0.319-0.353 0.319-0.388 0.461-0.565 0.496-0.671z"></path>
<path fill="#657073" style="fill: var(--color6, #657073)" d="M40.018 23.193h0.213v1.129l0.248-0.212 0.213-0.071h0.248l0.213 0.106 0.106 0.141 0.035 0.106 0.035 1.306 0.213 0.106v0.071l-0.78-0 0.035-0.106 0.106-0.035 0.035-0.494v-0.776l-0.071-0.212-0.035-0.035-0.319 0-0.177 0.141-0.071 0.141-0.035 1.235 0.213 0.071v0.071l-0.78-0-0.035-0.071 0.213-0.106v-2.329l-0.213-0.106v-0.035z"></path>
<path fill="#647073" style="fill: var(--color7, #647073)" d="M46.963 23.652h0.213l0.106 0.106-0.035 0.212-0.035 0.035-0.213-0-0.035-0.141-0.142 0.141v0.106l0.142 0.071 0.142 0.176 0.035 0.353-0.106 0.212-0.213 0.176-0.106 0.035-0.532 0.035-0.177 0.106-0.071 0.176 1.134 0.035 0.177 0.106 0.071 0.071v0.318l-0.213 0.318-0.283 0.176-0.142 0.035h-0.673l-0.283-0.141-0.071-0.071 0.035-0.247 0.283-0.247-0.213-0.106-0.035-0.247 0.142-0.212 0.142-0.106 0.071 0-0.213-0.318-0.035-0.318 0.106-0.247 0.142-0.141 0.213-0.071 0.425 0 0.071-0.212 0.177-0.176zM46.396 24.11l-0.142 0.071-0.071 0.141v0.529l0.071 0.141 0.106 0.071h0.248l0.177-0.212v-0.494l-0.142-0.212-0.248-0.035zM46.36 25.769l-0.283 0.071-0.142 0.212v0.176l0.177 0.176 0.106 0.035h0.425l0.248-0.106 0.177-0.212v-0.247l-0.071-0.071-0.177-0.035-0.461 0z"></path>
<path fill="#2fc0d2" style="fill: var(--color3, #2fc0d2)" d="M3.982 22.275l0.177 0.071 0.035 0.035v0.318l-0.035 0.388-0.071 0.141-0.39-0-0.319 0.318-0.035 0.071h0.602l0.177 0.035 0.035 0.459-1.559-0.071-0.071-0.106v-0.212l0.78-0.776 0.248-0.282 0.354-0.353z"></path>
<path fill="#656d6f" style="fill: var(--color5, #656d6f)" d="M30.947 23.193h0.213v1.694l0.283-0.176 0.319-0.318v-0.141l-0.213-0.106v-0.035l0.709-0.035-0.035 0.106-0.248 0.141-0.283 0.282-0.106 0.141 0.071 0.176 0.461 0.6 0.177 0.212 0.106 0.071v0.071l-0.673 0 0.071-0.176-0.39-0.565-0.071-0.141-0.177-0.035 0.035 0.741 0.177 0.106v0.071h-0.78v-0.071l0.213-0.071v-2.329l-0.071-0.071-0.177-0.071v-0.035z"></path>
<path fill="#2fc0d2" style="fill: var(--color3, #2fc0d2)" d="M2.777 1.733h1.028l1.028 0.106 1.063 0.212 0.142 0.071-0.106 0.353-0.035 0.035-0.319-0.035-0.957-0.176-0.673-0.071-1.134-0.035-0.035-0.035z"></path>
<path fill="#2ec0d2" style="fill: var(--color1, #2ec0d2)" d="M4.195 19.134h0.035v0.706l-0.106 0.212-0.638 0.776-0.425 0.494-0.425 0.459-0.283 0.282-0.035 0.071-0.106 0-0.071-0.353v-0.176l0.283-0.282 0.248-0.282 0.425-0.494 0.39-0.459 0.319-0.424z"></path>
<path fill="#637174" style="fill: var(--color8, #637174)" d="M44.589 24.040h0.248l0.248 0.106 0.106 0.176 0.035 0.176v1.059l0.071 0.176 0.177 0.071v0.071l-0.78 0v-0.106l0.142-0.071 0.035-0.318-0.035-1.059-0.071-0.106-0.177-0.035-0.248 0.106-0.142 0.212-0.035 0.176v1.024l0.177 0.106v0.071h-0.779v-0.071l0.213-0.106v-1.412l-0.248-0.141v-0.035l0.602-0.035 0.035 0.247 0.283-0.247z"></path>
<path fill="#2fc0d2" style="fill: var(--color3, #2fc0d2)" d="M2.99 0.851h0.78l1.098 0.106 0.992 0.176 0.035 0.035v0.459l-0.39-0.071-0.85-0.141-0.709-0.071-1.028-0.035-0.035-0.106z"></path>
<path fill="#2fc0d2" style="fill: var(--color3, #2fc0d2)" d="M1.537 10.169l0.071 0.035-0.106 0.565-0.142 0.212-0.248 0.353-0.531 1.165-0.39 0.741-0.106 0.212h-0.035v-0.953l0.532-1.165 0.248-0.459 0.39-0.459z"></path>
<path fill="#2fc0d2" style="fill: var(--color3, #2fc0d2)" d="M2.919 2.616h0.85l0.992 0.106 0.886 0.176 0.142 0.071-0.142 0.388-0.319-0.035-1.063-0.176-1.098-0.071-0.142-0.035-0.106-0.318z"></path>
<path fill="#656e71" style="fill: var(--color9, #656e71)" d="M14.222 23.404l0.071 0.035v0.741l-0.106-0.035-0.106-0.459-0.106-0.106-0.461-0.035v2.188l0.319 0.071v0.071h-0.992v-0.106l0.283-0.035v-2.188l-0.283 0-0.248 0.035-0.142 0.565h-0.106v-0.706z"></path>
<path fill="#646f72" style="fill: var(--color10, #646f72)" d="M23.435 24.040h0.354l0.283 0.106 0.177 0.176 0.142 0.282 0.035 0.141v0.459l-0.106 0.353-0.213 0.247-0.213 0.106h-0.532l-0.248-0.141-0.177-0.212-0.106-0.353v-0.459l0.142-0.388 0.142-0.176 0.177-0.106 0.142-0.035zM23.47 24.146l-0.213 0.247-0.071 0.318v0.635l0.106 0.282 0.142 0.176 0.319 0.035 0.213-0.176 0.071-0.176 0.035-0.212v-0.565l-0.071-0.318-0.213-0.247-0.319-0z"></path>
<path fill="#2fc0d2" style="fill: var(--color3, #2fc0d2)" d="M4.159 20.651h0.035l0.035 0.6-0.106 0.176-0.425 0.494-0.39 0.424-0.496 0.529-0.283 0.282-0.071-0.106-0.071-0.247v-0.176l0.567-0.6 0.425-0.459 0.319-0.388z"></path>
<path fill="#617478" style="fill: var(--color11, #617478)" d="M42.356 24.040h0.319l0.248 0.106 0.142 0.176 0.035 0.212v1.235l0.283-0.035-0.035 0.106-0.248 0.071-0.248-0.035-0.071-0.176-0.319 0.176-0.142 0.035h-0.248l-0.213-0.141-0.071-0.176 0.035-0.282 0.177-0.176 0.709-0.353 0.035-0.318-0.071-0.247-0.035-0.035h-0.425l0.035 0.141v0.282l-0.283 0.035-0.071-0.071v-0.247l0.142-0.176 0.319-0.106zM42.675 24.887l-0.496 0.282-0.071 0.141v0.247l0.106 0.176 0.177 0.035 0.248-0.106 0.106-0.106 0.035-0.671-0.106-0z"></path>
<path fill="#0ec7ee" style="fill: var(--color12, #0ec7ee)" d="M41.718 6.004h0.319l0.319 0.071 0.319 0.212 0.177 0.212 0.142 0.282 0.035 0.141v0.388l-0.142 0.388-0.248 0.282-0.283 0.176-0.283 0.071-0.39 0-0.39-0.141-0.283-0.247-0.177-0.318-0.035-0.141v-0.529l0.142-0.318 0.177-0.247 0.248-0.176 0.354-0.106zM41.683 6.18l-0.319 0.141-0.248 0.247-0.142 0.388v0.353l0.071 0.247 0.177 0.247 0.248 0.176 0.213 0.071 0.461-0 0.319-0.141 0.283-0.318 0.071-0.176v-0.565l-0.177-0.353-0.248-0.212-0.283-0.106h-0.425z"></path>
<path fill="#646f72" style="fill: var(--color10, #646f72)" d="M29.388 24.040h0.354l0.248 0.106 0.142 0.212 0.035 1.377h0.283l-0.142 0.141-0.283 0.035-0.142-0.071-0.035-0.176-0.319 0.212-0.142 0.035-0.248-0-0.177-0.106-0.106-0.176v-0.282l0.177-0.212 0.602-0.282 0.177-0.071-0.035-0.494-0.106-0.106-0.425-0.035 0.035 0.176 0.035 0.035v0.212l-0.106 0.071-0.248-0.035-0.035-0.247 0.177-0.212 0.284-0.106zM29.778 24.852l-0.496 0.282-0.106 0.141-0.035 0.176 0.106 0.247 0.106 0.071 0.213-0.035 0.177-0.106 0.071-0.106v-0.671h-0.035z"></path>
<path fill="#646e71" style="fill: var(--color4, #646e71)" d="M35.801 24.040h0.354l0.248 0.106 0.142 0.212 0.035 1.377h0.283l-0.142 0.141-0.283 0.035-0.142-0.071-0.071-0.141-0.283 0.176-0.354 0.035-0.213-0.106-0.106-0.176v-0.282l0.142-0.176 0.567-0.282 0.177-0.106 0.071-0-0.035-0.494-0.106-0.106h-0.461l0.106 0.176v0.212l-0.106 0.071-0.177 0-0.106-0.106 0.035-0.247 0.213-0.176 0.213-0.071zM36.191 24.852l-0.496 0.282-0.106 0.141-0.035 0.176 0.106 0.247 0.106 0.071 0.213-0.035 0.213-0.141 0.035-0.035v-0.706l-0.035 0z"></path>
<path fill="#637376" style="fill: var(--color13, #637376)" d="M48.238 24.040h0.319l0.248 0.106 0.142 0.176 0.106 0.282v0.176l-0.035 0.035h-1.063l0.035 0.459 0.142 0.282 0.142 0.141 0.106 0.035h0.248l0.177-0.106 0.177-0.212h0.071l-0.035 0.176-0.177 0.212-0.213 0.106h-0.461l-0.283-0.141-0.177-0.212-0.106-0.318v-0.459l0.142-0.388 0.213-0.247 0.283-0.106zM48.238 24.146l-0.177 0.176-0.106 0.282v0.106l0.673 0.035 0.071-0.035v-0.247l-0.142-0.282-0.035-0.035-0.283 0z"></path>
<path fill="#2ec0d2" style="fill: var(--color1, #2ec0d2)" d="M1.254 11.969l0.035 0.141-0.283 1.412-0.283 0.565-0.283 0.494-0.39 0.6-0.071-0.035 0.035-0.812 0.319-0.529 0.496-0.918 0.354-0.776z"></path>
<path fill="#637174" style="fill: var(--color8, #637174)" d="M33.144 24.040h0.354l0.283 0.141 0.142 0.212 0.071 0.388-0.035 0.035-1.063-0 0.035 0.494 0.213 0.353 0.142 0.071 0.283 0 0.213-0.141 0.142-0.176h0.071l-0.071 0.212-0.283 0.247-0.106 0.035-0.425-0-0.248-0.106-0.213-0.247-0.106-0.318v-0.494l0.106-0.318 0.248-0.282 0.248-0.106zM33.179 24.146l-0.177 0.176-0.106 0.247v0.141l0.673 0.035 0.071-0.035-0.035-0.353-0.106-0.176-0.071-0.035-0.248-0z"></path>
<path fill="#637175" style="fill: var(--color14, #637175)" d="M19.431 24.040h0.354l0.248 0.106 0.177 0.212 0.071 0.212v0.212l-0.035 0.035-1.063-0 0.035 0.424 0.142 0.318 0.142 0.141 0.106 0.035 0.248-0 0.213-0.106 0.177-0.212 0.035 0.106-0.213 0.282-0.213 0.106h-0.461l-0.283-0.141-0.213-0.318-0.071-0.353 0.035-0.459 0.177-0.353 0.213-0.176 0.177-0.071zM19.466 24.146l-0.177 0.176-0.106 0.318v0.071l0.673 0.035 0.106-0.035-0.071-0.388-0.142-0.176h-0.283z"></path>
<path fill="#666d70" style="fill: var(--color15, #666d70)" d="M21.876 23.546h0.177v0.529l0.532 0.035v0.071l-0.532-0 0.035 1.482 0.106 0.106 0.177-0.035 0.106-0.106 0.106-0.212 0.071 0-0.035 0.247-0.177 0.212-0.071 0.035-0.39-0-0.177-0.141-0.071-0.212v-1.377h-0.319l-0.035-0.071 0.319-0.035 0.035-0.494z"></path>
<path fill="#2fc0d2" style="fill: var(--color3, #2fc0d2)" d="M3.911 0.004h0.425l0.779 0.106 0.283 0.176 0.319 0.353-0.142 0.035-0.886-0.141-0.709-0.071-0.673-0.035 0.071-0.141 0.425-0.247z"></path>
<path fill="#646f71" style="fill: var(--color16, #646f71)" d="M38.636 24.040h0.319l0.248 0.106 0.142 0.176v0.212l-0.071 0.071h-0.248l-0.071-0.106 0.035-0.176 0.035-0.141-0.283-0.035-0.213 0.106-0.142 0.247-0.035 0.176v0.6l0.106 0.282 0.142 0.141 0.319 0.035 0.213-0.106 0.177-0.212h0.071l-0.071 0.212-0.283 0.247-0.071 0.035-0.461-0-0.283-0.176-0.177-0.282-0.071-0.247v-0.388l0.106-0.353 0.177-0.247 0.248-0.141z"></path>
<path fill="#2ec0d2" style="fill: var(--color1, #2ec0d2)" d="M1.679 9.075h0.035v0.282l-0.035 0.247-0.425 0.282-0.283 0.247-0.071-0-0.071 0.141-0.319 0.353-0.213 0.353-0.035-0.071 0.035-0.776 0.248-0.282 0.354-0.318 0.638-0.388z"></path>
<path fill="#2fbfd1" style="fill: var(--color17, #2fbfd1)" d="M3.274 3.498h0.531l0.886 0.106 0.602 0.106 0.035 0.106-0.071 0.141-0.035 0.212-0.319-0.035-0.992-0.141-0.354-0.035-0.283-0.388z"></path>
<path fill="#2ec0d2" style="fill: var(--color1, #2ec0d2)" d="M4.549 24.604l0.354 0.035 0.85 0.212 0.532 0.176 0.035 0.035v0.282l-0.035 0.176-0.354-0.106-0.886-0.247-0.496-0.106-0.035-0.035v-0.318z"></path>
<path fill="#2fc0d2" style="fill: var(--color3, #2fc0d2)" d="M2.848 25.346h0.638l0.779 0.071 0.035 0.035v0.353l-0.035 0.071-0.638-0.035-1.098 0-0.035-0.459z"></path>
<path fill="#2ec0d2" style="fill: var(--color1, #2ec0d2)" d="M4.514 25.487l0.354 0.035 0.744 0.212 0.602 0.212 0.035 0.106-0.035 0.388-0.354-0.106-0.744-0.247-0.567-0.141-0.035-0.035-0.035-0.388z"></path>
<path fill="#2fc0d2" style="fill: var(--color3, #2fc0d2)" d="M2.459 24.499h1.453l0.319 0.035 0.035 0.035v0.424l-0.744-0.035h-1.063z"></path>
<path fill="#2fc0d2" style="fill: var(--color3, #2fc0d2)" d="M57.451 12.851h0.425l0.213 0.141 0.071 0.141v0.318l-0.106 0.176-0.177 0.141-0.425-0-0.177-0.106-0.106-0.176v-0.353l0.213-0.247z"></path>
<path fill="#2fc0d2" style="fill: var(--color3, #2fc0d2)" d="M49.797 12.851h0.425l0.213 0.141 0.071 0.141v0.353l-0.213 0.247-0.071 0.035-0.425-0-0.213-0.141-0.071-0.141v-0.318l0.106-0.176z"></path>
<path fill="#2fc0d2" style="fill: var(--color3, #2fc0d2)" d="M4.549 26.405l0.354 0.035 0.673 0.212 0.532 0.212 0.035 0.106-0.071 0.388-0.213-0.071-0.744-0.282-0.496-0.141-0.035-0.035z"></path>
<path fill="#2ec0d2" style="fill: var(--color1, #2ec0d2)" d="M2.884 26.228h0.531l0.78 0.071 0.035 0.035v0.424l-0.602-0.035h-0.957l-0.071-0.141v-0.318z"></path>
<path fill="#2fc0d2" style="fill: var(--color3, #2fc0d2)" d="M2.281 5.298h0.354l0.106 0.106v0.212l-0.106 0.106-0.957 0.176-0.531 0.141-0.142-0.035 0.213-0.353 0.213-0.176 0.602-0.141z"></path>
<path fill="#667376" style="fill: var(--color18, #667376)" d="M16.029 24.075h0.213v0.247l0.177-0.176 0.071 0.035-0.213 0.353-0.035 1.2 0.177 0.071v0.071l-0.744-0-0.035-0.071 0.213-0.106 0.035-0.247v-1.2l-0.213-0.071-0.035-0.071z"></path>
<path fill="#677174" style="fill: var(--color19, #677174)" d="M25.986 24.075h0.283v0.247l0.177-0.176 0.071 0.035-0.177 0.282-0.035 0.106-0.035 0.388v0.776l0.213 0.071v0.071l-0.779-0-0.035-0.071 0.248-0.071v-1.377l-0.035-0.106-0.213-0.106v-0.035z"></path>
<path fill="#666d70" style="fill: var(--color15, #666d70)" d="M14.966 24.075h0.177l0.035 1.624 0.213 0.106v0.071l-0.815-0 0.035-0.106 0.142-0.035 0.035-0.071v-1.377l-0.213-0.106v-0.071z"></path>
<path fill="#2ec0d2" style="fill: var(--color1, #2ec0d2)" d="M8.766 14.545h0.035v1.129l-0.638 1.341-0.035 0.106-0.071-0 0.142-0.741 0.071-0.247v-0.459l0.425-0.953z"></path>
<path fill="#2ec0d2" style="fill: var(--color1, #2ec0d2)" d="M2.919 27.11h0.425l0.567 0.035 0.248 0.071v0.388l-0.035 0.035-1.346-0.071-0.071-0.212v-0.212z"></path>
<path fill="#2ec0d2" style="fill: var(--color1, #2ec0d2)" d="M4.655 27.322l0.248 0.035 0.602 0.212 0.461 0.212v0.282l-0.035 0.212-0.177-0.071-0.673-0.282-0.39-0.141-0.035-0.035z"></path>
<path fill="#2dc0d2" style="fill: var(--color20, #2dc0d2)" d="M4.691 30.146l0.213 0.071 0.673 0.424 0.106 0.141 0.106 0.318 0.248 0.318-0.035 0.071-0.567-0.353-0.744-0.494-0.035-0.035v-0.282z"></path>
<path fill="#2dc0d3" style="fill: var(--color21, #2dc0d3)" d="M41.541 6.463h0.496l0.248 0.071 0.142 0.176v0.247l-0.142 0.176-0.106 0.071 0.071 0.176 0.142 0.212 0.071 0.141-0.177 0.035-0.248-0.353-0.071-0.212h-0.248l-0.035 0.529-0.142 0.035-0.035-0.035v-1.235l0.035-0.035zM41.718 6.604l-0.071 0.212v0.176l0.106 0.071h0.248l0.213-0.071 0.035-0.035v-0.212l-0.106-0.106-0.425-0.035z"></path>
<path fill="#2ec0d2" style="fill: var(--color1, #2ec0d2)" d="M2.848 27.993h0.567l0.673 0.071v0.353l-0.035 0.106-1.134-0.071-0.071-0.247z"></path>
<path fill="#0cc8ef" style="fill: var(--color22, #0cc8ef)" d="M42.782 6.569l0.142 0.035 0.106 0.318v0.388l-0.142 0.388-0.248 0.282-0.283 0.176-0.283 0.071-0.39 0-0.39-0.141-0.177-0.176 0.035-0.212 0.071 0.035v0.071l0.142 0.071 0.319 0.141h0.461l0.319-0.141 0.248-0.282 0.071-0.176v-0.565l-0.035-0.176z"></path>
<path fill="#2fc0d2" style="fill: var(--color3, #2fc0d2)" d="M7.242 10.31l0.106 0.141 0.283 0.741 0.142 0.635 0.035 0.318v0.847l-0.071 0.247-0.035-0-0.248-1.553-0.106-0.706-0.106-0.459z"></path>
<path fill="#08c9f3" style="fill: var(--color23, #08c9f3)" d="M13.62 7.804l0.177 0.035 0.319 0.388 0.815 0.812 0.177 0.247v0.071l0.071-0 0.248 0.282 0.709 0.706 0.248 0.318 0.177 0.176 0.283 0.318v0.071l0.071 0.035-0.177-0.035-0.425-0.459-0.496-0.529-0.319-0.353-0.531-0.565-0.39-0.424-0.425-0.459-0.531-0.565z"></path>
<path fill="#2ec0d2" style="fill: var(--color1, #2ec0d2)" d="M0.616 15.004h0.071l-0.071 0.424-0.142 0.671-0.461 0.635-0.035-0v-0.741l0.602-0.918z"></path>
<path fill="#2fc0d2" style="fill: var(--color3, #2fc0d2)" d="M3.167 30.64l0.496 0.035 0.39 0.106 0.071 0.106v0.424l-0.638-0.176-0.461-0.035 0.106-0.388z"></path>
<path fill="#2fc0d2" style="fill: var(--color3, #2fc0d2)" d="M4.655 31.169l0.142 0.035 0.638 0.388 0.39 0.247 0.035 0.071-0.78 0.035-0.39-0.247-0.035-0.071z"></path>
<path fill="#2ec0d2" style="fill: var(--color1, #2ec0d2)" d="M2.99 28.875h0.39l0.638 0.071v0.318l-0.035 0.141-0.886-0.071z"></path>
<path fill="#2dc0d3" style="fill: var(--color21, #2dc0d3)" d="M2.955 31.522h0.461l0.461 0.141 0.142 0.071-0.071 0.141-0.142 0.106-0.248-0.035-0.638-0.035-0.213-0.106-0.035-0.141 0.142-0.106z"></path>
<path fill="#2ec0d2" style="fill: var(--color1, #2ec0d2)" d="M0.581 16.628h0.071l0.071 0.353v0.247l-0.071 0.141h-0.071l-0.071-0.212-0.035 0.388-0.283 0.353-0.071-0.071-0.071-0.282v-0.212l0.461-0.6z"></path>
<path fill="#2dc0d3" style="fill: var(--color21, #2dc0d3)" d="M4.797 29.193l0.602 0.282 0.213 0.141-0.071 0.494-0.177-0.071-0.461-0.282-0.106-0.071z"></path>
<path fill="#2ec0d2" style="fill: var(--color1, #2ec0d2)" d="M3.238 29.758l0.496 0.035 0.248 0.071 0.142 0.388v0.106l-0.886-0.141z"></path>
<path fill="#2cc0d4" style="fill: var(--color24, #2cc0d4)" d="M4.726 28.24l0.354 0.106 0.177 0.106 0.035 0.141-0.106 0.176-0.106 0.071-0.319-0.106-0.035-0.071z"></path>
<path fill="#0ac8f1" style="fill: var(--color25, #0ac8f1)" d="M40.904 6.71l0.106 0.035v0.565l0.071 0.247 0.106 0.247-0.035 0.106-0.142-0.071-0.177-0.318-0.035-0.141v-0.529l0.071-0.035z"></path>
<path fill="#2cc0d3" style="fill: var(--color26, #2cc0d3)" d="M8.341 17.828l0.248 0.071-0.035 0.212-0.283 0.565-0.142 0.071 0.035-0.353 0.142-0.529z"></path>
<path fill="#2fc0d2" style="fill: var(--color3, #2fc0d2)" d="M4.549 18.675h0.213l0.142 0.141-0.035 0.212-0.248 0.353-0.071-0.035z"></path>
<path fill="#646f71" style="fill: var(--color16, #646f71)" d="M42.179 24.075h0.177l-0.142 0.106 0.035 0.141v0.282l-0.283 0.035-0.071-0.071v-0.247l0.142-0.176 0.142-0.071z"></path>
<path fill="#666c6e" style="fill: var(--color27, #666c6e)" d="M35.589 24.11h0.071l0.035 0.176 0.035 0.071v0.212l-0.106 0.071-0.177 0-0.106-0.106 0.035-0.247 0.213-0.176z"></path>
<path fill="#657073" style="fill: var(--color6, #657073)" d="M14.825 23.263h0.248l0.106 0.106v0.176l-0.106 0.106-0.142 0.035-0.177-0.106-0.035-0.176z"></path>
<path fill="#2cc0d4" style="fill: var(--color24, #2cc0d4)" d="M42.782 6.569l0.142 0.035 0.106 0.318v0.388l-0.071 0.141-0.035-0.212-0.071-0-0.035 0.106-0.035-0.494-0.035-0.176z"></path>
<path fill="#2bc0d4" style="fill: var(--color28, #2bc0d4)" d="M42.852 7.239h0.071l0.035 0.318-0.177 0.282-0.142 0.141-0.071-0.035v-0.071l0.035-0.141 0.142-0.212z"></path>
<path fill="#2fc0d2" style="fill: var(--color3, #2fc0d2)" d="M42.533 7.804l0.106 0.035-0.071 0.212-0.319 0.141-0.142-0.071-0.283-0-0.071 0.035-0.071-0.035v-0.071l0.461-0.035 0.319-0.141z"></path>
<path fill="#2dc0d2" style="fill: var(--color20, #2dc0d2)" d="M8.766 16.663h0.035v0.494l-0.035 0.212-0.142-0.035-0.071-0.106 0.035-0.212z"></path>
<path fill="#2fc0d2" style="fill: var(--color3, #2fc0d2)" d="M7.242 18.11h0.035l-0.035 0.459-0.177 1.024-0.035 0v-0.388l0.177-0.988z"></path>
<path fill="#0cc8f0" style="fill: var(--color29, #0cc8f0)" d="M31.195 8.475l0.142 0.071 0.106 0.141 0.071 0.141 0.106 0.071v0.071h0.071l0.106 0.247 0.106 0.071v0.071h0.071v0.106l-0.142-0.071-0.496-0.671-0.142-0.176z"></path>
<path fill="#28c1d7" style="fill: var(--color30, #28c1d7)" d="M0.474 18.181l0.106 0.035 0.106 0.494-0.142-0.035-0.177-0.282 0.071-0.141z"></path>
<path fill="#2cc0d4" style="fill: var(--color24, #2cc0d4)" d="M41.081 6.322l0.035 0.071 0.071 0.035-0.035 0.141-0.106 0.247-0.106-0.035-0.106 0.071 0.035-0.212z"></path>
<path fill="#0ec7ee" style="fill: var(--color12, #0ec7ee)" d="M36.51 10.592l0.142 0.071 0.283 0.212v0.071l0.177 0.071 0.035 0.071-0.213-0.071-0.319-0.247-0.106-0.106z"></path>
<path fill="#2fc0d2" style="fill: var(--color3, #2fc0d2)" d="M41.152 7.698l0.071 0.035v0.071l0.142 0.071 0.071 0.071-0.177 0.106-0.142-0.141z"></path>
<path fill="#05c9f6" style="fill: var(--color31, #05c9f6)" d="M42.852 7.239h0.071l0.035 0.318-0.106 0.106-0.071-0.071 0.035-0.247z"></path>
<path fill="#5a7d83" style="fill: var(--color32, #5a7d83)" d="M22.053 24.075l0.532 0.035v0.071l-0.461-0v-0.071z"></path>
<path fill="#04caf6" style="fill: var(--color33, #04caf6)" d="M42.604 7.733l0.177 0.035-0.071 0.141-0.142 0.071v-0.106z"></path>
<path fill="#2fc0d2" style="fill: var(--color3, #2fc0d2)" d="M6.356 11.616h0.071v0.282h-0.035z"></path>
<path fill="#2fc0d2" style="fill: var(--color3, #2fc0d2)" d="M5.718 28.91h0.071l-0.035 0.212h-0.035z"></path>
</symbol>
<symbol id="icon-plane" viewBox="0 0 32 32">
<path d="M26.98 7.020h0.34l0.48 0.060 1.32 0.28 0.56 0.14 0.3 0.12 0.36 0.2 0.2 0.16 0.080 0.1 0.080 0.16 0.020 0.080v0.16l-0.1 0.28-0.16 0.28-0.14 0.2-0.14 0.18-0.14 0.14-0.14 0.16-0.18 0.16-0.1 0.1-0.16 0.14-0.22 0.18-0.22 0.16-0.32 0.22-0.68 0.4-0.32 0.18-0.44 0.24-0.24 0.14-0.32 0.16-0.52 0.28-0.34 0.18-0.4 0.22-0.24 0.12-0.36 0.2-0.32 0.16-0.48 0.26-0.32 0.18-0.22 0.12-0.54 0.28-0.2 0.12-0.32 0.16-0.28 0.16-0.42 0.22-0.14 0.080-0.46 0.24-0.36 0.2-0.24 0.12-1.32 0.72-0.68 0.36-0.44 0.24-0.38 0.2-0.24 0.14-0.32 0.16-0.46 0.24-0.5 0.22-0.52 0.16-1.080 0.24-2.88 0.58-0.86 0.18-0.98 0.2-1.5 0.3-1.82 0.38-1.82 0.34-0.3 0.040h-0.12l-0.16-0.14-0.22-0.28-0.22-0.3-0.22-0.32-0.2-0.32-0.1-0.18v-0.16l0.080-0.1 0.66-0.32-0.12-0.16-0.22-0.22-0.16-0.14-0.28-0.26-0.16-0.14-0.72-0.66-0.16-0.14-0.2-0.18-0.16-0.16-0.060-0.040v-0.040l-0.080-0.040-0.26-0.26-0.12-0.18 0.040-0.12 0.14-0.16 0.3-0.16 0.54-0.24 0.44-0.18 0.32-0.12h0.2l0.28 0.080 0.78 0.38 0.34 0.16 0.38 0.2 0.32 0.16 0.58 0.28 0.64 0.32 0.38 0.2 0.36 0.16 0.18 0.1 0.24-0.040 0.52-0.2 1.44-0.62 0.68-0.3 0.72-0.3 0.6-0.24 0.42-0.18 0.28-0.14 0.22-0.12v-0.080h-0.14l-0.040-0.020v-0.040h-0.040v-0.040l-0.24-0.040-0.16-0.080-0.18-0.12-0.080-0.1-0.060-0.18 0.020-0.1 0.1-0.1 0.1-0.060h0.16l0.44 0.16 0.7 0.26 0.3 0.1 0.66 0.26 0.78 0.3 0.54 0.22 0.62 0.24 0.38 0.16 0.12 0.080 0.080 0.12 0.020 0.18-0.040 0.14-0.16 0.1h-0.28l-0.3-0.12-0.2-0.060-0.46-0.2-0.56-0.2-0.4-0.16-0.38-0.14-0.1-0.020-0.12-0.060h-0.16l-0.22 0.080-0.34 0.16-0.32 0.12-0.3 0.14-0.58 0.24-0.62 0.26-0.7 0.3-0.78 0.32-0.5 0.2-0.52 0.22-0.54 0.22-0.64 0.28-0.74 0.32-0.78 0.32-1.62 0.68-0.2 0.080h-0.040v0.1l0.22 0.28 0.22 0.38v0.040l0.36-0.040 0.48-0.1 0.76-0.14 1.56-0.32 0.94-0.2 6.040-1.22 0.72-0.16 0.5-0.14 0.7-0.32 0.48-0.24 0.32-0.18 0.5-0.28 0.38-0.2 0.36-0.2 0.88-0.48 0.34-0.18 0.32-0.16 0.44-0.24 0.52-0.28 0.38-0.2 0.48-0.26 0.64-0.34 0.2-0.12 0.28-0.14 1.1-0.58 0.44-0.24 0.52-0.28 0.44-0.24 0.92-0.5 0.6-0.32 0.32-0.18 0.36-0.2 0.34-0.2 0.32-0.2 0.32-0.22 0.22-0.18 0.26-0.2 0.12-0.12h0.040v-0.040l0.16-0.14 0.14-0.14 0.2-0.28 0.060-0.16-0.020-0.14-0.040-0.1-0.36-0.18-0.2-0.060-0.3-0.020-0.22 0.080-0.56 0.28-0.36 0.2-0.44 0.24-0.34 0.18-0.38 0.16-0.32 0.080-0.14-0.020-0.1-0.060-0.18-0.2-0.080-0.16-0.020-0.18 0.060-0.28 0.12-0.18 0.24-0.26 0.26-0.14 0.020-0.080-0.22 0.060-0.12 0.080-0.040 0.1-0.14-0.020-0.32 0.1-0.6 0.26-0.5 0.24-0.38 0.2-1.12 0.6-0.32 0.18-0.32 0.16-0.26 0.14-0.36 0.2-0.46 0.26-0.2 0.12-0.52 0.22-0.2 0.1-0.020 0.040 0.22 0.080 0.3 0.060 1.22 0.18 0.48 0.080 0.18 0.040 0.1 0.080 0.040 0.060 0.020 0.16-0.080 0.22-0.14 0.1h-0.34l-0.060-0.020-0.54-0.060-0.7-0.080-0.74-0.1-0.7-0.1-0.72-0.12-1-0.16-1.4-0.2-0.94-0.14-8.22-1.18h-0.3l-0.52 0.24-0.44 0.24-0.48 0.22-0.080 0.040 0.1 0.1 0.32 0.16 0.52 0.22 0.36 0.16 0.26 0.14 0.080 0.14 0.040 0.1-0.020 0.1-0.16 0.22-0.2-0.020-0.3-0.080-0.5-0.18-0.78-0.3-0.7-0.32-0.18-0.12-0.060-0.080 0.020-0.12 0.080-0.14 0.18-0.16 0.28-0.16 0.32-0.18 0.5-0.28 0.52-0.28 0.36-0.2 0.28-0.12 0.18-0.040h0.2l1.14 0.14 1.46 0.2 1.64 0.24 0.9 0.14 1.54 0.22 3.46 0.5 1.62 0.22 0.22 0.020 0.24-0.12 0.24-0.14 0.32-0.16 0.48-0.26 0.46-0.26 0.52-0.28 0.58-0.32 0.56-0.3 0.5-0.26 0.36-0.2 0.5-0.26 0.38-0.2 0.52-0.26 0.7-0.3 0.3-0.1 0.56-0.14zM27.76 7.74l-0.26 0.040-0.26 0.1-0.38 0.16-0.36 0.22-0.16 0.14-0.060 0.16v0.32l0.060 0.040h0.28l0.26-0.1 0.48-0.24 0.32-0.18 0.3-0.16 0.28-0.24 0.040-0.080-0.020-0.080-0.32-0.080zM2.96 14.8l-0.26 0.12-0.38 0.12-0.080 0.040 0.020 0.1 0.18 0.18 0.22 0.18 0.22 0.2 0.22 0.18 0.66 0.62 0.48 0.44 0.2 0.18 0.18 0.18 0.22-0.040 0.62-0.24 0.52-0.22 0.6-0.26 0.14-0.080-0.060-0.080-0.36-0.16-0.42-0.18-0.38-0.2-0.46-0.22-0.84-0.42-0.46-0.22-0.42-0.18-0.18-0.040z"></path>
<path d="M6.46 24.3l24.78 0.040 0.080 0.060 0.020 0.2-0.040 0.24-0.080 0.060-1.5 0.020-7.74 0.020h-13.5l-1.7-0.020-0.34-0.020-0.040-0.12v-0.3l0.020-0.14z"></path>
<path d="M9.52 11.22h0.16l0.16 0.060 0.080 0.12 0.020 0.14-0.060 0.12-0.14 0.12-0.4 0.22-0.32 0.16-0.54 0.28-0.52 0.24-0.26 0.080h-0.18l-0.080-0.040-0.1-0.18 0.020-0.18 0.080-0.12 0.16-0.12 1.52-0.76z"></path>
<path d="M11.42 11.84h0.2l0.12 0.060 0.080 0.1 0.040 0.080v0.12l-0.080 0.12-0.1 0.080-0.26 0.14-0.38 0.2-1.080 0.54-0.3 0.1-0.22 0.020-0.1-0.080-0.080-0.12v-0.14l0.080-0.16 0.2-0.14 1.56-0.8 0.24-0.1z"></path>
<path d="M2.6 24.36h2.1l0.060 0.040 0.020 0.080v0.22l-0.040 0.16-0.020 0.020-1.38 0.020h-0.7l-0.060-0.040-0.020-0.3 0.020-0.18z"></path>
<path d="M21.58 12.14h0.18l0.020 0.020-0.020 0.18-0.18 0.14-0.48 0.28-0.32 0.16-0.18 0.12-0.2 0.1-1.32 0.72-0.32 0.16-0.2 0.040-0.060-0.060v-0.12l0.1-0.1 0.3-0.16 0.34-0.2 0.44-0.24 0.46-0.26 0.48-0.26 0.32-0.18 0.26-0.14 0.22-0.14z"></path>
<path d="M0.72 24.34h0.6l0.5 0.020 0.060 0.060 0.020 0.1v0.24l-0.040 0.1-0.040 0.020h-1.080l-0.060-0.040-0.020-0.060v-0.16l0.040-0.24z"></path>
<path d="M18 14.1h0.28l0.020 0.1-0.18 0.2-0.24 0.14-0.2 0.1-0.2 0.040h-0.1l-0.040-0.060v-0.1l0.080-0.060 0.2-0.1 0.22-0.16z"></path>
</symbol>
<symbol id="icon-customer-service" viewBox="0 0 32 32">
<path fill="#1e7482" style="fill: var(--color39, #1e7482)" d="M25.968 27.868l-1.196-3.584c-0.416-1.252-1.484-2.176-2.78-2.412l-3.452-0.628v-0.268c0.604-0.348 1.124-0.812 1.54-1.364h1.044c0.852 0 1.548-0.696 1.548-1.548v-6.196c0-3.7-3.012-6.708-6.712-6.708s-6.708 3.008-6.708 6.708v3.612c0 0.996 0.708 1.828 1.644 2.024 0.292 1.484 1.22 2.74 2.484 3.472v0.268l-3.448 0.628c-1.3 0.236-2.364 1.16-2.784 2.412l-0.204 0.62-1.76-1.76c-0.2-0.2-0.2-0.528 0-0.728l2.040-2.040-3.828-3.824-2.304 2.304c-0.68 0.68-1.056 1.588-1.056 2.552 0 0.968 0.376 1.872 1.056 2.556l6.976 6.976c0.684 0.68 1.592 1.060 2.556 1.060s1.872-0.38 2.54-1.044l2.512-2.304-0.784-0.784h11.076zM21.64 18.064c0 0.284-0.232 0.516-0.516 0.516h-0.436c0.152-0.344 0.264-0.704 0.336-1.076 0.22-0.048 0.424-0.136 0.616-0.244v0.804zM21.124 16.372v-1.78c0.304 0.18 0.516 0.508 0.516 0.888 0 0.384-0.212 0.712-0.516 0.892zM10.8 16.372c-0.308-0.18-0.516-0.508-0.516-0.892 0-0.38 0.208-0.708 0.516-0.888v1.78zM10.8 12.9v0.592c-0.184 0.048-0.356 0.12-0.516 0.212v-1.836c0-3.128 2.548-5.676 5.676-5.676 3.132 0 5.68 2.548 5.68 5.676v1.836c-0.16-0.092-0.332-0.164-0.516-0.212v-0.592h-0.516c-1.528 0-2.964-0.592-4.044-1.672l-0.604-0.604-0.604 0.604c-1.080 1.080-2.512 1.672-4.040 1.672h-0.516zM11.832 16.516v-2.604c1.552-0.116 2.996-0.756 4.128-1.832 1.136 1.076 2.58 1.716 4.132 1.832v2.604c0 0.752-0.208 1.456-0.56 2.064h-3.572v1.032h2.724c-0.728 0.64-1.68 1.032-2.724 1.032-2.276 0-4.128-1.852-4.128-4.128zM17.508 21.436v0.024l-1.548 1.552-1.548-1.552v-0.024c0.492 0.156 1.008 0.24 1.548 0.24s1.060-0.084 1.548-0.24zM8.128 24.612c0.3-0.896 1.060-1.556 1.988-1.724l3.608-0.656 2.236 2.236 2.24-2.236 3.608 0.656c0.924 0.168 1.688 0.828 1.984 1.724l0.744 2.224h-10.676l-2.012-2.008-2.232 2.020c-0.196 0.196-0.536 0.196-0.728 0l-1.128-1.128 0.368-1.108zM3.396 18.012l2.368 2.364-0.56 0.56-2.368-2.364 0.56-0.56zM12.448 30.212c-0.488 0.484-1.136 0.752-1.824 0.752-0.692 0-1.34-0.268-1.828-0.756l-6.972-6.972c-0.488-0.488-0.756-1.136-0.756-1.824 0-0.692 0.268-1.34 0.756-1.828l0.284-0.284 2.364 2.368-0.016 0.020c-0.604 0.604-0.604 1.584 0 2.188l3.7 3.7c0.292 0.292 0.68 0.456 1.096 0.456 0.412 0 0.8-0.16 1.076-0.436l0.036-0.036 2.38 2.38-0.296 0.272zM13.504 29.24l-2.372-2.372 0.684-0.616 2.368 2.368-0.68 0.62z"></path>
<path fill="#1e7482" style="fill: var(--color39, #1e7482)" d="M30.412 0h-7.224c-0.856 0-1.548 0.692-1.548 1.548v4.128c0 0.852 0.692 1.548 1.548 1.548h1.376l-0.532 3.112 4.98-3.112h1.4c0.856 0 1.548-0.696 1.548-1.548v-4.128c0-0.856-0.692-1.548-1.548-1.548zM30.928 5.676c0 0.284-0.232 0.516-0.516 0.516h-1.696l-3.276 2.048 0.348-2.048h-2.6c-0.284 0-0.516-0.232-0.516-0.516v-4.128c0-0.284 0.232-0.516 0.516-0.516h7.224c0.284 0 0.516 0.232 0.516 0.516v4.128z"></path>
<path fill="#1e7482" style="fill: var(--color39, #1e7482)" d="M23.704 2.064h6.192v1.032h-6.192v-1.032z"></path>
<path fill="#1e7482" style="fill: var(--color39, #1e7482)" d="M23.704 4.128h4.128v1.032h-4.128v-1.032z"></path>
<path fill="#1e7482" style="fill: var(--color39, #1e7482)" d="M28.864 4.128h1.032v1.032h-1.032v-1.032z"></path>
<path fill="#1e7482" style="fill: var(--color39, #1e7482)" d="M15.96 1.548c-6.744 0-12.552 4.664-14.060 11.172l-0.98-1.632-0.884 0.532 1.812 3.020 3.024-1.812-0.532-0.884-1.396 0.836c1.46-5.952 6.812-10.2 13.016-10.2 1.356 0 2.696 0.2 3.976 0.596l0.308-0.984c-1.384-0.428-2.824-0.644-4.284-0.644z"></path>
<path fill="#1e7482" style="fill: var(--color39, #1e7482)" d="M31.712 11.428l-3.024-1.816-1.816 3.024 0.888 0.532 0.904-1.508c0.472 1.392 0.716 2.848 0.716 4.34 0 3.068-1.064 6.068-2.992 8.448l0.8 0.648c2.080-2.56 3.224-5.792 3.224-9.096 0-1.58-0.252-3.124-0.748-4.6l1.516 0.912 0.532-0.884z"></path>
</symbol>
<symbol id="icon-list" viewBox="0 0 32 32">
<path fill="#1e7482" style="fill: var(--color39, #1e7482)" d="M9.136 25.712c0-0.304 0.12-0.592 0.336-0.808s0.504-0.336 0.808-0.336h20.568c0.304 0 0.6 0.12 0.816 0.336 0.208 0.216 0.328 0.504 0.328 0.808s-0.12 0.592-0.328 0.808c-0.216 0.216-0.512 0.336-0.816 0.336h-20.568c-0.304 0-0.592-0.12-0.808-0.336s-0.336-0.504-0.336-0.808zM9.136 16.568c0-0.304 0.12-0.592 0.336-0.808s0.504-0.336 0.808-0.336h20.568c0.304 0 0.6 0.12 0.816 0.336 0.208 0.216 0.328 0.504 0.328 0.808s-0.12 0.592-0.328 0.808c-0.216 0.216-0.512 0.336-0.816 0.336h-20.568c-0.304 0-0.592-0.12-0.808-0.336s-0.336-0.504-0.336-0.808zM9.136 7.424c0-0.304 0.12-0.592 0.336-0.808s0.504-0.336 0.808-0.336h20.568c0.304 0 0.6 0.12 0.816 0.336 0.208 0.216 0.328 0.504 0.328 0.808s-0.12 0.6-0.328 0.808c-0.216 0.216-0.512 0.336-0.816 0.336h-20.568c-0.304 0-0.592-0.12-0.808-0.336-0.216-0.208-0.336-0.504-0.336-0.808zM6.52 4.328c0.104 0.112 0.192 0.232 0.248 0.376 0.056 0.136 0.088 0.288 0.088 0.44 0 0.144-0.032 0.296-0.088 0.432-0.056 0.144-0.144 0.264-0.248 0.376l-3.424 3.424c-0.112 0.112-0.24 0.192-0.376 0.248-0.136 0.064-0.288 0.088-0.44 0.088-0.144 0-0.296-0.024-0.432-0.088-0.144-0.056-0.264-0.136-0.376-0.248l-1.144-1.144c-0.104-0.104-0.184-0.232-0.248-0.368-0.056-0.136-0.080-0.288-0.080-0.44 0-0.144 0.024-0.296 0.080-0.432 0.064-0.144 0.144-0.272 0.248-0.376 0.112-0.104 0.232-0.192 0.376-0.248 0.136-0.056 0.288-0.088 0.44-0.088 0.144 0 0.296 0.032 0.432 0.088 0.144 0.056 0.264 0.144 0.376 0.248l0.328 0.336 2.624-2.624c0.104-0.104 0.232-0.184 0.368-0.248 0.144-0.056 0.288-0.080 0.44-0.080s0.296 0.024 0.44 0.080c0.136 0.064 0.264 0.144 0.368 0.248zM6.52 13.472c0.104 0.112 0.192 0.232 0.248 0.376 0.056 0.136 0.088 0.288 0.088 0.432 0 0.152-0.032 0.304-0.088 0.44s-0.144 0.264-0.248 0.368l-3.424 3.432c-0.112 0.104-0.24 0.192-0.376 0.248s-0.288 0.088-0.44 0.088c-0.144 0-0.296-0.032-0.432-0.088-0.144-0.056-0.264-0.144-0.376-0.248l-1.144-1.144c-0.208-0.216-0.328-0.504-0.328-0.808s0.12-0.592 0.328-0.808c0.216-0.216 0.512-0.336 0.816-0.336 0.296 0 0.592 0.12 0.808 0.336l0.328 0.336 2.624-2.624c0.104-0.104 0.232-0.192 0.368-0.248 0.144-0.056 0.288-0.088 0.44-0.088s0.296 0.032 0.44 0.088c0.136 0.056 0.264 0.144 0.368 0.248zM6.52 22.616c0.104 0.104 0.192 0.232 0.248 0.368 0.056 0.144 0.088 0.288 0.088 0.44s-0.032 0.304-0.088 0.44c-0.056 0.136-0.144 0.264-0.248 0.368l-3.424 3.432c-0.112 0.104-0.24 0.192-0.376 0.248s-0.288 0.088-0.44 0.088c-0.144 0-0.296-0.032-0.432-0.088-0.144-0.056-0.264-0.144-0.376-0.248l-1.144-1.144c-0.208-0.216-0.328-0.504-0.328-0.808s0.12-0.592 0.328-0.808c0.216-0.216 0.512-0.336 0.816-0.336 0.296 0 0.592 0.12 0.808 0.336l0.328 0.336 2.624-2.624c0.104-0.104 0.232-0.192 0.368-0.248 0.144-0.056 0.288-0.088 0.44-0.088s0.296 0.032 0.44 0.088c0.136 0.056 0.264 0.144 0.368 0.248z"></path>
</symbol>
<symbol id="icon-certificate" viewBox="0 0 32 32">
<path fill="#1e7482" style="fill: var(--color39, #1e7482)" d="M30.407 12.54l-6.693-2.873v-5.667c0-0.133-0.053-0.26-0.147-0.36l-2.5-2.5c-0.093-0.093-0.22-0.14-0.353-0.14h-18.5c-0.4 0-0.78 0.153-1.060 0.433-0.287 0.287-0.44 0.667-0.44 1.067v27c0 0.393 0.153 0.773 0.44 1.060 0.28 0.28 0.66 0.44 1.060 0.44h20c0.393 0 0.78-0.16 1.060-0.44 0.28-0.287 0.44-0.667 0.44-1.060v-1.247l2.6-1.86c1.36-0.967 2.467-2.253 3.233-3.74s1.16-3.133 1.167-4.8v-4.853c0-0.1-0.033-0.2-0.087-0.28s-0.127-0.147-0.22-0.18zM22.713 4.207v0.293h-2.5v-2.5h0.293l2.207 2.207zM22.213 30h-20c-0.133 0-0.26-0.053-0.353-0.147-0.093-0.1-0.147-0.227-0.147-0.353v-27c0-0.133 0.053-0.26 0.147-0.36 0.093-0.093 0.22-0.14 0.353-0.14h17v3c0 0.127 0.053 0.253 0.147 0.353 0.093 0.093 0.22 0.147 0.353 0.147h3v4.167l-6.7 2.873c-0.087 0.033-0.167 0.1-0.22 0.18s-0.080 0.18-0.080 0.28v4.853c0 1.667 0.4 3.313 1.16 4.8 0.767 1.487 1.873 2.773 3.233 3.74l2.607 1.86v1.247c0 0.127-0.053 0.253-0.147 0.353-0.093 0.093-0.22 0.147-0.353 0.147zM29.713 17.853c-0.007 1.507-0.367 3-1.060 4.34-0.687 1.347-1.693 2.507-2.92 3.387l-2.52 1.8-2.527-1.8c-1.227-0.88-2.227-2.040-2.92-3.38-0.693-1.347-1.053-2.84-1.053-4.347v-4.527l6.5-2.787 6.5 2.787v4.527z"></path>
<path fill="#1e7482" style="fill: var(--color39, #1e7482)" d="M23.027 12.033l-5 2c-0.093 0.033-0.173 0.1-0.227 0.18-0.060 0.087-0.087 0.187-0.087 0.287v3.153c-0.007 1.273 0.28 2.533 0.833 3.68 0.553 1.153 1.36 2.16 2.353 2.953l2 1.6c0.087 0.073 0.2 0.113 0.313 0.113s0.22-0.040 0.313-0.113l1.993-1.6c1-0.793 1.807-1.8 2.353-2.953 0.553-1.147 0.84-2.407 0.84-3.68v-3.153c0-0.1-0.033-0.2-0.087-0.287-0.060-0.080-0.14-0.147-0.227-0.18l-5-2c-0.12-0.047-0.253-0.047-0.373 0zM27.713 14.833v2.82c0 1.127-0.253 2.233-0.74 3.247s-1.193 1.907-2.080 2.607l-1.68 1.353-1.687-1.353c-0.88-0.7-1.593-1.593-2.080-2.607s-0.74-2.127-0.733-3.247v-2.82l4.5-1.8 4.5 1.8z"></path>
<path fill="#1e7482" style="fill: var(--color39, #1e7482)" d="M3.213 10h14c0.133 0 0.26-0.053 0.353-0.147 0.093-0.1 0.147-0.227 0.147-0.353v-6c0-0.133-0.053-0.26-0.147-0.36-0.093-0.093-0.22-0.14-0.353-0.14h-14c-0.133 0-0.26 0.047-0.353 0.14-0.093 0.1-0.147 0.227-0.147 0.36v6c0 0.127 0.053 0.253 0.147 0.353 0.093 0.093 0.22 0.147 0.353 0.147zM3.713 4h13v5h-13v-5z"></path>
<path fill="#1e7482" style="fill: var(--color39, #1e7482)" d="M14.213 22h-11c-0.133 0-0.26 0.047-0.353 0.14-0.093 0.1-0.147 0.227-0.147 0.36v6c0 0.127 0.053 0.253 0.147 0.353 0.093 0.093 0.22 0.147 0.353 0.147h11c0.133 0 0.26-0.053 0.353-0.147 0.093-0.1 0.147-0.227 0.147-0.353v-6c0-0.133-0.053-0.26-0.147-0.36-0.093-0.093-0.22-0.14-0.353-0.14zM13.713 28h-10v-5h10v5z"></path>
<path fill="#1e7482" style="fill: var(--color39, #1e7482)" d="M2.713 12.5h12v1h-12v-1z"></path>
<path fill="#1e7482" style="fill: var(--color39, #1e7482)" d="M2.713 15.5h12v1h-12v-1z"></path>
<path fill="#1e7482" style="fill: var(--color39, #1e7482)" d="M2.713 18.5h12v1h-12v-1z"></path>
</symbol>
<symbol id="icon-profi" viewBox="0 0 32 32">
<path fill="#1e7482" style="fill: var(--color39, #1e7482)" d="M27.987 32c-0.127 0-0.26-0.040-0.373-0.12l-4.567-3.107-4.573 3.107c-0.227 0.16-0.527 0.153-0.753 0-0.233-0.16-0.333-0.447-0.267-0.713l1.413-5.58-4.253-3.64c-0.207-0.173-0.287-0.46-0.2-0.72 0.087-0.253 0.32-0.433 0.593-0.447l5.447-0.313 1.967-5.367c0.193-0.52 1.060-0.52 1.253 0l1.967 5.367 5.447 0.313c0.267 0.013 0.507 0.193 0.593 0.447 0.087 0.26 0.007 0.547-0.2 0.72l-4.26 3.64 1.42 5.58c0.067 0.267-0.040 0.553-0.267 0.713-0.12 0.080-0.253 0.12-0.387 0.12zM23.047 27.3c0.127 0 0.26 0.040 0.373 0.113l3.493 2.38-1.087-4.287c-0.060-0.24 0.020-0.507 0.213-0.667l3.307-2.827-4.22-0.24c-0.267-0.013-0.5-0.187-0.587-0.44l-1.493-4.067-1.493 4.067c-0.093 0.253-0.327 0.427-0.593 0.44l-4.22 0.24 3.307 2.827c0.193 0.16 0.28 0.427 0.213 0.667l-1.080 4.287 3.487-2.38c0.113-0.073 0.247-0.113 0.38-0.113z"></path>
<path fill="#1e7482" style="fill: var(--color39, #1e7482)" d="M13.713 26.667h-13.333c-0.373 0-0.667-0.3-0.667-0.667v-5.333c0-2.573 2.093-4.667 4.667-4.667h13.333c0.367 0 0.667 0.293 0.667 0.667 0 0.367-0.3 0.667-0.667 0.667h-13.333c-1.84 0-3.333 1.493-3.333 3.333v4.667h12.667c0.367 0 0.667 0.293 0.667 0.667 0 0.367-0.3 0.667-0.667 0.667z"></path>
<path fill="#1e7482" style="fill: var(--color39, #1e7482)" d="M10.38 13.333c-2.573 0-4.667-2.093-4.667-4.667 0-0.373 0.293-0.667 0.667-0.667 2.287 0 3.333-1.733 3.333-3.333 0-0.373 0.293-0.667 0.667-0.667 0.367 0 0.667 0.293 0.667 0.667 0 1.6 1.040 3.333 3.333 3.333 0.367 0 0.667 0.293 0.667 0.667 0 2.573-2.093 4.667-4.667 4.667zM7.1 9.287c0.293 1.54 1.653 2.713 3.28 2.713 1.62 0 2.98-1.173 3.273-2.713-1.533-0.2-2.633-1.040-3.273-2.133-0.647 1.093-1.747 1.933-3.28 2.133z"></path>
<path fill="#1e7482" style="fill: var(--color39, #1e7482)" d="M15.713 13.333h-10.667c-1.107 0-2-0.9-2-2v-4c0-4.047 3.287-7.333 7.333-7.333 4.040 0 7.333 3.287 7.333 7.333v4c0 1.1-0.9 2-2 2zM10.38 1.333c-3.313 0-6 2.687-6 6v4c0 0.367 0.293 0.667 0.667 0.667h10.667c0.367 0 0.667-0.3 0.667-0.667v-4c0-3.313-2.693-6-6-6z"></path>
</symbol>
<symbol id="icon-gear" viewBox="0 0 32 32">
<path fill="#1e7482" style="fill: var(--color39, #1e7482)" d="M31.7 14.22c-0.007-1.060-0.853-1.967-1.993-1.967h-0.013c-0.080-0.007-0.153-0.060-0.173-0.14-0.313-1.12-0.767-2.193-1.34-3.2-0.047-0.087-0.033-0.193 0.033-0.26 0 0 0 0 0 0 0.367-0.367 0.573-0.853 0.573-1.38s-0.213-1.047-0.587-1.413l-2.44-2.42c0 0 0 0 0 0-0.767-0.767-2.027-0.787-2.793 0-0.007 0.013-0.020 0.020-0.033 0.033-0.047 0.047-0.133 0.053-0.207 0.013-1.013-0.573-2.1-1.013-3.227-1.327-0.080-0.020-0.14-0.093-0.14-0.167v-0.027c-0.007-1.087-0.9-1.967-1.987-1.967 0 0-0.007 0-0.007 0l-3.44 0.007c-0.533 0.007-1.027 0.213-1.4 0.587-0.367 0.38-0.567 0.88-0.56 1.4v0.020c0 0.080-0.060 0.153-0.14 0.18-1.127 0.313-2.207 0.767-3.22 1.347-0.073 0.040-0.153 0.033-0.207-0.013-0.013-0.013-0.027-0.027-0.033-0.033-0.367-0.373-0.853-0.573-1.373-0.573-0.007 0-0.007 0-0.007 0-0.527 0-1.040 0.213-1.413 0.587l-2.42 2.44c-0.76 0.76-0.78 2.027 0 2.793 0.007 0.007 0.127 0.1 0.047 0.247-0.573 1.013-1.013 2.1-1.32 3.22-0.027 0.080-0.093 0.14-0.2 0.14-1.087 0.007-1.973 0.9-1.967 1.993l0.007 3.427c0.007 1.093 0.887 1.973 1.987 1.973h0.007c0.007 0.007 0.147-0.007 0.193 0.14 0.313 1.127 0.767 2.207 1.34 3.22 0.087 0.14-0.040 0.24-0.040 0.24-0.787 0.78-0.74 2.047 0.013 2.793l2.44 2.42c0.767 0.76 2.027 0.787 2.793 0 0.067-0.067 0.14-0.107 0.24-0.047 1.013 0.573 2.1 1.013 3.227 1.32 0.087 0.027 0.14 0.093 0.14 0.173 0.007 0.027-0.047 0.787 0.587 1.42 0.373 0.373 0.867 0.573 1.393 0.573h0.007l3.42-0.007c1.093-0.007 1.98-0.893 1.993-1.987v-0.020c0-0.080 0.053-0.153 0.14-0.18 1.12-0.313 2.2-0.767 3.213-1.347 0.073-0.040 0.16-0.033 0.213 0.013 0.907 0.84 2.073 0.773 2.827 0.020l2.413-2.44c0.76-0.76 0.78-2.033 0-2.793v0c-0.067-0.067-0.087-0.173-0.040-0.253 0.573-1.013 1.013-2.093 1.32-3.213 0.020-0.080 0.093-0.14 0.173-0.14 0.020-0.007 0.8 0.053 1.44-0.607 0.36-0.38 0.553-0.893 0.553-1.42l-0.013-3.4zM29.693 18.707c-0.487 0.013-0.92 0.353-1.053 0.833-0.32 1.173-0.74 2.193-1.367 3.24-0.207 0.34-0.073 0.72 0.34 1.147 0.393 0.413 0.38 1.067-0.007 1.46l-2.42 2.44c-0.34 0.34-0.76 0.313-0.753 0.307-0.387 0-0.587-0.18-0.773-0.353-0.353-0.327-0.88-0.38-1.307-0.14-0.947 0.54-1.96 0.967-3.007 1.26-0.48 0.133-0.82 0.573-0.827 1.060-0.013 0.667-0.513 1.087-1.053 1.087l-3.427 0.013c-0.533-0.007-1.027-0.393-1.040-1.080-0.013-0.487-0.353-0.927-0.833-1.053-1.047-0.287-2.067-0.707-3.013-1.24-0.413-0.233-0.96-0.213-1.373 0.213-0.4 0.413-1.060 0.387-1.46-0.013l-2.433-2.413c-0.373-0.373-0.46-1.013 0.007-1.493 0.347-0.36 0.42-0.913 0.173-1.347-0.54-0.947-0.967-1.953-1.26-3.007-0.127-0.453-0.54-0.82-1.1-0.82-0.573 0-1.047-0.46-1.047-1.040l-0.013-3.427c0-0.58 0.467-1.047 1.040-1.053 0 0 0.007 0 0.007 0 0.507 0 0.953-0.347 1.087-0.833 0.287-1.047 0.7-2.060 1.233-3.007 0.24-0.427 0.193-0.993-0.207-1.38-0.407-0.393-0.38-1.067 0.013-1.46l2.413-2.44c0.2-0.193 0.473-0.313 0.753-0.313v0c0.273 0.007 0.527 0.107 0.713 0.3 0.020 0.020 0.040 0.040 0.060 0.060 0.353 0.327 0.88 0.38 1.313 0.14 0.947-0.54 1.953-0.967 3.007-1.26 0.473-0.133 0.813-0.573 0.82-1.067v-0.040c0-0.273 0.107-0.533 0.3-0.733s0.473-0.307 0.753-0.307l3.433-0.013c0.573 0 1.033 0.467 1.033 1.047 0 0.007 0 0.020 0 0.033 0.013 0.487 0.353 0.927 0.833 1.053 1.053 0.287 2.067 0.707 3.013 1.24 0.427 0.233 0.973 0.2 1.373-0.213 0.4-0.407 1.060-0.387 1.46 0.013v0l2.44 2.413c0.193 0.2 0.307 0.473 0.307 0.753 0 0.273-0.1 0.527-0.287 0.707-0.087 0.087-0.167 0.18-0.233 0.28-0.207 0.293-0.213 0.68-0.033 0.987 0.6 1 1.007 1.987 1.32 3.12 0.133 0.473 0.573 0.813 1.060 0.82 0.693 0.013 1.087 0.507 1.087 1.033l0.013 3.44c0 0.533-0.393 1.033-1.080 1.047z"></path>
<path fill="#1e7482" style="fill: var(--color39, #1e7482)" d="M15.713 6.347c-5.327 0-9.653 4.327-9.653 9.653 0 5.32 4.327 9.647 9.653 9.647 5.32 0 9.647-4.327 9.647-9.647 0-5.327-4.327-9.653-9.647-9.653zM15.713 24.713c-4.807 0-8.713-3.913-8.713-8.713 0-4.807 3.907-8.72 8.713-8.72 4.8 0 8.713 3.913 8.713 8.72 0 4.8-3.913 8.713-8.713 8.713z"></path>
<path fill="#1e7482" style="fill: var(--color39, #1e7482)" d="M21.093 11.147c-0.347-0.287-0.78-0.42-1.227-0.38s-0.853 0.247-1.14 0.593l-4.993 5.98-1.707-1.76c-0.313-0.32-0.733-0.5-1.18-0.507s-0.873 0.16-1.193 0.473c-0.32 0.313-0.5 0.727-0.507 1.18-0.007 0.447 0.16 0.867 0.473 1.193l3.007 3.093c0.313 0.32 0.753 0.507 1.2 0.507 0.020 0 0.047 0 0.067 0 0.473-0.020 0.92-0.24 1.227-0.607l6.18-7.4c0.593-0.713 0.5-1.773-0.207-2.367zM20.587 12.907l-6.187 7.407c-0.14 0.16-0.333 0.26-0.54 0.267-0.213 0.007-0.413-0.073-0.56-0.22l-3.007-3.093c-0.14-0.147-0.213-0.333-0.213-0.527 0.007-0.2 0.087-0.387 0.227-0.52 0.14-0.14 0.32-0.213 0.513-0.213 0.007 0 0.013 0 0.013 0 0.2 0.007 0.38 0.087 0.52 0.227l2.073 2.127c0.093 0.1 0.22 0.147 0.353 0.147 0.133-0.007 0.253-0.067 0.34-0.167l5.327-6.38c0.127-0.153 0.307-0.247 0.5-0.26 0.2-0.020 0.393 0.040 0.547 0.167 0.307 0.26 0.353 0.727 0.093 1.040z"></path>
<path fill="#1e7482" style="fill: var(--color39, #1e7482)" d="M22.533 24.307c-1.913 1.573-4.34 2.44-6.82 2.44-5.927 0-10.753-4.82-10.753-10.747 0-2.487 0.867-4.913 2.44-6.827 0.167-0.2 0.14-0.493-0.060-0.66-0.2-0.16-0.5-0.133-0.66 0.067-1.713 2.080-2.653 4.713-2.653 7.42 0 6.44 5.24 11.687 11.687 11.687 2.7 0 5.333-0.947 7.413-2.66 0.2-0.16 0.233-0.46 0.067-0.66s-0.46-0.227-0.66-0.060z"></path>
<path fill="#1e7482" style="fill: var(--color39, #1e7482)" d="M15.713 4.307c-2.707 0-5.34 0.947-7.42 2.66-0.2 0.16-0.227 0.46-0.067 0.66 0.167 0.2 0.46 0.227 0.66 0.060 1.913-1.573 4.34-2.44 6.827-2.44 5.927 0 10.747 4.82 10.747 10.753 0 2.48-0.867 4.907-2.44 6.82-0.167 0.2-0.133 0.493 0.067 0.66 0.087 0.073 0.187 0.107 0.293 0.107 0.133 0 0.273-0.060 0.36-0.173 1.713-2.080 2.66-4.713 2.66-7.413 0-6.447-5.247-11.693-11.687-11.693z"></path>
</symbol>
<symbol id="icon-diploma" viewBox="0 0 32 32">
<path fill="#1e7482" style="fill: var(--color39, #1e7482)" d="M28.367 5.333h-25.087c-0.473 0-0.933 0.187-1.267 0.52s-0.527 0.78-0.527 1.253v17.78c0 0.473 0.193 0.92 0.527 1.253s0.793 0.527 1.267 0.527h13.44l0.507-0.627 0.833-1.013-0.080-0.14h-14.7v-17.78h25.087v7.613c0.68 0.433 1.28 0.98 1.787 1.607v-9.22c0-0.473-0.187-0.92-0.52-1.253-0.34-0.333-0.793-0.52-1.267-0.52z"></path>
<path fill="#1e7482" style="fill: var(--color39, #1e7482)" d="M5.933 10.66h15.113v1.427h-15.113v-1.427z"></path>
<path fill="#1e7482" style="fill: var(--color39, #1e7482)" d="M5.933 14.22h9.78v1.42h-9.78v-1.42z"></path>
<path fill="#1e7482" style="fill: var(--color39, #1e7482)" d="M5.933 20.44h8.887v1.427h-8.887v-1.427z"></path>
<path fill="#1e7482" style="fill: var(--color39, #1e7482)" d="M24.12 15.313c-1.14-0.013-2.253 0.327-3.193 0.96-0.947 0.633-1.68 1.533-2.1 2.593-0.42 1.053-0.52 2.213-0.273 3.327 0.247 1.107 0.827 2.12 1.653 2.9l-1.72 2.107 0.8 3.207 3.253-3.967c1.027 0.307 2.127 0.307 3.153 0l3.253 3.967 0.8-3.207-1.727-2.107c0.833-0.78 1.407-1.793 1.653-2.9 0.247-1.113 0.153-2.273-0.267-3.327-0.427-1.060-1.153-1.96-2.1-2.593s-2.060-0.973-3.193-0.96h0.007zM24.12 24.807c-0.753-0.013-1.493-0.247-2.113-0.673-0.627-0.427-1.107-1.027-1.387-1.727-0.28-0.707-0.353-1.473-0.2-2.213s0.527-1.413 1.060-1.947c0.54-0.527 1.227-0.887 1.967-1.033s1.507-0.067 2.207 0.227c0.693 0.293 1.293 0.78 1.707 1.413 0.42 0.627 0.647 1.367 0.647 2.12-0.013 1.027-0.427 2-1.153 2.72-0.727 0.713-1.713 1.12-2.733 1.113z"></path>
</symbol>
<symbol id="icon-telegram" viewBox="0 0 32 32">
<path fill="#40b3e0" style="fill: var(--color40, #40b3e0)" d="M16 0.865c-7.883 0-14.27 6.387-14.27 14.27 0 7.879 6.387 14.27 14.27 14.27 7.879 0 14.27-6.391 14.27-14.27 0-7.883-6.391-14.27-14.27-14.27z"></path>
<path fill="#fff" style="fill: var(--color3, #fff)" d="M22.941 9.072l-2.547 12.852c0 0-0.359 0.891-1.336 0.463l-5.881-4.51-2.141-1.034-3.602-1.211c0 0-0.549-0.199-0.605-0.627-0.052-0.428 0.623-0.657 0.623-0.657l14.313-5.613c0 0 1.176-0.519 1.176 0.337v0z"></path>
<path fill="#d2e5f1" style="fill: var(--color41, #d2e5f1)" d="M12.722 21.777c0 0-0.173-0.017-0.385-0.692-0.216-0.679-1.302-4.242-1.302-4.242l8.644-5.492c0 0 0.497-0.303 0.48 0 0 0 0.091 0.056-0.177 0.303-0.268 0.251-6.789 6.115-6.789 6.115l-0.471 4.009z"></path>
<path fill="#b5cfe4" style="fill: var(--color42, #b5cfe4)" d="M15.429 19.607l-2.326 2.119c0 0-0.182 0.138-0.381 0.052l0.445-3.939 2.262 1.769z"></path>
</symbol>
<symbol id="icon-mesage" viewBox="0 0 32 32">
<path fill="#f3761b" style="fill: var(--color43, #f3761b)" d="M25.14 12.28c0-5.050-5.63-9.14-12.57-9.14-6.95 0-12.57 4.090-12.57 9.14 0 2.89 1.85 5.48 4.75 7.16-0.61 1.48-1.4 2.18-2.090 2.97-0.2 0.23-0.43 0.44-0.36 0.78 0.050 0.31 0.3 0.52 0.57 0.52 0.54-0.070 1.11-0.16 1.59-0.29 1.8-0.46 3.48-1.23 4.96-2.28 1 0.18 2.060 0.28 3.15 0.28 6.94 0 12.57-4.090 12.57-9.14zM32 16.85c0-2.98-1.97-5.62-4.99-7.28 0.27 0.87 0.41 1.78 0.41 2.71 0 3.2-1.64 6.14-4.62 8.32-2.77 2-6.39 3.11-10.23 3.11-0.52 0-1.060-0.040-1.57-0.070 2.23 1.46 5.19 2.36 8.42 2.36 1.090 0 2.15-0.11 3.15-0.29 1.48 1.050 3.16 1.82 4.96 2.29 0.48 0.12 1 0.21 1.54 0.28 0.28 0.040 0.55-0.2 0.62-0.52 0.070-0.34-0.16-0.55-0.36-0.78-0.69-0.79-1.48-1.48-2.080-2.97 2.89-1.68 4.75-4.25 4.75-7.16z"></path>
</symbol>
<symbol id="icon-check-mark" viewBox="0 0 32 32">
<path fill="#fff" style="fill: var(--color3, #fff)" d="M28.203 3.692l-17.434 17.434-7.182-7.182-3.588 3.594 10.769 10.769 21.022-21.028-3.588-3.588z"></path>
</symbol>
<symbol id="icon-verified" viewBox="0 0 32 32">
<path d="M28.729 5.181l-12.25-5.086c-0.307-0.127-0.652-0.127-0.959 0l-12.25 5.086c-0.467 0.194-0.771 0.649-0.771 1.155v6.182c0 8.514 5.146 16.171 13.028 19.388 0.303 0.123 0.642 0.123 0.944 0 7.882-3.217 13.028-10.874 13.028-19.388v-6.182c0-0.506-0.304-0.961-0.771-1.155zM27 12.518c0 7.237-4.25 13.9-11 16.873-6.57-2.894-11.001-9.44-11.001-16.873v-5.349l11.001-4.567 11 4.567v5.349zM14.618 16.731l5.373-5.372c0.488-0.488 1.279-0.488 1.767 0s0.488 1.28 0 1.768l-6.256 6.256c-0.488 0.488-1.279 0.487-1.767 0l-3.494-3.494c-0.488-0.488-0.488-1.28 0-1.768s1.279-0.488 1.767 0l2.609 2.609z"></path>
</symbol>
<symbol id="icon-viber" viewBox="0 0 32 32">
<path fill="#fff" style="fill: var(--color1, #fff)" d="M16 3.333c-1.759 0-7.113 0-10.073 2.703-1.763 1.756-2.593 4.293-2.593 7.964v2c0 3.671 0.831 6.208 2.614 7.984 0.888 0.81 2.099 1.457 3.579 1.905l0.474 0.143v3.552c0 0.417 0.121 0.417 0.161 0.417 0.082 0 0.213-0.026 0.463-0.247 0.060-0.059 0.5-0.535 2.64-2.933l0.216-0.242 0.323 0.021c0.717 0.045 1.456 0.068 2.197 0.068 1.759 0 7.113 0 10.073-2.703 1.762-1.756 2.593-4.293 2.593-7.963v-2c0-3.671-0.831-6.208-2.614-7.984-2.939-2.683-8.293-2.683-10.053-2.683z"></path>
<path fill="#7e57c2" style="fill: var(--color2, #7e57c2)" d="M22.301 19.236c-0.741-0.624-1.083-0.813-2.105-1.427-0.426-0.255-1.075-0.476-1.416-0.476-0.233 0-0.511 0.178-0.682 0.349-0.437 0.437-0.581 0.985-1.347 0.985-0.75 0-2.060-0.763-3-1.75-0.987-0.94-1.75-2.25-1.75-3 0-0.767 0.537-0.92 0.975-1.358 0.171-0.17 0.359-0.449 0.359-0.681 0-0.341-0.221-0.98-0.476-1.406-0.614-1.023-0.802-1.365-1.427-2.105-0.211-0.251-0.452-0.365-0.704-0.366-0.426-0.001-0.985 0.211-1.364 0.493-0.569 0.425-1.165 1.003-1.324 1.723-0.021 0.098-0.034 0.197-0.038 0.295-0.031 0.75 0.264 1.511 0.582 2.156 0.749 1.519 1.739 2.99 2.817 4.303 0.345 0.42 0.72 0.811 1.109 1.188 0.377 0.388 0.768 0.763 1.188 1.109 1.313 1.078 2.784 2.069 4.303 2.817 0.639 0.315 1.391 0.604 2.133 0.583 0.106-0.003 0.212-0.015 0.318-0.039 0.72-0.159 1.298-0.755 1.723-1.324 0.282-0.379 0.493-0.937 0.493-1.364-0.001-0.252-0.115-0.493-0.366-0.704zM22.667 16c-0.368 0-0.667-0.299-0.667-0.667v-0.667c0-3.308-2.692-6-6-6-0.368 0-0.667-0.299-0.667-0.667s0.299-0.667 0.667-0.667c4.043 0 7.333 3.29 7.333 7.333v0.667c0 0.368-0.299 0.667-0.667 0.667zM18.572 14.667c-0.296 0-0.567-0.199-0.645-0.499-0.183-0.701-0.729-1.248-1.427-1.428-0.357-0.093-0.571-0.456-0.479-0.813s0.455-0.57 0.813-0.479c1.165 0.302 2.079 1.215 2.383 2.383 0.093 0.357-0.121 0.72-0.477 0.813-0.057 0.015-0.113 0.022-0.169 0.022z"></path>
<path fill="#7e57c2" style="fill: var(--color2, #7e57c2)" d="M20.667 15.333c-0.368 0-0.667-0.299-0.667-0.667 0-2.125-1.663-3.879-3.785-3.991-0.368-0.019-0.65-0.333-0.631-0.701s0.339-0.651 0.701-0.631c2.831 0.149 5.049 2.487 5.049 5.322 0 0.368-0.299 0.667-0.667 0.667z"></path>
<path fill="#7e57c2" style="fill: var(--color2, #7e57c2)" d="M16 2.667c-3 0-7.675 0.276-10.523 2.877-2.013 2.005-2.811 4.817-2.811 8.456 0 0.301-0.001 0.637 0.001 1-0.003 0.362-0.001 0.698-0.001 0.999 0 3.639 0.797 6.451 2.811 8.456 1.084 0.99 2.436 1.641 3.856 2.071v3.057c0 1.064 0.699 1.083 0.827 1.083h0.006c0.329-0.001 0.614-0.163 0.899-0.416 0.107-0.095 1.347-1.477 2.695-2.987 0.803 0.051 1.565 0.070 2.239 0.070 0 0 0 0 0 0s0 0 0 0c3 0 7.674-0.277 10.523-2.878 2.013-2.004 2.811-4.817 2.811-8.456 0-0.301 0.001-0.637-0.001-1 0.003-0.363 0.001-0.698 0.001-1 0-3.639-0.797-6.451-2.811-8.456-2.848-2.601-7.522-2.877-10.522-2.877zM27.333 15.767v0.232c0 3.271-0.697 5.499-2.191 7.008-2.588 2.326-7.518 2.326-9.143 2.326-0.495 0-1.297-0.001-2.245-0.067-0.263 0.296-3.088 3.455-3.088 3.455v-3.909c-1.403-0.337-2.789-0.889-3.809-1.805-1.494-1.509-2.191-3.738-2.191-7.009v-0.232c0-0.234-0.001-0.487 0.001-0.782-0.002-0.267-0.002-0.519-0.001-0.753v-0.232c0-3.271 0.697-5.499 2.191-7.008 2.587-2.326 7.518-2.326 9.143-2.326s6.555 0 9.142 2.326c1.495 1.509 2.191 3.737 2.191 7.008v0.232c0 0.234 0.001 0.487-0.001 0.782 0.002 0.267 0.002 0.519 0.002 0.753z"></path>
</symbol>
</defs>
</svg>
