<svg aria-hidden="true" style="position: absolute; width: 0; height: 0; overflow: hidden;" version="1.1" xmlns="http://www.w3.org/2000/svg" xmlns:xlink="http://www.w3.org/1999/xlink">
<defs>
<symbol id="icon-logo-white" viewBox="0 0 32 32">
<path fill="#32c1d4" style="fill: var(--color1, #32c1d4)" d="M15.188 11.734h0.359l0.203 0.281 0.438 0.594 0.188 0.25v0.031l0.078-0.078 0.188-0.25 0.438-0.594 0.172-0.234h0.344v2.203h-0.344v-1.313l0.016-0.313-0.219 0.281-0.188 0.25-0.156 0.203-0.203 0.266h-0.219l-0.219-0.281-0.219-0.297-0.203-0.266-0.109-0.141-0.016-0.016 0.016 0.219v1.406h-0.344z"></path>
<path fill="#32c1d4" style="fill: var(--color1, #32c1d4)" d="M7.625 11.734h0.344l0.188 0.203 0.563 0.625 0.172 0.188 0.109 0.125 0.172 0.188 0.281 0.313 0.063 0.078-0.031-0.719v-1h0.359v2.203h-0.359l-0.219-0.234-0.188-0.203-0.219-0.234-0.172-0.188-0.188-0.203-0.219-0.234-0.344-0.375h-0.016l0.047 0.531v1.141h-0.344z"></path>
<path fill="#32c1d4" style="fill: var(--color1, #32c1d4)" d="M7.234 18.281h22.703v0.078l-0.016 0.016h-22.688z"></path>
<path fill="#32c1d4" style="fill: var(--color1, #32c1d4)" d="M7.625 14.844h0.344v0.953h1.375v-0.953h0.344v2.203l-0.328 0.016-0.016-0.016v-0.922h-1.375v0.922l-0.281 0.016-0.063-0.016z"></path>
<path fill="#32c1d4" style="fill: var(--color1, #32c1d4)" d="M13 15.359h0.344l0.188 0.047 0.188 0.094 0.141 0.109-0.016-0.078v-0.125l0.016-0.016h0.328v1.656l-0.172 0.016h-0.156l-0.016-0.047 0.016-0.219-0.203 0.156-0.172 0.078-0.172 0.047-0.219 0.016-0.219-0.031-0.203-0.078-0.172-0.125-0.109-0.125-0.109-0.219-0.047-0.234 0.016-0.234 0.047-0.156 0.094-0.172 0.141-0.156 0.172-0.109 0.156-0.063zM13.063 15.672l-0.188 0.063-0.141 0.109-0.094 0.109-0.047 0.109-0.016 0.078v0.172l0.063 0.172 0.141 0.156 0.125 0.078 0.203 0.063h0.234l0.203-0.063 0.141-0.094 0.109-0.125 0.063-0.156v-0.25l-0.063-0.156-0.125-0.141-0.219-0.109-0.063-0.016z"></path>
<path fill="#32c1d4" style="fill: var(--color1, #32c1d4)" d="M10.891 15.359h0.375l0.234 0.063 0.172 0.094 0.172 0.156 0.094 0.141 0.063 0.203v0.297l-0.016 0.016-1.563 0.016 0.094 0.188 0.109 0.094 0.188 0.094 0.219 0.047h0.266l0.172-0.031 0.266-0.125 0.063-0.016 0.125 0.203-0.016 0.063-0.234 0.125-0.266 0.078-0.25 0.031-0.266-0.016-0.25-0.063-0.188-0.094-0.156-0.125-0.109-0.141-0.078-0.156-0.031-0.125v-0.281l0.063-0.219 0.109-0.172 0.141-0.141 0.219-0.125 0.203-0.063zM10.969 15.656l-0.219 0.047-0.156 0.078-0.109 0.109-0.063 0.141v0.031h1.234l0.016-0.047-0.047-0.125-0.125-0.125-0.172-0.078-0.156-0.031z"></path>
<path fill="#32c1d4" style="fill: var(--color1, #32c1d4)" d="M11.031 12.25h0.391l0.219 0.063 0.172 0.094 0.156 0.141 0.109 0.156 0.063 0.188v0.313l-0.016 0.016h-1.531l-0.031-0.016 0.047 0.141 0.109 0.141 0.156 0.094 0.203 0.063 0.109 0.016h0.25l0.25-0.063 0.203-0.109h0.047l0.125 0.203-0.016 0.063-0.234 0.125-0.266 0.078-0.094 0.016h-0.406l-0.25-0.063-0.25-0.125-0.141-0.125-0.109-0.172-0.063-0.156-0.016-0.063v-0.281l0.063-0.219 0.109-0.172 0.141-0.141 0.219-0.125 0.188-0.063zM11.094 12.547l-0.25 0.063-0.125 0.078-0.109 0.125-0.047 0.125 0.016 0.016h1.234l-0.016-0.109-0.094-0.141-0.156-0.094-0.125-0.047-0.094-0.016z"></path>
<path fill="#32c1d4" style="fill: var(--color1, #32c1d4)" d="M18.781 12.25h0.406l0.219 0.063 0.188 0.109 0.141 0.125 0.109 0.172 0.063 0.203v0.281l-0.016 0.016h-1.563l0.063 0.156 0.094 0.109 0.156 0.094 0.203 0.063 0.109 0.016h0.25l0.203-0.047 0.25-0.125 0.063 0.031 0.109 0.188-0.016 0.047-0.25 0.125-0.188 0.063-0.156 0.031h-0.422l-0.25-0.063-0.188-0.094-0.141-0.109-0.109-0.125-0.094-0.188-0.031-0.109v-0.313l0.063-0.203 0.094-0.156 0.156-0.156 0.156-0.094 0.188-0.078zM18.859 12.547l-0.156 0.031-0.188 0.078-0.094 0.078-0.094 0.172v0.047h1.234l0.016-0.047-0.047-0.125-0.109-0.109-0.188-0.094-0.141-0.031z"></path>
<path fill="#32c1d4" style="fill: var(--color1, #32c1d4)" d="M21.391 14.828h0.438l0.234 0.063 0.219 0.094 0.203 0.141 0.063 0.078-0.203 0.266-0.172-0.109-0.188-0.109-0.203-0.063-0.25-0.016-0.188 0.031-0.172 0.063-0.156 0.109-0.109 0.109-0.109 0.219-0.031 0.125v0.25l0.047 0.188 0.094 0.156 0.063 0.078 0.156 0.109 0.188 0.078 0.109 0.031 0.141 0.016h0.156l0.219-0.047 0.188-0.078 0.219-0.156 0.047 0.047 0.125 0.219-0.031 0.063-0.156 0.109-0.188 0.094-0.266 0.078-0.234 0.031-0.266-0.016-0.25-0.063-0.25-0.125-0.156-0.125-0.125-0.141-0.109-0.188-0.063-0.188-0.031-0.188v-0.219l0.047-0.234 0.125-0.25 0.094-0.125 0.156-0.156 0.172-0.109 0.203-0.094z"></path>
<path fill="#32c1d4" style="fill: var(--color1, #32c1d4)" d="M12.266 12.281h0.359l0.125 0.375 0.203 0.656 0.031 0.109 0.047-0.063 0.266-0.547 0.125-0.266 0.25-0.016 0.078 0.125 0.219 0.453 0.156 0.328 0.031-0.047 0.344-0.953 0.063-0.156h0.344l-0.172 0.469-0.266 0.688-0.188 0.484-0.016 0.016h-0.234l-0.281-0.578-0.172-0.359v-0.047l-0.031 0.016-0.203 0.438-0.25 0.531h-0.234l-0.078-0.188-0.313-0.875-0.203-0.563z"></path>
<path fill="#32c1d4" style="fill: var(--color1, #32c1d4)" d="M17.344 14.719h0.328l0.016 0.906 0.156-0.125 0.219-0.109 0.125-0.031h0.313l0.156 0.047 0.156 0.094 0.109 0.125 0.078 0.172 0.031 0.234v1.016l-0.281 0.016-0.047-0.016-0.016-0.969-0.031-0.156-0.094-0.141-0.156-0.094-0.063-0.016h-0.234l-0.172 0.063-0.094 0.078h-0.031l-0.031 0.063-0.078 0.125-0.016 0.063-0.016 0.984-0.313 0.016-0.016-0.016z"></path>
<path fill="#32c1d4" style="fill: var(--color1, #32c1d4)" d="M25.797 15.359h0.313l0.203 0.063 0.172 0.125 0.094 0.141 0.063 0.172 0.016 0.078v1.109h-0.328l-0.016-1.016-0.047-0.141-0.094-0.125-0.156-0.078-0.094-0.016h-0.141l-0.203 0.063-0.141 0.109-0.094 0.141-0.031 0.094-0.016 0.969h-0.328v-1.656h0.328v0.266l0.125-0.109 0.156-0.109 0.156-0.063z"></path>
<path fill="#32c1d4" style="fill: var(--color1, #32c1d4)" d="M28.906 15.359h0.359l0.219 0.047 0.188 0.078 0.172 0.109 0.063 0.063-0.016 0.078-0.141 0.188h-0.047l-0.141-0.109-0.188-0.094-0.172-0.047h-0.25l-0.156 0.047-0.172 0.109-0.109 0.156-0.047 0.188v0.109l0.063 0.203 0.141 0.156 0.125 0.078 0.156 0.047h0.313l0.156-0.047 0.234-0.125 0.063-0.047h0.031l0.156 0.219v0.047l-0.203 0.125-0.219 0.094-0.203 0.047-0.266 0.016-0.203-0.031-0.188-0.063-0.156-0.094-0.156-0.141-0.109-0.172-0.063-0.172-0.016-0.078v-0.25l0.047-0.172 0.078-0.156 0.125-0.156 0.172-0.125 0.172-0.078z"></path>
<path fill="#32c1d4" style="fill: var(--color1, #32c1d4)" d="M3.297 13.219h0.375l0.234 0.063 0.141 0.063 0.188 0.109 0.188 0.172 0.141 0.188 0.109 0.234 0.063 0.25 0.016 0.25-0.031 0.219-0.094 0.281-0.188 0.406-0.125 0.25-0.203 0.391-0.188 0.313-0.219 0.344-0.203 0.281-0.125 0.172-0.156 0.203-0.203 0.25-0.109 0.141h-0.031l-0.031-0.156v-0.109l0.172-0.203 0.234-0.313 0.203-0.281 0.234-0.359 0.203-0.344 0.156-0.281 0.281-0.563 0.156-0.375 0.047-0.234v-0.188l-0.047-0.234-0.078-0.172-0.094-0.156-0.109-0.125-0.203-0.141-0.172-0.078-0.172-0.047-0.234-0.016-0.25 0.047-0.109 0.031-0.031-0.094-0.016-0.109 0.203-0.063z"></path>
<path fill="#32c1d4" style="fill: var(--color1, #32c1d4)" d="M3.25 12.047h0.469l0.297 0.047 0.313 0.094 0.281 0.125 0.234 0.141 0.219 0.172 0.156 0.141 0.109 0.125 0.156 0.203 0.141 0.234 0.109 0.234 0.078 0.234 0.078 0.359 0.016 0.156v0.359l-0.047 0.328-0.094 0.328-0.094 0.234-0.031 0.016-0.063-0.281 0.016-0.141 0.063-0.234 0.031-0.219v-0.438l-0.063-0.344-0.094-0.281-0.141-0.297-0.172-0.25-0.031-0.063-0.016-0.156-0.047 0.078-0.063-0.031-0.141-0.141-0.234-0.172-0.281-0.156-0.344-0.125-0.328-0.063-0.297-0.016-0.328 0.031-0.266 0.063-0.297 0.109-0.25 0.141-0.016-0.063 0.031-0.188 0.234-0.125 0.281-0.094 0.297-0.063z"></path>
<path fill="#32c1d4" style="fill: var(--color1, #32c1d4)" d="M16 14.906h0.313l0.016 0.016v0.453l0.531 0.016 0.016 0.016v0.297l-0.031 0.016h-0.469l-0.047-0.016v1.344l-0.328 0.016-0.016-0.016v-1.328h-0.453v-0.328h0.453v-0.469z"></path>
<path fill="#32c1d4" style="fill: var(--color1, #32c1d4)" d="M3.328 13.609h0.313l0.203 0.063 0.172 0.109 0.141 0.125 0.125 0.203 0.063 0.188 0.016 0.109v0.156l-0.047 0.219-0.156 0.359-0.188 0.391-0.219 0.406-0.219 0.359-0.25 0.375-0.203 0.281-0.156 0.203-0.109 0.141h-0.031l-0.031-0.266 0.203-0.266 0.203-0.281 0.219-0.344 0.141-0.234 0.156-0.281 0.188-0.359 0.203-0.438 0.063-0.172 0.016-0.063v-0.203l-0.063-0.203-0.109-0.172-0.125-0.094-0.156-0.078-0.172-0.031-0.188 0.016-0.172 0.063-0.063 0.016v-0.219l0.156-0.063z"></path>
<path fill="#32c1d4" style="fill: var(--color1, #32c1d4)" d="M5.203 15.141h0.016l0.047 0.25v0.125l-0.219 0.469-0.141 0.313-0.172 0.516-0.078 0.344-0.047 0.328-0.016 0.203v0.375l0.047 0.375 0.078 0.313 0.094 0.25 0.047 0.109 0.016 0.391h-0.031l-0.172-0.297-0.109-0.25-0.078-0.234-0.078-0.391-0.016-0.125-0.016-0.344 0.016-0.344 0.063-0.438 0.125-0.5 0.141-0.391 0.141-0.313 0.188-0.391 0.141-0.328z"></path>
<path fill="#32c1d4" style="fill: var(--color1, #32c1d4)" d="M3.234 11.656h0.5l0.313 0.047 0.297 0.078 0.25 0.094 0.25 0.125 0.234 0.141 0.219 0.172 0.234 0.219 0.172 0.203 0.078 0.125 0.031 0.313v0.125l-0.047-0.063-0.125-0.219-0.141-0.188-0.141-0.156-0.188-0.188-0.25-0.188-0.266-0.156-0.297-0.125-0.328-0.094-0.281-0.047-0.344-0.016-0.328 0.031-0.344 0.078-0.297 0.109-0.063 0.016 0.031-0.188 0.031-0.063 0.281-0.094 0.281-0.063z"></path>
<path fill="#32c1d4" style="fill: var(--color1, #32c1d4)" d="M3.375 14h0.219l0.156 0.063 0.109 0.094 0.094 0.188 0.016 0.047v0.188l-0.094 0.25-0.25 0.516-0.188 0.359-0.219 0.359-0.281 0.422-0.203 0.281h-0.016l-0.016-0.078v-0.25l0.141-0.188 0.219-0.344 0.203-0.344 0.156-0.281 0.172-0.359 0.156-0.359v-0.156l-0.063-0.109-0.078-0.063-0.156-0.031-0.109 0.031-0.078 0.063-0.266 0.563-0.156 0.313-0.031 0.016 0.016-0.125 0.109-0.313 0.141-0.297 0.016-0.063 0.016-0.219 0.078-0.094 0.125-0.063z"></path>
<path fill="#32c1d4" style="fill: var(--color1, #32c1d4)" d="M14.797 14.719h0.328v2.328h-0.328z"></path>
<path fill="#32c1d4" style="fill: var(--color1, #32c1d4)" d="M22.969 14.719h0.328v2.328l-0.328 0.016z"></path>
<path fill="#32c1d4" style="fill: var(--color1, #32c1d4)" d="M3.266 12.438h0.422l0.281 0.047 0.328 0.109 0.266 0.141 0.25 0.188 0.219 0.219-0.016 0.156-0.031 0.109-0.078-0.078-0.172-0.188-0.141-0.125-0.281-0.172-0.219-0.094-0.203-0.063-0.172-0.031-0.297-0.016-0.281 0.031-0.234 0.063-0.234 0.094-0.219 0.125-0.219 0.172h-0.016l0.016-0.234 0.047-0.078 0.203-0.125 0.219-0.109 0.234-0.078 0.219-0.047z"></path>
<path fill="#32c1d4" style="fill: var(--color1, #32c1d4)" d="M23.969 15.391h0.328v1.656h-0.328z"></path>
<path fill="#32c1d4" style="fill: var(--color1, #32c1d4)" d="M27.344 15.391h0.313l0.016 0.016v1.641l-0.328 0.016z"></path>
<path fill="#32c1d4" style="fill: var(--color1, #32c1d4)" d="M5.297 15.859h0.016l0.016 0.141v0.281l-0.156 0.391-0.094 0.328-0.063 0.328-0.031 0.281v0.375l0.047 0.359v0.125l-0.063 0.266-0.047-0.016-0.063-0.172-0.063-0.297-0.031-0.281v-0.297l0.031-0.328 0.063-0.344 0.094-0.344 0.125-0.344z"></path>
<path fill="#32c1d4" style="fill: var(--color1, #32c1d4)" d="M3.578 11.266h0.172l0.344 0.047 0.359 0.094 0.328 0.125 0.359 0.188 0.25 0.172 0.172 0.141 0.078 0.063 0.047 0.125 0.031 0.172v0.078l-0.078-0.078-0.234-0.219-0.297-0.219-0.281-0.156-0.234-0.109-0.375-0.125-0.313-0.063-0.328-0.031-0.063-0.078 0.016-0.078z"></path>
<path fill="#32c1d4" style="fill: var(--color1, #32c1d4)" d="M4.938 14.469l0.047 0.063 0.109 0.234v0.109l-0.094 0.281-0.234 0.516-0.188 0.375-0.203 0.359-0.219 0.359-0.094 0.125h-0.016l-0.016-0.328 0.328-0.563 0.125-0.25 0.234-0.484 0.125-0.313 0.063-0.25z"></path>
<path fill="#32c1d4" style="fill: var(--color1, #32c1d4)" d="M3.281 12.828h0.406l0.281 0.063 0.203 0.078 0.203 0.109 0.188 0.141 0.188 0.188 0.141 0.203 0.031 0.063-0.016 0.109-0.047 0.031-0.094-0.016-0.125-0.172-0.125-0.156-0.156-0.141-0.203-0.125-0.172-0.078-0.203-0.063-0.25-0.031-0.266 0.016-0.25 0.063h-0.063l-0.047-0.141v-0.047l0.203-0.063z"></path>
<path fill="#fdfdfd" style="fill: var(--color2, #fdfdfd)" d="M13.844 19.578h0.125l0.094 0.047 0.047 0.094 0.078-0.094 0.109-0.047h0.125l0.094 0.047 0.047 0.078 0.016 0.172 0.016 0.438 0.094 0.047v0.031h-0.359v-0.031l0.078-0.047v-0.625l-0.078-0.047-0.109 0.031-0.063 0.078-0.031 0.078v0.469l0.016 0.031 0.078 0.031 0.016 0.031h-0.359v-0.031l0.063-0.031 0.016-0.031v-0.594l-0.031-0.047-0.094-0.016-0.094 0.047-0.063 0.125v0.5l0.078 0.047v0.031h-0.359v-0.031l0.109-0.031v-0.563l-0.016-0.094-0.094-0.047v-0.016l0.266-0.016v0.125l0.078-0.094z"></path>
<path fill="#fdfdfd" style="fill: var(--color2, #fdfdfd)" d="M9.203 19.578l0.031 0.016v0.125l0.078-0.094 0.109-0.047h0.125l0.078 0.047 0.063 0.094 0.078-0.094 0.109-0.047h0.125l0.094 0.047 0.047 0.078 0.016 0.594 0.078 0.047 0.031 0.016v0.031h-0.359v-0.031l0.078-0.047v-0.609l-0.031-0.047h-0.125l-0.078 0.063-0.047 0.109v0.469l0.016 0.031 0.078 0.031v0.031h-0.344l-0.016-0.031 0.078-0.031 0.016-0.031v-0.578l-0.031-0.063-0.094-0.016-0.094 0.047-0.063 0.109v0.516l0.078 0.047v0.031h-0.359v-0.031l0.094-0.047 0.016-0.031v-0.5l-0.031-0.109-0.094-0.047v-0.016z"></path>
<path fill="#32c1d4" style="fill: var(--color1, #32c1d4)" d="M4.094 17.906l0.078 0.016 0.031 0.109 0.047 0.422 0.078 0.344 0.109 0.313 0.125 0.25 0.125 0.219 0.016 0.016v0.094l-0.063 0.063-0.156-0.031-0.375-0.078 0.016-0.188 0.063-0.016 0.188 0.047-0.125-0.266-0.109-0.297-0.047-0.172z"></path>
<path fill="#32c1d4" style="fill: var(--color1, #32c1d4)" d="M3.656 10.875l0.25 0.016 0.375 0.063 0.156 0.047 0.125 0.094 0.563 0.188 0.25 0.125 0.094 0.109 0.109 0.266h-0.047l-0.219-0.156-0.266-0.156-0.297-0.141-0.422-0.141-0.406-0.078-0.406-0.031 0.094-0.125z"></path>
<path fill="#32c1d4" style="fill: var(--color1, #32c1d4)" d="M3.438 14.391h0.094l0.047 0.047v0.094l-0.141 0.313-0.188 0.391-0.219 0.391-0.203 0.328-0.109 0.172-0.031-0.016 0.016-0.281 0.031-0.125 0.219-0.375 0.234-0.453 0.188-0.422z"></path>
<path fill="#fdfdfd" style="fill: var(--color2, #fdfdfd)" d="M19.703 19.203h0.109l0.016 0.484 0.094-0.078 0.078-0.031h0.125l0.094 0.047 0.047 0.063 0.016 0.047 0.016 0.563 0.016 0.031 0.078 0.031v0.031h-0.359v-0.031l0.078-0.031 0.016-0.047v-0.531l-0.031-0.078-0.016-0.016h-0.141l-0.078 0.078-0.031 0.063v0.516l0.078 0.047v0.031h-0.359v-0.031l0.094-0.047v-1.047l-0.109-0.031v-0.016z"></path>
<path fill="#32c1d4" style="fill: var(--color1, #32c1d4)" d="M3.969 16.656h0.016l-0.016 0.375-0.109 0.172-0.219 0.297-0.203 0.25-0.125 0.156-0.203 0.234-0.125 0.141h-0.031l-0.031-0.25 0.156-0.172 0.141-0.172 0.203-0.25 0.219-0.297 0.219-0.313z"></path>
<path fill="#fdfdfd" style="fill: var(--color2, #fdfdfd)" d="M22.797 19.406h0.078l0.047 0.047-0.016 0.078-0.031 0.031h-0.078l-0.031-0.063-0.047 0.109 0.063 0.031 0.063 0.078 0.016 0.156-0.063 0.125-0.125 0.063-0.25 0.016-0.078 0.063 0.016 0.063 0.469 0.016 0.078 0.047 0.031 0.031v0.141l-0.078 0.125-0.141 0.094-0.219 0.031-0.188-0.031-0.094-0.063-0.016-0.016 0.016-0.109 0.125-0.109-0.094-0.047-0.016-0.109 0.063-0.094 0.094-0.063-0.078-0.094-0.031-0.078v-0.109l0.047-0.094 0.094-0.078 0.063-0.016h0.203l0.016-0.094 0.063-0.063zM22.531 19.609l-0.078 0.063-0.016 0.047v0.219l0.047 0.078 0.031 0.016h0.109l0.063-0.063 0.016-0.031v-0.219l-0.047-0.078-0.047-0.031zM22.516 20.344l-0.109 0.016-0.063 0.078-0.016 0.094 0.078 0.094 0.047 0.016h0.203l0.094-0.047 0.078-0.094v-0.109l-0.031-0.031z"></path>
<path fill="#32c1d4" style="fill: var(--color1, #32c1d4)" d="M3.797 18.813h0.094l0.031 0.031v0.141l-0.031 0.234h-0.188l-0.141 0.141-0.016 0.031h0.281l0.063 0.016 0.016 0.203-0.656-0.016-0.063-0.063v-0.094l0.406-0.406 0.109-0.125z"></path>
<path fill="#fdfdfd" style="fill: var(--color2, #fdfdfd)" d="M15.563 19.203h0.25l0.016 0.734 0.094-0.047 0.156-0.156 0.016-0.047-0.109-0.063 0.031-0.031 0.281 0.016-0.016 0.031-0.109 0.063-0.109 0.125h-0.031v0.031h-0.031l0.016 0.078 0.203 0.281 0.094 0.109 0.047 0.031v0.031h-0.297l0.031-0.078-0.172-0.25-0.063-0.063-0.047-0.016 0.016 0.313 0.016 0.031 0.078 0.031v0.031h-0.359l0.016-0.047 0.063-0.016 0.016-0.031v-1l-0.078-0.047-0.031-0.031z"></path>
<path fill="#32c1d4" style="fill: var(--color1, #32c1d4)" d="M3.297 9.703h0.469l0.438 0.047 0.391 0.078 0.141 0.047-0.063 0.172-0.031 0.016-0.344-0.078-0.313-0.047-0.172-0.016-0.516-0.016z"></path>
<path fill="#32c1d4" style="fill: var(--color1, #32c1d4)" d="M3.922 17.406h0.016v0.328l-0.063 0.094-0.203 0.25-0.141 0.172-0.172 0.188-0.109 0.125-0.172 0.188-0.031-0.031-0.031-0.141v-0.078l0.156-0.156 0.141-0.172 0.156-0.172 0.172-0.219 0.188-0.234z"></path>
<path fill="#fdfdfd" style="fill: var(--color2, #fdfdfd)" d="M21.516 19.578h0.016l0.016 0.125 0.125-0.109 0.063-0.016h0.125l0.094 0.047 0.047 0.078 0.016 0.078 0.016 0.531 0.094 0.047v0.031h-0.359v-0.031l0.078-0.047 0.016-0.031v-0.516l-0.047-0.109-0.094-0.016-0.094 0.047-0.063 0.094-0.016 0.078v0.438l0.016 0.031 0.078 0.031v0.031h-0.359l-0.016-0.031 0.109-0.047v-0.625l-0.109-0.063v-0.016z"></path>
<path fill="#32c1d4" style="fill: var(--color1, #32c1d4)" d="M3.391 9.313h0.359l0.484 0.047 0.422 0.078 0.016 0.016v0.203l-0.188-0.031-0.359-0.063-0.313-0.031-0.453-0.016-0.016-0.031z"></path>
<path fill="#32c1d4" style="fill: var(--color1, #32c1d4)" d="M2.75 13.438h0.031l-0.047 0.266-0.063 0.094-0.141 0.219-0.172 0.391-0.156 0.313-0.109 0.188-0.016-0.031 0.016-0.406 0.172-0.375 0.141-0.297 0.125-0.156 0.172-0.172z"></path>
<path fill="#32c1d4" style="fill: var(--color1, #32c1d4)" d="M3.359 10.094h0.391l0.422 0.047 0.391 0.078 0.063 0.031-0.047 0.141-0.047 0.047-0.359-0.078-0.375-0.047-0.375-0.016-0.047-0.109z"></path>
<path fill="#fdfdfd" style="fill: var(--color2, #fdfdfd)" d="M7.516 19.313h0.859v0.313h-0.047l-0.047-0.188-0.047-0.063-0.203-0.016v0.922l0.031 0.047 0.109 0.031v0.031h-0.453l0.016-0.047 0.109-0.031 0.016-0.016v-0.938l-0.203 0.016-0.047 0.063-0.047 0.188h-0.047z"></path>
<path fill="#fdfdfd" style="fill: var(--color2, #fdfdfd)" d="M12.406 19.578h0.172l0.156 0.078 0.078 0.125 0.031 0.109v0.219l-0.047 0.141-0.094 0.109-0.094 0.047-0.125 0.016-0.156-0.031-0.109-0.094-0.063-0.125-0.016-0.094v-0.172l0.047-0.156 0.109-0.125zM12.469 19.609l-0.078 0.047-0.063 0.078-0.031 0.125v0.281l0.047 0.141 0.063 0.078 0.031 0.016h0.109l0.094-0.078 0.047-0.172v-0.25l-0.031-0.141-0.094-0.109z"></path>
<path fill="#32c1d4" style="fill: var(--color1, #32c1d4)" d="M3.906 18.063h0.016l0.016 0.297-0.125 0.156-0.141 0.156-0.109 0.125-0.234 0.25-0.141 0.141-0.031-0.047-0.031-0.109v-0.078l0.172-0.172 0.109-0.125 0.188-0.203 0.141-0.172 0.156-0.188z"></path>
<path fill="#32c1d4" style="fill: var(--color1, #32c1d4)" d="M20.469 11.594h0.172l0.172 0.063 0.141 0.125 0.078 0.156 0.016 0.063v0.172l-0.063 0.172-0.109 0.125-0.125 0.078-0.109 0.031h-0.188l-0.172-0.063-0.125-0.109-0.078-0.156-0.016-0.047v-0.219l0.047-0.141 0.094-0.125 0.156-0.094zM20.469 11.672l-0.156 0.063-0.125 0.141-0.047 0.141v0.156l0.063 0.156 0.109 0.109 0.141 0.063h0.203l0.156-0.078 0.109-0.125 0.047-0.188-0.031-0.188-0.094-0.141-0.109-0.078-0.094-0.031z"></path>
<path fill="#fdfdfd" style="fill: var(--color2, #fdfdfd)" d="M20.734 19.578h0.172l0.094 0.047 0.063 0.078 0.016 0.078v0.563l0.125-0.016-0.063 0.063-0.109 0.016-0.078-0.047-0.016-0.063-0.141 0.094-0.141 0.016-0.109-0.047-0.047-0.078 0.016-0.141 0.078-0.078 0.25-0.125 0.078-0.063v-0.141l-0.047-0.094-0.125-0.016-0.078 0.031 0.047 0.078-0.016 0.078-0.031 0.031h-0.094l-0.047-0.063 0.016-0.094 0.094-0.078zM20.906 19.938l-0.188 0.109-0.063 0.063-0.016 0.141 0.031 0.063 0.109 0.031 0.094-0.047 0.063-0.078v-0.266z"></path>
<path fill="#fdfdfd" style="fill: var(--color2, #fdfdfd)" d="M17.844 19.578h0.172l0.109 0.047 0.063 0.094 0.016 0.609 0.109-0.016v0.047l-0.047 0.031-0.109 0.016-0.078-0.031-0.016-0.078-0.141 0.094-0.141 0.016-0.109-0.047-0.047-0.078v-0.109l0.047-0.078 0.125-0.078 0.219-0.109 0.016-0.016v-0.203l-0.047-0.047-0.109-0.016-0.094 0.016v0.047h0.031l0.016 0.031v0.094l-0.031 0.031h-0.094l-0.047-0.047 0.016-0.109 0.094-0.078zM18.031 19.938l-0.219 0.125-0.047 0.063v0.141l0.047 0.063 0.094 0.016 0.109-0.063 0.031-0.047v-0.297z"></path>
<path fill="#fdfdfd" style="fill: var(--color2, #fdfdfd)" d="M15.016 19.578h0.172l0.109 0.047 0.063 0.094 0.016 0.625 0.109-0.031v0.047l-0.047 0.031-0.094 0.016-0.094-0.031-0.016-0.078-0.141 0.094-0.141 0.016-0.109-0.047-0.047-0.063v-0.141l0.078-0.094 0.297-0.141 0.031-0.031v-0.203l-0.047-0.047-0.109-0.016-0.094 0.031 0.047 0.063v0.094l-0.047 0.031h-0.078l-0.047-0.047 0.016-0.109 0.094-0.078zM15.203 19.938l-0.219 0.125-0.047 0.063v0.141l0.047 0.063 0.094 0.016 0.109-0.063 0.031-0.047v-0.297z"></path>
<path fill="#32c1d4" style="fill: var(--color1, #32c1d4)" d="M2.625 14.234l0.016 0.063-0.109 0.563-0.063 0.188-0.25 0.422-0.125 0.188h-0.016v-0.375l0.141-0.234 0.188-0.344 0.172-0.359z"></path>
<path fill="#fdfdfd" style="fill: var(--color2, #fdfdfd)" d="M16.688 19.578h0.156l0.125 0.063 0.063 0.094 0.031 0.172-0.016 0.016h-0.469l0.016 0.203 0.078 0.156 0.078 0.047h0.125l0.094-0.063 0.063-0.078h0.031l-0.016 0.078-0.063 0.078-0.125 0.063h-0.203l-0.125-0.078-0.063-0.078-0.047-0.125v-0.234l0.047-0.141 0.109-0.125zM16.734 19.609l-0.078 0.047-0.047 0.063-0.031 0.156 0.109 0.016h0.203l0.016-0.016-0.016-0.156-0.047-0.078-0.063-0.031z"></path>
<path fill="#fdfdfd" style="fill: var(--color2, #fdfdfd)" d="M23.328 19.578h0.156l0.125 0.063 0.063 0.078 0.031 0.125v0.078h-0.484l0.031 0.25 0.063 0.109 0.094 0.047h0.109l0.078-0.047h0.031l0.031-0.078 0.047-0.016-0.016 0.078-0.078 0.094-0.094 0.047h-0.203l-0.125-0.063-0.094-0.125-0.031-0.125v-0.172l0.047-0.156 0.094-0.125zM23.375 19.609l-0.094 0.063-0.063 0.156v0.047l0.109 0.016h0.203l0.016-0.016v-0.109l-0.047-0.109-0.078-0.047z"></path>
<path fill="#fdfdfd" style="fill: var(--color2, #fdfdfd)" d="M10.641 19.578h0.172l0.094 0.047 0.078 0.094 0.031 0.094v0.109h-0.484l0.031 0.234 0.047 0.094 0.063 0.063 0.047 0.016h0.109l0.109-0.063 0.047-0.078h0.031l-0.016 0.078-0.078 0.094-0.094 0.047h-0.203l-0.125-0.063-0.094-0.141-0.031-0.141v-0.125l0.047-0.172 0.094-0.125zM10.703 19.609l-0.078 0.031-0.063 0.094-0.031 0.141 0.141 0.016h0.188l0.016-0.031-0.047-0.188-0.078-0.063z"></path>
<path fill="#fdfdfd" style="fill: var(--color2, #fdfdfd)" d="M11.703 19.359h0.094v0.234l0.234 0.016v0.031h-0.234l0.016 0.656 0.016 0.031 0.078 0.016 0.063-0.031 0.063-0.125h0.031l-0.016 0.109-0.078 0.094-0.031 0.016h-0.172l-0.078-0.063-0.031-0.094v-0.609h-0.141l-0.016-0.031h0.156v-0.234z"></path>
<path fill="#32c1d4" style="fill: var(--color1, #32c1d4)" d="M3.813 8.938h0.172l0.344 0.047 0.141 0.094 0.125 0.141v0.016l-0.141-0.016-0.453-0.063-0.469-0.031 0.031-0.063 0.156-0.094z"></path>
<path fill="#fdfdfd" style="fill: var(--color2, #fdfdfd)" d="M19.094 19.578h0.156l0.109 0.047 0.063 0.078v0.094l-0.063 0.047-0.078-0.016-0.031-0.047 0.016-0.078 0.031-0.047-0.063-0.031h-0.094l-0.094 0.063-0.047 0.094-0.016 0.078v0.266l0.047 0.125 0.063 0.063 0.141 0.016 0.094-0.047 0.078-0.094h0.031l-0.031 0.094-0.063 0.078-0.094 0.047h-0.188l-0.125-0.063-0.094-0.141-0.031-0.125v-0.156l0.047-0.156 0.125-0.141z"></path>
<path fill="#32c1d4" style="fill: var(--color1, #32c1d4)" d="M2.813 12.953h0.016v0.125l-0.016 0.109-0.188 0.125-0.156 0.141-0.109 0.109-0.141 0.219-0.031-0.016 0.016-0.344 0.141-0.156 0.219-0.172z"></path>
<path fill="#32c1d4" style="fill: var(--color1, #32c1d4)" d="M3.5 10.484h0.25l0.391 0.047 0.266 0.047 0.031 0.031-0.047 0.078-0.016 0.094-0.141-0.016-0.438-0.063-0.156-0.016-0.141-0.188z"></path>
<path fill="#32c1d4" style="fill: var(--color1, #32c1d4)" d="M4.078 19.828l0.172 0.016 0.359 0.094 0.234 0.078 0.016 0.016v0.141l-0.016 0.063-0.078-0.016-0.281-0.094-0.406-0.094-0.016-0.016v-0.141z"></path>
<path fill="#32c1d4" style="fill: var(--color1, #32c1d4)" d="M4.047 20.219l0.172 0.016 0.344 0.094 0.25 0.094 0.016 0.078-0.016 0.141-0.078-0.016-0.297-0.109-0.359-0.094-0.016-0.016z"></path>
<path fill="#32c1d4" style="fill: var(--color1, #32c1d4)" d="M3.156 19.781h0.656l0.125 0.016 0.016 0.016 0.016 0.188-0.359-0.016h-0.453z"></path>
<path fill="#32c1d4" style="fill: var(--color1, #32c1d4)" d="M3.359 20.156h0.234l0.359 0.031 0.016 0.016v0.188l-0.297-0.016h-0.484l-0.016-0.203z"></path>
<path fill="#32c1d4" style="fill: var(--color1, #32c1d4)" d="M27.406 14.625h0.188l0.078 0.047 0.047 0.078v0.141l-0.047 0.078-0.078 0.063h-0.188l-0.078-0.047-0.047-0.078v-0.141l0.047-0.078z"></path>
<path fill="#32c1d4" style="fill: var(--color1, #32c1d4)" d="M24.047 14.625h0.172l0.094 0.063 0.031 0.063v0.156l-0.094 0.109-0.031 0.016h-0.188l-0.094-0.063-0.031-0.063v-0.141l0.047-0.078 0.047-0.047z"></path>
<path fill="#32c1d4" style="fill: var(--color1, #32c1d4)" d="M4.094 20.609l0.313 0.078 0.328 0.125 0.047 0.031-0.031 0.203-0.141-0.047-0.234-0.094-0.266-0.078-0.016-0.016-0.016-0.188z"></path>
<path fill="#32c1d4" style="fill: var(--color1, #32c1d4)" d="M3.328 20.547h0.281l0.328 0.031v0.203l-0.266-0.016h-0.438l-0.016-0.047v-0.156z"></path>
<path fill="#32c1d4" style="fill: var(--color1, #32c1d4)" d="M3.063 11.281h0.172l0.047 0.047v0.094l-0.047 0.047-0.422 0.078-0.234 0.063-0.063-0.016 0.094-0.156 0.094-0.078 0.172-0.047z"></path>
<path fill="#fdfdfd" style="fill: var(--color2, #fdfdfd)" d="M8.656 19.594h0.094l0.016 0.703 0.016 0.031 0.094 0.031v0.031h-0.375l0.016-0.047 0.078-0.016v-0.625l-0.047-0.047-0.063-0.031v-0.016z"></path>
<path fill="#32c1d4" style="fill: var(--color1, #32c1d4)" d="M3.328 20.938h0.266l0.313 0.031v0.188l-0.016 0.016-0.234-0.016h-0.359l-0.031-0.109v-0.094z"></path>
<path fill="#32c1d4" style="fill: var(--color1, #32c1d4)" d="M4.125 21.016l0.266 0.078 0.281 0.125 0.047 0.031-0.031 0.203-0.094-0.031-0.281-0.125-0.172-0.063-0.016-0.016-0.016-0.188z"></path>
<path fill="#32c1d4" style="fill: var(--color1, #32c1d4)" d="M5.938 15.375h0.016v0.5l-0.156 0.344-0.156 0.313-0.016-0.031 0.063-0.313 0.031-0.094v-0.219l0.172-0.391z"></path>
<path fill="#32c1d4" style="fill: var(--color1, #32c1d4)" d="M4.141 22.281l0.063 0.016 0.234 0.141 0.125 0.094 0.063 0.172 0.109 0.141-0.016 0.031-0.297-0.188-0.281-0.188-0.016-0.016v-0.125z"></path>
<path fill="#32c1d4" style="fill: var(--color1, #32c1d4)" d="M20.375 11.797h0.25l0.094 0.031 0.047 0.047 0.016 0.031v0.109l-0.063 0.078-0.063 0.047 0.141 0.203v0.031h-0.078l-0.109-0.156-0.047-0.078-0.109-0.016v0.234l-0.063 0.016-0.016-0.016zM20.453 11.859l-0.016 0.078v0.109l0.016 0.016h0.156l0.078-0.047 0.016-0.078-0.047-0.063z"></path>
<path fill="#32c1d4" style="fill: var(--color1, #32c1d4)" d="M3.328 21.328h0.281l0.266 0.031v0.156l-0.016 0.047-0.5-0.031-0.031-0.109z"></path>
<path fill="#32c1d4" style="fill: var(--color1, #32c1d4)" d="M5.266 13.5l0.047 0.063 0.125 0.328 0.063 0.281 0.016 0.125v0.391l-0.016 0.094h-0.031l-0.094-0.563-0.063-0.422-0.047-0.203z"></path>
<path fill="#32c1d4" style="fill: var(--color1, #32c1d4)" d="M2.359 15.563l0.016 0.063-0.078 0.406-0.109 0.172-0.109 0.141h-0.016v-0.328l0.188-0.281z"></path>
<path fill="#32c1d4" style="fill: var(--color1, #32c1d4)" d="M3.469 22.5l0.219 0.016 0.172 0.047 0.031 0.031v0.203l-0.156-0.047-0.125-0.031-0.203-0.016z"></path>
<path fill="#32c1d4" style="fill: var(--color1, #32c1d4)" d="M4.125 22.734l0.078 0.016 0.266 0.172 0.188 0.109v0.031l-0.109 0.016h-0.172l-0.031 0.016-0.203-0.125-0.016-0.031z"></path>
<path fill="#32c1d4" style="fill: var(--color1, #32c1d4)" d="M3.375 22.891h0.203l0.203 0.063 0.063 0.031-0.031 0.063-0.047 0.047h-0.094l-0.031-0.016h-0.188l-0.156-0.031-0.047-0.047 0.016-0.078z"></path>
<path fill="#32c1d4" style="fill: var(--color1, #32c1d4)" d="M3.391 21.719h0.203l0.25 0.031v0.141l-0.016 0.063-0.391-0.031-0.047-0.172z"></path>
<path fill="#32c1d4" style="fill: var(--color1, #32c1d4)" d="M4.188 21.859l0.188 0.078 0.172 0.109-0.016 0.141-0.016 0.078-0.078-0.031-0.203-0.125-0.047-0.031z"></path>
<path fill="#32c1d4" style="fill: var(--color1, #32c1d4)" d="M2.328 16.297h0.031l0.047 0.25-0.063 0.078h-0.031l-0.016-0.078-0.016 0.156-0.109 0.156h-0.031l-0.047-0.156v-0.094l0.219-0.281z"></path>
<path fill="#32c1d4" style="fill: var(--color1, #32c1d4)" d="M3.484 22.109l0.234 0.016 0.109 0.031 0.063 0.172v0.047l-0.391-0.063z"></path>
<path fill="#32c1d4" style="fill: var(--color1, #32c1d4)" d="M4.156 21.438l0.156 0.047 0.078 0.047 0.016 0.063-0.047 0.094h-0.125l-0.078-0.047z"></path>
<path fill="#32c1d4" style="fill: var(--color1, #32c1d4)" d="M5.75 16.828l0.109 0.031-0.016 0.109-0.125 0.234-0.063 0.031 0.016-0.156 0.063-0.234z"></path>
<path fill="#32c1d4" style="fill: var(--color1, #32c1d4)" d="M4.078 17.203h0.094l0.063 0.063v0.078l-0.125 0.172h-0.031z"></path>
<path fill="#fdfdfd" style="fill: var(--color2, #fdfdfd)" d="M8.641 19.219l0.094 0.016 0.031 0.047v0.078l-0.078 0.063-0.078-0.016-0.047-0.078 0.031-0.078z"></path>
<path fill="#32c1d4" style="fill: var(--color1, #32c1d4)" d="M5.953 16.297l0.016 0.063-0.031 0.266-0.063-0.016-0.031-0.047 0.016-0.094z"></path>
<path fill="#32c1d4" style="fill: var(--color1, #32c1d4)" d="M5.281 16.906l0.016 0.063-0.094 0.547-0.031 0.063 0.016-0.25 0.063-0.313z"></path>
<path fill="#32c1d4" style="fill: var(--color1, #32c1d4)" d="M2.281 16.984h0.031l0.047 0.125v0.125l-0.078-0.078-0.047-0.078 0.031-0.078z"></path>
<path fill="#32c1d4" style="fill: var(--color1, #32c1d4)" d="M4.609 21.719l0.016 0.047-0.016 0.063h-0.031z"></path>
<path fill="#32c1d4" style="fill: var(--color1, #32c1d4)" d="M4.891 14.078l0.031 0.063v0.031h-0.031z"></path>
</symbol>
<symbol id="icon-whatsapp" viewBox="0 0 32 32">
<path fill="#fff" style="fill: var(--color3, #fff)" d="M3.245 28.869l1.796-6.557c-1.108-1.919-1.691-4.096-1.69-6.326 0.003-6.977 5.681-12.653 12.658-12.653 3.386 0.001 6.563 1.319 8.953 3.711s3.705 5.571 3.704 8.952c-0.003 6.977-5.681 12.653-12.657 12.653-0.001 0 0 0 0 0h-0.005c-2.118-0.001-4.2-0.532-6.049-1.541l-6.71 1.76z"></path>
<path fill="#fff" style="fill: var(--color3, #fff)" d="M3.245 29.202c-0.088 0-0.173-0.035-0.237-0.099-0.083-0.085-0.116-0.208-0.085-0.322l1.759-6.424c-1.091-1.937-1.666-4.137-1.665-6.371 0.003-7.161 5.83-12.987 12.991-12.987 3.473 0.001 6.737 1.354 9.189 3.809s3.803 5.718 3.801 9.187c-0.003 7.161-5.831 12.987-12.991 12.987-2.126-0.001-4.229-0.525-6.096-1.518l-6.583 1.726c-0.028 0.008-0.056 0.011-0.085 0.011z"></path>
<path fill="#cfd8dc" style="fill: var(--color4, #cfd8dc)" d="M16.009 3.333c3.386 0.001 6.563 1.319 8.953 3.711s3.705 5.571 3.704 8.952c-0.003 6.977-5.681 12.653-12.657 12.653h-0.005c-2.118-0.001-4.2-0.532-6.049-1.541l-6.71 1.76 1.796-6.557c-1.108-1.919-1.691-4.096-1.69-6.326 0.003-6.977 5.681-12.653 12.658-12.653zM16.009 28.649c0 0 0 0 0 0s0 0 0 0zM16.009 28.649c0 0 0 0 0 0s0 0 0 0zM16.009 2.667c0 0 0 0 0 0-7.344 0-13.321 5.975-13.325 13.319-0.001 2.245 0.566 4.457 1.641 6.415l-1.723 6.293c-0.063 0.23 0.001 0.475 0.169 0.645 0.127 0.128 0.298 0.198 0.474 0.198 0.057 0 0.113-0.007 0.169-0.022l6.458-1.693c1.885 0.979 3.999 1.495 6.131 1.496 7.349 0 13.327-5.975 13.33-13.32 0.001-3.559-1.383-6.906-3.899-9.423-2.517-2.518-5.864-3.905-9.426-3.907v0z"></path>
<path fill="#40c351" style="fill: var(--color5, #40c351)" d="M23.451 8.555c-1.987-1.988-4.627-3.083-7.438-3.084-5.803 0-10.522 4.717-10.525 10.516-0.001 1.987 0.555 3.922 1.609 5.597l0.251 0.398-1.063 3.881 3.982-1.044 0.385 0.228c1.615 0.959 3.467 1.465 5.355 1.466h0.004c5.799 0 10.518-4.718 10.52-10.517 0.001-2.81-1.092-5.453-3.079-7.441z"></path>
<path fill="#fff" style="fill: var(--color3, #fff)" d="M12.845 10.697c-0.237-0.527-0.486-0.537-0.712-0.547-0.185-0.008-0.395-0.007-0.606-0.007s-0.553 0.079-0.843 0.396c-0.29 0.317-1.107 1.081-1.107 2.637s1.133 3.060 1.291 3.271c0.158 0.211 2.188 3.506 5.403 4.774 2.671 1.053 3.215 0.844 3.795 0.791s1.871-0.765 2.135-1.503c0.263-0.739 0.263-1.371 0.185-1.503s-0.29-0.211-0.606-0.369-1.871-0.923-2.161-1.029c-0.29-0.105-0.501-0.158-0.712 0.159s-0.817 1.029-1.001 1.239c-0.185 0.211-0.369 0.238-0.685 0.079s-1.335-0.492-2.543-1.569c-0.94-0.838-1.575-1.873-1.759-2.19s-0.020-0.487 0.139-0.645c0.142-0.142 0.316-0.369 0.475-0.554s0.211-0.317 0.316-0.527c0.105-0.211 0.053-0.396-0.027-0.554-0.078-0.159-0.693-1.723-0.974-2.348z"></path>
</symbol>
<symbol id="icon-percents" viewBox="0 0 32 32">
<path fill="#fff" style="fill: var(--color3, #fff)" d="M21.215 3.273l-13.258 25.345h2.778l13.316-25.345h-2.836zM2 17.338q1.476 1.375 4.233 1.375 2.633 0 4.131-1.302 0.356-0.313 0.647-0.691 1.513-1.993 1.513-5.527 0-3.491-1.498-5.513-0.291-0.385-0.64-0.698-1.491-1.324-4.153-1.324-2.538 0-4.044 1.251-2.189 1.818-2.189 6.284 0 3.564 1.462 5.542 0.247 0.327 0.538 0.604zM8.262 15.796q-0.749 0.633-2.029 0.633-1.193 0-1.891-0.531-0.029-0.022-0.058-0.044-0.655-0.531-0.945-1.498-0.305-1.011-0.305-3.164 0-2.058 0.305-3.135t1.011-1.6q0.713-0.531 1.884-0.531 1.207 0 1.949 0.582 0.298 0.24 0.524 0.567 0.785 1.156 0.785 4.116 0 2.953-0.764 4.095-0.204 0.291-0.465 0.509zM21.44 27.018q1.513 1.258 4.073 1.258 2.531 0 4.036-1.244 2.204-1.818 2.204-6.305 0-3.564-1.469-5.535-0.233-0.32-0.524-0.589-1.476-1.382-4.247-1.382-2.553 0-4.065 1.258-2.189 1.818-2.189 6.276 0 4.444 2.182 6.262zM27.396 25.476q-0.705 0.531-1.884 0.531-1.222 0-1.971-0.596-0.291-0.233-0.509-0.56-0.778-1.164-0.778-4.095t0.778-4.095q0.225-0.342 0.524-0.582 0.742-0.589 1.956-0.589 1.156 0 1.869 0.516 0.705 0.524 1.040 1.556 0.327 1.033 0.327 3.164 0 2.145-0.32 3.185-0.327 1.033-1.025 1.564h-0.007z"></path>
</symbol>
<symbol id="icon-logo" viewBox="0 0 32 32">
<path fill="#2ec0d2" style="fill: var(--color6, #2ec0d2)" d="M15.188 11.734h0.359l0.203 0.281 0.188 0.25 0.203 0.281 0.234 0.313v0.031l0.078-0.078 0.188-0.25 0.438-0.594 0.172-0.234h0.344v2.203h-0.344v-1.313l0.016-0.313-0.172 0.219-0.234 0.313-0.156 0.203-0.188 0.25-0.031 0.016h-0.188l-0.078-0.078-0.25-0.328-0.219-0.297-0.219-0.281-0.016-0.016 0.016 0.203v1.422h-0.344z"></path>
<path fill="#2ec0d2" style="fill: var(--color6, #2ec0d2)" d="M7.625 11.734h0.344l0.203 0.219 0.109 0.125 0.172 0.188 0.141 0.156 0.109 0.125 0.188 0.203 0.109 0.125 0.188 0.203 0.109 0.125 0.188 0.203 0.031 0.047-0.031-0.672v-1.047h0.344l0.016 0.016v2.172l-0.016 0.016h-0.344l-0.234-0.25-0.188-0.203-0.172-0.188-0.219-0.234-0.172-0.188-0.188-0.203-0.234-0.25-0.141-0.156 0.016 0.344 0.016 0.234v1.094h-0.344z"></path>
<path fill="#09c9f2" style="fill: var(--color7, #09c9f2)" d="M7.234 18.281h22.703v0.078l-0.031 0.016-22.672-0.016z"></path>
<path fill="#2fc0d2" style="fill: var(--color8, #2fc0d2)" d="M7.641 14.828l0.328 0.016v0.953h1.375v-0.953h0.344v2.203l-0.297 0.016-0.047-0.016v-0.922h-1.375v0.922l-0.328 0.016-0.016-0.016v-2.203z"></path>
<path fill="#2fc0d2" style="fill: var(--color8, #2fc0d2)" d="M13 15.359h0.344l0.188 0.047 0.188 0.094 0.125 0.094v-0.203h0.344v1.656l-0.328 0.016-0.016-0.25-0.188 0.141-0.172 0.078-0.172 0.047h-0.359l-0.219-0.063-0.156-0.094-0.156-0.141-0.125-0.219-0.047-0.156-0.016-0.234 0.047-0.25 0.109-0.203 0.141-0.156 0.172-0.109 0.156-0.063zM13.188 15.656l-0.188 0.031-0.141 0.063-0.125 0.094-0.094 0.109-0.047 0.109-0.016 0.078v0.172l0.063 0.172 0.141 0.156 0.156 0.094 0.172 0.047h0.219l0.188-0.047 0.156-0.094 0.125-0.141 0.063-0.156v-0.25l-0.063-0.156-0.125-0.141-0.219-0.109-0.188-0.031z"></path>
<path fill="#2fc0d2" style="fill: var(--color8, #2fc0d2)" d="M10.891 15.359h0.375l0.234 0.063 0.172 0.094 0.172 0.156 0.094 0.156 0.063 0.188v0.297l-0.016 0.016h-1.547v0.047l0.063 0.125 0.078 0.094 0.188 0.109 0.156 0.047 0.109 0.016h0.266l0.156-0.031 0.188-0.078 0.109-0.063h0.047l0.109 0.188 0.016 0.063-0.156 0.094-0.234 0.094-0.219 0.047h-0.422l-0.25-0.063-0.188-0.094-0.172-0.141-0.094-0.125-0.078-0.156-0.031-0.125v-0.297l0.063-0.203 0.109-0.172 0.125-0.125 0.172-0.109 0.203-0.078zM10.969 15.656l-0.219 0.047-0.156 0.078-0.078 0.078-0.078 0.125-0.016 0.063 0.016 0.016h1.219l0.016-0.063-0.063-0.125-0.078-0.078-0.156-0.094-0.188-0.047z"></path>
<path fill="#2ec0d2" style="fill: var(--color6, #2ec0d2)" d="M18.797 12.25h0.375l0.188 0.047 0.219 0.109 0.172 0.156 0.109 0.188 0.047 0.172v0.281l-0.125 0.016h-1.453l0.063 0.156 0.094 0.109 0.188 0.109 0.172 0.047 0.109 0.016h0.234l0.219-0.047 0.25-0.125h0.047l0.125 0.219-0.016 0.047-0.25 0.125-0.266 0.078-0.094 0.016h-0.391l-0.25-0.063-0.141-0.063-0.172-0.109-0.109-0.109-0.109-0.188-0.047-0.141-0.016-0.188 0.031-0.219 0.078-0.188 0.109-0.141 0.109-0.109 0.156-0.094 0.188-0.078zM18.859 12.547l-0.219 0.047-0.172 0.094-0.094 0.125-0.047 0.094v0.047h1.219l0.031-0.016-0.016-0.078-0.063-0.109-0.125-0.109-0.188-0.078-0.094-0.016z"></path>
<path fill="#2ec0d2" style="fill: var(--color6, #2ec0d2)" d="M11.031 12.25h0.375l0.188 0.047 0.219 0.109 0.188 0.172 0.094 0.172 0.047 0.141v0.313l-0.297 0.016h-1.281l0.063 0.141 0.078 0.109 0.172 0.109 0.203 0.063 0.109 0.016h0.25l0.25-0.063 0.203-0.109h0.047l0.125 0.203-0.016 0.063-0.25 0.125-0.188 0.063-0.172 0.031h-0.391l-0.25-0.063-0.25-0.125-0.125-0.109-0.109-0.156-0.078-0.188-0.016-0.063v-0.281l0.047-0.172 0.078-0.156 0.172-0.188 0.172-0.109 0.188-0.078zM11.094 12.547l-0.25 0.063-0.156 0.094-0.094 0.141-0.031 0.094 0.016 0.016h1.219l0.016-0.063-0.078-0.156-0.125-0.094-0.188-0.078-0.078-0.016z"></path>
<path fill="#2fc0d2" style="fill: var(--color8, #2fc0d2)" d="M21.391 14.828h0.422l0.25 0.063 0.219 0.094 0.188 0.125 0.078 0.078-0.094 0.141-0.109 0.141-0.078-0.047-0.219-0.141-0.203-0.078-0.188-0.031h-0.141l-0.234 0.047-0.188 0.094-0.156 0.141-0.094 0.141-0.063 0.156-0.016 0.063v0.281l0.063 0.203 0.094 0.141 0.078 0.078 0.125 0.094 0.188 0.078 0.109 0.031 0.141 0.016h0.156l0.219-0.047 0.156-0.063 0.234-0.156h0.047l0.141 0.25-0.031 0.063-0.156 0.109-0.234 0.109-0.219 0.063-0.094 0.016h-0.391l-0.266-0.063-0.25-0.125-0.172-0.141-0.141-0.172-0.109-0.219-0.047-0.172-0.016-0.109v-0.25l0.047-0.219 0.125-0.25 0.094-0.125 0.156-0.156 0.172-0.109 0.156-0.078z"></path>
<path fill="#2ec0d2" style="fill: var(--color6, #2ec0d2)" d="M12.266 12.281h0.359l0.156 0.484 0.188 0.594 0.031 0.063 0.313-0.641 0.109-0.234h0.266l0.125 0.25 0.313 0.641 0.031 0.016 0.016-0.109 0.266-0.734 0.109-0.313 0.016-0.016h0.328l-0.016 0.078-0.172 0.469-0.281 0.734-0.141 0.359-0.016 0.016h-0.234l-0.313-0.641-0.141-0.297v-0.047l-0.047 0.047-0.203 0.438-0.234 0.5h-0.234l-0.063-0.141-0.266-0.75-0.203-0.563-0.063-0.172z"></path>
<path fill="#2fc0d2" style="fill: var(--color8, #2fc0d2)" d="M17.344 14.719h0.328l0.016 0.906 0.156-0.125 0.219-0.109 0.125-0.031h0.313l0.156 0.047 0.156 0.094 0.109 0.125 0.078 0.172 0.031 0.219v1.031l-0.313 0.016-0.016-0.016-0.016-0.906-0.016-0.172-0.078-0.156-0.094-0.078-0.156-0.063h-0.234l-0.172 0.063-0.141 0.109-0.094 0.156-0.016 0.063-0.016 0.984-0.313 0.016-0.016-0.016z"></path>
<path fill="#2fc0d2" style="fill: var(--color8, #2fc0d2)" d="M25.797 15.359h0.313l0.203 0.063 0.156 0.109 0.094 0.125 0.078 0.188 0.016 0.094v1.109l-0.063 0.016h-0.25l-0.016-0.016-0.016-1-0.047-0.156-0.094-0.125-0.156-0.078-0.078-0.016h-0.156l-0.203 0.063-0.141 0.109-0.094 0.125-0.031 0.125-0.016 0.953-0.031 0.016h-0.266l-0.031-0.016v-1.656h0.328v0.266l0.125-0.109 0.156-0.109 0.156-0.063z"></path>
<path fill="#2fc0d2" style="fill: var(--color8, #2fc0d2)" d="M28.906 15.359h0.359l0.219 0.047 0.188 0.078 0.172 0.109 0.063 0.063-0.016 0.078-0.141 0.188-0.063-0.016-0.125-0.094-0.188-0.094-0.172-0.047h-0.25l-0.156 0.047-0.156 0.094-0.109 0.141-0.063 0.203v0.125l0.047 0.172 0.094 0.125 0.109 0.094 0.125 0.063 0.109 0.031h0.297l0.203-0.063 0.203-0.109 0.063-0.047h0.031l0.156 0.219v0.047l-0.203 0.125-0.219 0.094-0.219 0.047h-0.391l-0.219-0.063-0.172-0.094-0.172-0.156-0.109-0.172-0.063-0.172-0.016-0.078v-0.25l0.047-0.172 0.094-0.188 0.141-0.156 0.188-0.125 0.219-0.078z"></path>
<path fill="#2fc0d2" style="fill: var(--color8, #2fc0d2)" d="M3.313 13.219h0.344l0.25 0.063 0.25 0.125 0.172 0.125 0.125 0.125 0.141 0.219 0.078 0.172 0.063 0.234 0.016 0.266-0.031 0.219-0.078 0.234-0.172 0.391-0.141 0.297-0.188 0.344-0.219 0.375-0.109 0.172-0.188 0.281-0.156 0.219-0.188 0.25-0.203 0.25-0.156 0.188-0.016 0.031h-0.031l-0.031-0.156v-0.109l0.156-0.188 0.203-0.266 0.203-0.281 0.25-0.375 0.188-0.313 0.219-0.391 0.25-0.5 0.172-0.406 0.047-0.25v-0.156l-0.047-0.25-0.094-0.203-0.094-0.141-0.094-0.109-0.203-0.141-0.172-0.078-0.172-0.047-0.188-0.016-0.234 0.031-0.125 0.031h-0.063l-0.031-0.188 0.203-0.063z"></path>
<path fill="#2ec0d2" style="fill: var(--color6, #2ec0d2)" d="M3.25 12.047h0.453l0.297 0.047 0.281 0.078 0.328 0.141 0.281 0.172 0.203 0.172 0.156 0.141 0.141 0.172 0.141 0.203 0.141 0.25 0.109 0.266 0.078 0.297 0.047 0.328v0.359l-0.047 0.328-0.094 0.328-0.109 0.25-0.031-0.047-0.047-0.25 0.016-0.125 0.063-0.234 0.031-0.234v-0.406l-0.047-0.297-0.078-0.266-0.125-0.281-0.125-0.219-0.109-0.141-0.016-0.063v-0.141l-0.031 0.016-0.031 0.063-0.063-0.031-0.141-0.141-0.234-0.172-0.25-0.141-0.328-0.125-0.266-0.063-0.109-0.016h-0.516l-0.313 0.063-0.281 0.094-0.25 0.125-0.047 0.031h-0.047l0.031-0.234 0.094-0.063 0.313-0.125 0.313-0.078z"></path>
<path fill="#2fc0d2" style="fill: var(--color8, #2fc0d2)" d="M15.984 14.906h0.328l0.016 0.016v0.453l0.531 0.016 0.016 0.016v0.281l-0.016 0.016h-0.531v1.344l-0.063 0.016h-0.266l-0.016-0.016v-1.328h-0.438l-0.016-0.016-0.016-0.297 0.016-0.016h0.453z"></path>
<path fill="#2fc0d2" style="fill: var(--color8, #2fc0d2)" d="M3.344 13.609h0.297l0.234 0.078 0.203 0.141 0.109 0.125 0.094 0.156 0.063 0.203 0.016 0.094v0.156l-0.047 0.219-0.172 0.391-0.203 0.422-0.203 0.359-0.203 0.344-0.25 0.375-0.203 0.281-0.156 0.203-0.109 0.141-0.031-0.031-0.031-0.156v-0.078l0.156-0.203 0.156-0.219 0.281-0.422 0.188-0.313 0.188-0.344 0.188-0.359 0.188-0.422 0.047-0.188v-0.156l-0.047-0.188-0.094-0.156-0.031-0.063-0.063-0.031-0.141-0.094-0.141-0.047-0.156-0.016-0.203 0.031-0.125 0.063h-0.047v-0.219l0.172-0.063z"></path>
<path fill="#2fc0d2" style="fill: var(--color8, #2fc0d2)" d="M5.188 15.156l0.031 0.016 0.047 0.219v0.125l-0.219 0.453-0.141 0.328-0.109 0.297-0.094 0.344-0.063 0.313-0.031 0.234-0.016 0.203v0.375l0.047 0.375 0.063 0.266 0.109 0.297 0.047 0.109 0.016 0.391h-0.031l-0.156-0.266-0.109-0.234-0.109-0.344-0.063-0.313-0.031-0.375v-0.203l0.031-0.391 0.063-0.375 0.109-0.422 0.125-0.359 0.141-0.313 0.156-0.344 0.109-0.234z"></path>
<path fill="#2fc0d2" style="fill: var(--color8, #2fc0d2)" d="M3.25 11.656h0.469l0.406 0.063 0.313 0.094 0.281 0.125 0.234 0.125 0.266 0.188 0.156 0.141 0.125 0.109 0.141 0.156 0.125 0.172 0.031 0.156 0.031 0.297h-0.031l-0.156-0.266-0.141-0.188-0.172-0.188-0.156-0.156-0.25-0.188-0.25-0.141-0.266-0.125-0.313-0.094-0.219-0.047-0.359-0.031-0.313 0.016-0.359 0.063-0.469 0.156 0.016-0.125 0.047-0.125 0.281-0.094 0.375-0.078z"></path>
<path fill="#2fc0d2" style="fill: var(--color8, #2fc0d2)" d="M22.969 14.703l0.328 0.016v2.328l-0.313 0.016-0.016-0.016-0.016-0.641v-1.594z"></path>
<path fill="#2fc0d2" style="fill: var(--color8, #2fc0d2)" d="M3.375 14h0.219l0.156 0.063 0.094 0.078 0.094 0.156 0.031 0.109v0.141l-0.063 0.203-0.203 0.438-0.172 0.344-0.219 0.375-0.172 0.281-0.203 0.297-0.172 0.234-0.047 0.047-0.016-0.094v-0.219l0.156-0.234 0.203-0.313 0.172-0.297 0.188-0.344 0.188-0.375 0.125-0.297 0.016-0.047v-0.141l-0.047-0.094-0.094-0.078-0.031-0.016h-0.203l-0.109 0.078-0.094 0.188-0.172 0.375-0.172 0.344-0.031 0.016 0.031-0.156 0.094-0.281 0.125-0.25 0.047-0.125 0.016-0.234 0.078-0.094 0.125-0.063z"></path>
<path fill="#2fc0d2" style="fill: var(--color8, #2fc0d2)" d="M14.813 14.703l0.313 0.016v2.328l-0.313 0.016-0.016-0.016v-2.328z"></path>
<path fill="#2fc0d2" style="fill: var(--color8, #2fc0d2)" d="M3.281 12.438h0.406l0.281 0.047 0.281 0.094 0.25 0.125 0.172 0.109 0.172 0.141 0.188 0.188-0.016 0.141-0.031 0.125-0.078-0.078-0.172-0.188-0.188-0.156-0.234-0.141-0.266-0.109-0.234-0.063-0.266-0.031h-0.141l-0.266 0.031-0.328 0.094-0.25 0.125-0.172 0.109-0.156 0.125-0.016-0.047 0.016-0.203 0.063-0.078 0.328-0.188 0.25-0.094 0.281-0.063z"></path>
<path fill="#2fc0d2" style="fill: var(--color8, #2fc0d2)" d="M23.969 15.391h0.328v1.656l-0.313 0.016-0.016-0.016-0.016-0.578v-0.906z"></path>
<path fill="#2fc0d2" style="fill: var(--color8, #2fc0d2)" d="M27.344 15.391h0.313l0.016 0.016v1.641l-0.313 0.016-0.016-0.016-0.016-0.594v-0.859z"></path>
<path fill="#2fc0d2" style="fill: var(--color8, #2fc0d2)" d="M5.297 15.859l0.031 0.031v0.391l-0.156 0.391-0.094 0.328-0.063 0.328-0.031 0.297v0.375l0.047 0.344v0.125l-0.063 0.25h-0.047l-0.063-0.172-0.063-0.297-0.031-0.281v-0.313l0.031-0.328 0.078-0.406 0.125-0.406 0.094-0.234 0.188-0.391z"></path>
<path fill="#2fc0d2" style="fill: var(--color8, #2fc0d2)" d="M3.578 11.266h0.141l0.266 0.031 0.359 0.078 0.281 0.094 0.281 0.125 0.281 0.156 0.219 0.156 0.156 0.125 0.094 0.078 0.063 0.281v0.063l-0.047-0.016-0.109-0.125-0.156-0.141-0.281-0.203-0.234-0.141-0.297-0.141-0.375-0.125-0.313-0.063-0.297-0.031-0.078-0.047-0.016-0.078z"></path>
<path fill="#2fc0d2" style="fill: var(--color8, #2fc0d2)" d="M4.922 14.469h0.031l0.141 0.313-0.016 0.156-0.094 0.25-0.156 0.359-0.125 0.25-0.203 0.391-0.219 0.375-0.188 0.297-0.016 0.031h-0.031l-0.016-0.328 0.25-0.438 0.203-0.375 0.203-0.422 0.156-0.375 0.063-0.266z"></path>
<path fill="#2fc0d2" style="fill: var(--color8, #2fc0d2)" d="M3.297 12.828h0.375l0.25 0.047 0.25 0.094 0.25 0.141 0.156 0.125 0.172 0.172 0.141 0.203 0.031 0.047v0.094l-0.063 0.063h-0.078l-0.109-0.141-0.125-0.172-0.109-0.109-0.219-0.156-0.234-0.109-0.219-0.063-0.078-0.016h-0.422l-0.25 0.063-0.063-0.016-0.047-0.125v-0.047l0.203-0.063z"></path>
<path fill="#646e71" style="fill: var(--color9, #646e71)" d="M13.844 19.578h0.109l0.109 0.047 0.047 0.094 0.078-0.094 0.109-0.047h0.109l0.109 0.047 0.047 0.078 0.016 0.109 0.016 0.5 0.094 0.063v0.016h-0.344l0.016-0.047 0.047-0.031v-0.625l-0.078-0.047-0.109 0.031-0.063 0.078-0.031 0.078v0.5l0.094 0.031v0.031h-0.328l0.016-0.047 0.047-0.047v-0.578l-0.031-0.063-0.078-0.016-0.094 0.047-0.063 0.078-0.016 0.047-0.016 0.172v0.344l0.094 0.031v0.031h-0.344l-0.016-0.031 0.109-0.031v-0.609l-0.016-0.047-0.094-0.047v-0.016l0.266-0.016v0.109l0.109-0.094z"></path>
<path fill="#656d6f" style="fill: var(--color10, #656d6f)" d="M9.422 19.578h0.109l0.078 0.031 0.047 0.047 0.016 0.047 0.031 0.016 0.031-0.063 0.078-0.063 0.063-0.016h0.109l0.109 0.047 0.047 0.094 0.016 0.609 0.094 0.031v0.031h-0.328l0.016-0.047 0.047-0.031v-0.625l-0.031-0.031h-0.125l-0.094 0.078-0.031 0.094v0.484l0.094 0.063v0.016h-0.344v-0.031l0.078-0.031v-0.609l-0.016-0.063-0.094-0.016-0.109 0.047-0.063 0.109-0.016 0.531 0.078 0.031v0.031h-0.328l-0.016-0.031 0.094-0.047 0.016-0.109v-0.531l-0.094-0.031-0.016-0.031 0.266-0.016v0.109l0.109-0.094z"></path>
<path fill="#2fc0d2" style="fill: var(--color8, #2fc0d2)" d="M4.094 17.906l0.063 0.016 0.031 0.031 0.031 0.266 0.047 0.328 0.094 0.359 0.125 0.313 0.141 0.266 0.078 0.109v0.094l-0.063 0.063-0.516-0.109-0.016-0.078 0.031-0.125 0.203 0.031 0.031 0.016-0.141-0.297-0.125-0.375-0.031-0.25z"></path>
<path fill="#2fc0d2" style="fill: var(--color8, #2fc0d2)" d="M3.656 10.875l0.234 0.016 0.375 0.063 0.172 0.047 0.125 0.094 0.563 0.188 0.25 0.125 0.094 0.109 0.094 0.219v0.047l-0.063-0.031-0.234-0.156-0.281-0.156-0.281-0.125-0.375-0.125-0.406-0.078-0.391-0.031 0.031-0.063z"></path>
<path fill="#2fc0d2" style="fill: var(--color8, #2fc0d2)" d="M3.422 14.391h0.094l0.063 0.047v0.094l-0.234 0.516-0.203 0.391-0.234 0.391-0.172 0.266-0.047 0.031 0.016-0.297 0.031-0.125 0.172-0.297 0.125-0.219 0.125-0.25 0.234-0.516z"></path>
<path fill="#2fc0d2" style="fill: var(--color8, #2fc0d2)" d="M3.953 16.672h0.031l-0.016 0.344-0.063 0.125-0.219 0.297-0.219 0.281-0.188 0.219-0.141 0.172-0.156 0.172-0.031-0.016-0.031-0.172 0.016-0.078 0.141-0.156 0.141-0.172 0.203-0.25 0.219-0.297z"></path>
<path fill="#657073" style="fill: var(--color11, #657073)" d="M19.719 19.203h0.094v0.5l0.109-0.094 0.094-0.031h0.109l0.094 0.047 0.047 0.063 0.016 0.047 0.016 0.578 0.094 0.047v0.031h-0.344l0.016-0.047 0.047-0.016 0.016-0.219v-0.344l-0.031-0.094-0.016-0.016h-0.141l-0.078 0.063-0.031 0.063-0.016 0.547 0.094 0.031v0.031h-0.344l-0.016-0.031 0.094-0.047v-1.031l-0.094-0.047v-0.016z"></path>
<path fill="#647073" style="fill: var(--color12, #647073)" d="M22.781 19.406h0.094l0.047 0.047-0.016 0.094-0.016 0.016h-0.094l-0.016-0.063-0.063 0.063v0.047l0.063 0.031 0.063 0.078 0.016 0.156-0.047 0.094-0.094 0.078-0.047 0.016-0.234 0.016-0.078 0.047-0.031 0.078 0.5 0.016 0.078 0.047 0.031 0.031v0.141l-0.094 0.141-0.125 0.078-0.063 0.016h-0.297l-0.125-0.063-0.031-0.031 0.016-0.109 0.125-0.109-0.094-0.047-0.016-0.109 0.063-0.094 0.063-0.047h0.031l-0.094-0.141-0.016-0.141 0.047-0.109 0.063-0.063 0.094-0.031h0.188l0.031-0.094zM22.531 19.609l-0.063 0.031-0.031 0.063v0.234l0.031 0.063 0.047 0.031h0.109l0.078-0.094v-0.219l-0.063-0.094zM22.516 20.344l-0.125 0.031-0.063 0.094v0.078l0.078 0.078 0.047 0.016h0.188l0.109-0.047 0.078-0.094v-0.109l-0.031-0.031-0.078-0.016z"></path>
<path fill="#2fc0d2" style="fill: var(--color8, #2fc0d2)" d="M3.828 18.797l0.078 0.031 0.016 0.016v0.141l-0.016 0.172-0.031 0.063h-0.172l-0.141 0.141-0.016 0.031h0.266l0.078 0.016 0.016 0.203-0.688-0.031-0.031-0.047v-0.094l0.344-0.344 0.109-0.125 0.156-0.156z"></path>
<path fill="#656d6f" style="fill: var(--color10, #656d6f)" d="M15.719 19.203h0.094v0.75l0.125-0.078 0.141-0.141v-0.063l-0.094-0.047v-0.016l0.313-0.016-0.016 0.047-0.109 0.063-0.125 0.125-0.047 0.063 0.031 0.078 0.203 0.266 0.078 0.094 0.047 0.031v0.031h-0.297l0.031-0.078-0.172-0.25-0.031-0.063-0.078-0.016 0.016 0.328 0.078 0.047v0.031h-0.344v-0.031l0.094-0.031v-1.031l-0.031-0.031-0.078-0.031v-0.016z"></path>
<path fill="#2fc0d2" style="fill: var(--color8, #2fc0d2)" d="M3.297 9.703h0.453l0.453 0.047 0.469 0.094 0.063 0.031-0.047 0.156-0.016 0.016-0.141-0.016-0.422-0.078-0.297-0.031-0.5-0.016-0.016-0.016z"></path>
<path fill="#2ec0d2" style="fill: var(--color6, #2ec0d2)" d="M3.922 17.406h0.016v0.313l-0.047 0.094-0.281 0.344-0.188 0.219-0.188 0.203-0.125 0.125-0.016 0.031h-0.047l-0.031-0.156v-0.078l0.125-0.125 0.109-0.125 0.188-0.219 0.172-0.203 0.141-0.188z"></path>
<path fill="#637174" style="fill: var(--color13, #637174)" d="M21.734 19.578h0.109l0.109 0.047 0.047 0.078 0.016 0.078v0.469l0.031 0.078 0.078 0.031v0.031h-0.344v-0.047l0.063-0.031 0.016-0.141-0.016-0.469-0.031-0.047-0.078-0.016-0.109 0.047-0.063 0.094-0.016 0.078v0.453l0.078 0.047v0.031h-0.344v-0.031l0.094-0.047v-0.625l-0.109-0.063v-0.016l0.266-0.016 0.016 0.109 0.125-0.109z"></path>
<path fill="#2fc0d2" style="fill: var(--color8, #2fc0d2)" d="M3.391 9.313h0.344l0.484 0.047 0.438 0.078 0.016 0.016v0.203l-0.172-0.031-0.375-0.063-0.313-0.031-0.453-0.016-0.016-0.047z"></path>
<path fill="#2fc0d2" style="fill: var(--color8, #2fc0d2)" d="M2.75 13.438l0.031 0.016-0.047 0.25-0.063 0.094-0.109 0.156-0.234 0.516-0.172 0.328-0.047 0.094h-0.016v-0.422l0.234-0.516 0.109-0.203 0.172-0.203z"></path>
<path fill="#2fc0d2" style="fill: var(--color8, #2fc0d2)" d="M3.359 10.094h0.375l0.438 0.047 0.391 0.078 0.063 0.031-0.063 0.172-0.141-0.016-0.469-0.078-0.484-0.031-0.063-0.016-0.047-0.141z"></path>
<path fill="#656e71" style="fill: var(--color14, #656e71)" d="M8.344 19.297l0.031 0.016v0.328l-0.047-0.016-0.047-0.203-0.047-0.047-0.203-0.016v0.969l0.141 0.031v0.031h-0.438v-0.047l0.125-0.016v-0.969h-0.125l-0.109 0.016-0.063 0.25h-0.047v-0.313z"></path>
<path fill="#646f72" style="fill: var(--color15, #646f72)" d="M12.406 19.578h0.156l0.125 0.047 0.078 0.078 0.063 0.125 0.016 0.063v0.203l-0.047 0.156-0.094 0.109-0.094 0.047h-0.234l-0.109-0.063-0.078-0.094-0.047-0.156v-0.203l0.063-0.172 0.063-0.078 0.078-0.047zM12.422 19.625l-0.094 0.109-0.031 0.141v0.281l0.047 0.125 0.063 0.078 0.141 0.016 0.094-0.078 0.031-0.078 0.016-0.094v-0.25l-0.031-0.141-0.094-0.109z"></path>
<path fill="#2fc0d2" style="fill: var(--color8, #2fc0d2)" d="M3.906 18.078h0.016l0.016 0.266-0.047 0.078-0.188 0.219-0.172 0.188-0.219 0.234-0.125 0.125-0.031-0.047-0.031-0.109v-0.078l0.25-0.266 0.188-0.203 0.141-0.172z"></path>
<path fill="#617478" style="fill: var(--color16, #617478)" d="M20.75 19.578h0.141l0.109 0.047 0.063 0.078 0.016 0.094v0.547l0.125-0.016-0.016 0.047-0.109 0.031-0.109-0.016-0.031-0.078-0.141 0.078-0.063 0.016h-0.109l-0.094-0.063-0.031-0.078 0.016-0.125 0.078-0.078 0.313-0.156 0.016-0.141-0.031-0.109-0.016-0.016h-0.188l0.016 0.063v0.125l-0.125 0.016-0.031-0.031v-0.109l0.063-0.078zM20.891 19.953l-0.219 0.125-0.031 0.063v0.109l0.047 0.078 0.078 0.016 0.109-0.047 0.047-0.047 0.016-0.297z"></path>
<path fill="#0ec7ee" style="fill: var(--color17, #0ec7ee)" d="M20.469 11.594h0.141l0.141 0.031 0.141 0.094 0.078 0.094 0.063 0.125 0.016 0.063v0.172l-0.063 0.172-0.109 0.125-0.125 0.078-0.125 0.031h-0.172l-0.172-0.063-0.125-0.109-0.078-0.141-0.016-0.063v-0.234l0.063-0.141 0.078-0.109 0.109-0.078zM20.453 11.672l-0.141 0.063-0.109 0.109-0.063 0.172v0.156l0.031 0.109 0.078 0.109 0.109 0.078 0.094 0.031h0.203l0.141-0.063 0.125-0.141 0.031-0.078v-0.25l-0.078-0.156-0.109-0.094-0.125-0.047z"></path>
<path fill="#646f72" style="fill: var(--color15, #646f72)" d="M15.031 19.578h0.156l0.109 0.047 0.063 0.094 0.016 0.609h0.125l-0.063 0.063-0.125 0.016-0.063-0.031-0.016-0.078-0.141 0.094-0.063 0.016h-0.109l-0.078-0.047-0.047-0.078v-0.125l0.078-0.094 0.266-0.125 0.078-0.031-0.016-0.219-0.047-0.047-0.188-0.016 0.016 0.078 0.016 0.016v0.094l-0.047 0.031-0.109-0.016-0.016-0.109 0.078-0.094zM15.203 19.938l-0.219 0.125-0.047 0.063-0.016 0.078 0.047 0.109 0.047 0.031 0.094-0.016 0.078-0.047 0.031-0.047v-0.297z"></path>
<path fill="#646e71" style="fill: var(--color9, #646e71)" d="M17.859 19.578h0.156l0.109 0.047 0.063 0.094 0.016 0.609h0.125l-0.063 0.063-0.125 0.016-0.063-0.031-0.031-0.063-0.125 0.078-0.156 0.016-0.094-0.047-0.047-0.078v-0.125l0.063-0.078 0.25-0.125 0.078-0.047h0.031l-0.016-0.219-0.047-0.047h-0.203l0.047 0.078v0.094l-0.047 0.031h-0.078l-0.047-0.047 0.016-0.109 0.094-0.078zM18.031 19.938l-0.219 0.125-0.047 0.063-0.016 0.078 0.047 0.109 0.047 0.031 0.094-0.016 0.094-0.063 0.016-0.016v-0.313z"></path>
<path fill="#637376" style="fill: var(--color18, #637376)" d="M23.344 19.578h0.141l0.109 0.047 0.063 0.078 0.047 0.125v0.078l-0.016 0.016h-0.469l0.016 0.203 0.063 0.125 0.063 0.063 0.047 0.016h0.109l0.078-0.047 0.078-0.094h0.031l-0.016 0.078-0.078 0.094-0.094 0.047h-0.203l-0.125-0.063-0.078-0.094-0.047-0.141v-0.203l0.063-0.172 0.094-0.109zM23.344 19.625l-0.078 0.078-0.047 0.125v0.047l0.297 0.016 0.031-0.016v-0.109l-0.063-0.125-0.016-0.016z"></path>
<path fill="#2ec0d2" style="fill: var(--color6, #2ec0d2)" d="M2.625 14.234l0.016 0.063-0.125 0.625-0.125 0.25-0.125 0.219-0.172 0.266-0.031-0.016 0.016-0.359 0.141-0.234 0.219-0.406 0.156-0.344z"></path>
<path fill="#637174" style="fill: var(--color13, #637174)" d="M16.688 19.578h0.156l0.125 0.063 0.063 0.094 0.031 0.172-0.016 0.016h-0.469l0.016 0.219 0.094 0.156 0.063 0.031h0.125l0.094-0.063 0.063-0.078h0.031l-0.031 0.094-0.125 0.109-0.047 0.016h-0.188l-0.109-0.047-0.094-0.109-0.047-0.141v-0.219l0.047-0.141 0.109-0.125zM16.703 19.625l-0.078 0.078-0.047 0.109v0.063l0.297 0.016 0.031-0.016-0.016-0.156-0.047-0.078-0.031-0.016z"></path>
<path fill="#637175" style="fill: var(--color19, #637175)" d="M10.641 19.578h0.156l0.109 0.047 0.078 0.094 0.031 0.094v0.094l-0.016 0.016h-0.469l0.016 0.188 0.063 0.141 0.063 0.063 0.047 0.016h0.109l0.094-0.047 0.078-0.094 0.016 0.047-0.094 0.125-0.094 0.047h-0.203l-0.125-0.063-0.094-0.141-0.031-0.156 0.016-0.203 0.078-0.156 0.094-0.078zM10.656 19.625l-0.078 0.078-0.047 0.141v0.031l0.297 0.016 0.047-0.016-0.031-0.172-0.063-0.078z"></path>
<path fill="#666d70" style="fill: var(--color20, #666d70)" d="M11.719 19.359h0.078v0.234l0.234 0.016v0.031h-0.234l0.016 0.656 0.047 0.047 0.078-0.016 0.047-0.047 0.047-0.094h0.031l-0.016 0.109-0.078 0.094-0.031 0.016h-0.172l-0.078-0.063-0.031-0.094v-0.609h-0.141l-0.016-0.031 0.141-0.016 0.016-0.219z"></path>
<path fill="#2fc0d2" style="fill: var(--color8, #2fc0d2)" d="M3.797 8.938h0.188l0.344 0.047 0.125 0.078 0.141 0.156-0.063 0.016-0.391-0.063-0.313-0.031-0.297-0.016 0.031-0.063 0.188-0.109z"></path>
<path fill="#646f71" style="fill: var(--color21, #646f71)" d="M19.109 19.578h0.141l0.109 0.047 0.063 0.078v0.094l-0.031 0.031h-0.109l-0.031-0.047 0.016-0.078 0.016-0.063-0.125-0.016-0.094 0.047-0.063 0.109-0.016 0.078v0.266l0.047 0.125 0.063 0.063 0.141 0.016 0.094-0.047 0.078-0.094h0.031l-0.031 0.094-0.125 0.109-0.031 0.016h-0.203l-0.125-0.078-0.078-0.125-0.031-0.109v-0.172l0.047-0.156 0.078-0.109 0.109-0.063z"></path>
<path fill="#2ec0d2" style="fill: var(--color6, #2ec0d2)" d="M2.813 12.953h0.016v0.125l-0.016 0.109-0.188 0.125-0.125 0.109h-0.031l-0.031 0.063-0.141 0.156-0.094 0.156-0.016-0.031 0.016-0.344 0.109-0.125 0.156-0.141 0.281-0.172z"></path>
<path fill="#2fbfd1" style="fill: var(--color22, #2fbfd1)" d="M3.516 10.484h0.234l0.391 0.047 0.266 0.047 0.016 0.047-0.031 0.063-0.016 0.094-0.141-0.016-0.438-0.063-0.156-0.016-0.125-0.172z"></path>
<path fill="#2ec0d2" style="fill: var(--color6, #2ec0d2)" d="M4.078 19.828l0.156 0.016 0.375 0.094 0.234 0.078 0.016 0.016v0.125l-0.016 0.078-0.156-0.047-0.391-0.109-0.219-0.047-0.016-0.016v-0.141z"></path>
<path fill="#2fc0d2" style="fill: var(--color8, #2fc0d2)" d="M3.328 20.156h0.281l0.344 0.031 0.016 0.016v0.156l-0.016 0.031-0.281-0.016h-0.484l-0.016-0.203z"></path>
<path fill="#2ec0d2" style="fill: var(--color6, #2ec0d2)" d="M4.063 20.219l0.156 0.016 0.328 0.094 0.266 0.094 0.016 0.047-0.016 0.172-0.156-0.047-0.328-0.109-0.25-0.063-0.016-0.016-0.016-0.172z"></path>
<path fill="#2fc0d2" style="fill: var(--color8, #2fc0d2)" d="M3.156 19.781h0.641l0.141 0.016 0.016 0.016v0.188l-0.328-0.016h-0.469z"></path>
<path fill="#2fc0d2" style="fill: var(--color8, #2fc0d2)" d="M27.406 14.625h0.188l0.094 0.063 0.031 0.063v0.141l-0.047 0.078-0.078 0.063h-0.188l-0.078-0.047-0.047-0.078v-0.156l0.094-0.109z"></path>
<path fill="#2fc0d2" style="fill: var(--color8, #2fc0d2)" d="M24.031 14.625h0.188l0.094 0.063 0.031 0.063v0.156l-0.094 0.109-0.031 0.016h-0.188l-0.094-0.063-0.031-0.063v-0.141l0.047-0.078z"></path>
<path fill="#2fc0d2" style="fill: var(--color8, #2fc0d2)" d="M4.078 20.625l0.156 0.016 0.297 0.094 0.234 0.094 0.016 0.047-0.031 0.172-0.094-0.031-0.328-0.125-0.219-0.063-0.016-0.016z"></path>
<path fill="#2ec0d2" style="fill: var(--color6, #2ec0d2)" d="M3.344 20.547h0.234l0.344 0.031 0.016 0.016v0.188l-0.266-0.016h-0.422l-0.031-0.063v-0.141z"></path>
<path fill="#2fc0d2" style="fill: var(--color8, #2fc0d2)" d="M3.078 11.281h0.156l0.047 0.047v0.094l-0.047 0.047-0.422 0.078-0.234 0.063-0.063-0.016 0.094-0.156 0.094-0.078 0.266-0.063z"></path>
<path fill="#667376" style="fill: var(--color23, #667376)" d="M9.141 19.594h0.094v0.109l0.078-0.078 0.031 0.016-0.094 0.156-0.016 0.531 0.078 0.031v0.031h-0.328l-0.016-0.031 0.094-0.047 0.016-0.109v-0.531l-0.094-0.031-0.016-0.031z"></path>
<path fill="#677174" style="fill: var(--color24, #677174)" d="M13.531 19.594h0.125v0.109l0.078-0.078 0.031 0.016-0.078 0.125-0.016 0.047-0.016 0.172v0.344l0.094 0.031v0.031h-0.344l-0.016-0.031 0.109-0.031v-0.609l-0.016-0.047-0.094-0.047v-0.016z"></path>
<path fill="#666d70" style="fill: var(--color20, #666d70)" d="M8.672 19.594h0.078l0.016 0.719 0.094 0.047v0.031h-0.359l0.016-0.047 0.063-0.016 0.016-0.031v-0.609l-0.094-0.047v-0.031z"></path>
<path fill="#2ec0d2" style="fill: var(--color6, #2ec0d2)" d="M5.938 15.375h0.016v0.5l-0.281 0.594-0.016 0.047h-0.031l0.063-0.328 0.031-0.109v-0.203l0.188-0.422z"></path>
<path fill="#2ec0d2" style="fill: var(--color6, #2ec0d2)" d="M3.359 20.938h0.188l0.25 0.016 0.109 0.031v0.172l-0.016 0.016-0.594-0.031-0.031-0.094v-0.094z"></path>
<path fill="#2ec0d2" style="fill: var(--color6, #2ec0d2)" d="M4.125 21.031l0.109 0.016 0.266 0.094 0.203 0.094v0.125l-0.016 0.094-0.078-0.031-0.297-0.125-0.172-0.063-0.016-0.016z"></path>
<path fill="#2dc0d2" style="fill: var(--color25, #2dc0d2)" d="M4.141 22.281l0.094 0.031 0.297 0.188 0.047 0.063 0.047 0.141 0.109 0.141-0.016 0.031-0.25-0.156-0.328-0.219-0.016-0.016v-0.125z"></path>
<path fill="#2dc0d3" style="fill: var(--color26, #2dc0d3)" d="M20.391 11.797h0.219l0.109 0.031 0.063 0.078v0.109l-0.063 0.078-0.047 0.031 0.031 0.078 0.063 0.094 0.031 0.063-0.078 0.016-0.109-0.156-0.031-0.094h-0.109l-0.016 0.234-0.063 0.016-0.016-0.016v-0.547zM20.469 11.859l-0.031 0.094v0.078l0.047 0.031h0.109l0.094-0.031 0.016-0.016v-0.094l-0.047-0.047z"></path>
<path fill="#2ec0d2" style="fill: var(--color6, #2ec0d2)" d="M3.328 21.328h0.25l0.297 0.031v0.156l-0.016 0.047-0.5-0.031-0.031-0.109z"></path>
<path fill="#0cc8ef" style="fill: var(--color27, #0cc8ef)" d="M20.938 11.844l0.063 0.016 0.047 0.141v0.172l-0.063 0.172-0.109 0.125-0.125 0.078-0.125 0.031h-0.172l-0.172-0.063-0.078-0.078 0.016-0.094 0.031 0.016v0.031l0.063 0.031 0.141 0.063h0.203l0.141-0.063 0.109-0.125 0.031-0.078v-0.25l-0.016-0.078z"></path>
<path fill="#2fc0d2" style="fill: var(--color8, #2fc0d2)" d="M5.266 13.5l0.047 0.063 0.125 0.328 0.063 0.281 0.016 0.141v0.375l-0.031 0.109h-0.016l-0.109-0.688-0.047-0.313-0.047-0.203z"></path>
<path fill="#08c9f3" style="fill: var(--color28, #08c9f3)" d="M8.078 12.391l0.078 0.016 0.141 0.172 0.359 0.359 0.078 0.109v0.031h0.031l0.109 0.125 0.313 0.313 0.109 0.141 0.078 0.078 0.125 0.141v0.031l0.031 0.016-0.078-0.016-0.188-0.203-0.219-0.234-0.141-0.156-0.234-0.25-0.172-0.188-0.188-0.203-0.234-0.25z"></path>
<path fill="#2ec0d2" style="fill: var(--color6, #2ec0d2)" d="M2.344 15.578h0.031l-0.031 0.188-0.063 0.297-0.203 0.281h-0.016v-0.328l0.266-0.406z"></path>
<path fill="#2fc0d2" style="fill: var(--color8, #2fc0d2)" d="M3.469 22.5l0.219 0.016 0.172 0.047 0.031 0.047v0.188l-0.281-0.078-0.203-0.016 0.047-0.172z"></path>
<path fill="#2fc0d2" style="fill: var(--color8, #2fc0d2)" d="M4.125 22.734l0.063 0.016 0.281 0.172 0.172 0.109 0.016 0.031-0.344 0.016-0.172-0.109-0.016-0.031z"></path>
<path fill="#2ec0d2" style="fill: var(--color6, #2ec0d2)" d="M3.391 21.719h0.172l0.281 0.031v0.141l-0.016 0.063-0.391-0.031z"></path>
<path fill="#2dc0d3" style="fill: var(--color26, #2dc0d3)" d="M3.375 22.891h0.203l0.203 0.063 0.063 0.031-0.031 0.063-0.063 0.047-0.109-0.016-0.281-0.016-0.094-0.047-0.016-0.063 0.063-0.047z"></path>
<path fill="#2ec0d2" style="fill: var(--color6, #2ec0d2)" d="M2.328 16.297h0.031l0.031 0.156v0.109l-0.031 0.063h-0.031l-0.031-0.094-0.016 0.172-0.125 0.156-0.031-0.031-0.031-0.125v-0.094l0.203-0.266z"></path>
<path fill="#2dc0d3" style="fill: var(--color26, #2dc0d3)" d="M4.188 21.859l0.266 0.125 0.094 0.063-0.031 0.219-0.078-0.031-0.203-0.125-0.047-0.031z"></path>
<path fill="#2ec0d2" style="fill: var(--color6, #2ec0d2)" d="M3.5 22.109l0.219 0.016 0.109 0.031 0.063 0.172v0.047l-0.391-0.063z"></path>
<path fill="#2cc0d4" style="fill: var(--color29, #2cc0d4)" d="M4.156 21.438l0.156 0.047 0.078 0.047 0.016 0.063-0.047 0.078-0.047 0.031-0.141-0.047-0.016-0.031z"></path>
<path fill="#0ac8f1" style="fill: var(--color30, #0ac8f1)" d="M20.109 11.906l0.047 0.016v0.25l0.031 0.109 0.047 0.109-0.016 0.047-0.063-0.031-0.078-0.141-0.016-0.063v-0.234l0.031-0.016z"></path>
<path fill="#2cc0d3" style="fill: var(--color31, #2cc0d3)" d="M5.75 16.828l0.109 0.031-0.016 0.094-0.125 0.25-0.063 0.031 0.016-0.156 0.063-0.234z"></path>
<path fill="#2fc0d2" style="fill: var(--color8, #2fc0d2)" d="M4.078 17.203h0.094l0.063 0.063-0.016 0.094-0.109 0.156-0.031-0.016z"></path>
<path fill="#646f71" style="fill: var(--color21, #646f71)" d="M20.672 19.594h0.078l-0.063 0.047 0.016 0.063v0.125l-0.125 0.016-0.031-0.031v-0.109l0.063-0.078z"></path>
<path fill="#666c6e" style="fill: var(--color32, #666c6e)" d="M17.766 19.609h0.031l0.016 0.078 0.016 0.031v0.094l-0.047 0.031h-0.078l-0.047-0.047 0.016-0.109z"></path>
<path fill="#657073" style="fill: var(--color11, #657073)" d="M8.609 19.234h0.109l0.047 0.047v0.078l-0.047 0.047-0.063 0.016-0.078-0.047-0.016-0.078z"></path>
<path fill="#2cc0d4" style="fill: var(--color29, #2cc0d4)" d="M20.938 11.844l0.063 0.016 0.047 0.141v0.172l-0.031 0.063-0.016-0.094h-0.031l-0.016 0.047-0.016-0.219-0.016-0.078z"></path>
<path fill="#2bc0d4" style="fill: var(--color33, #2bc0d4)" d="M20.969 12.141h0.031l0.016 0.141-0.078 0.125-0.063 0.063-0.031-0.016v-0.031l0.016-0.063 0.063-0.094z"></path>
<path fill="#2fc0d2" style="fill: var(--color8, #2fc0d2)" d="M20.828 12.391l0.047 0.016-0.031 0.094-0.141 0.063-0.063-0.031h-0.125l-0.031 0.016-0.031-0.016v-0.031l0.203-0.016 0.141-0.063z"></path>
<path fill="#2dc0d2" style="fill: var(--color25, #2dc0d2)" d="M5.938 16.313h0.016v0.219l-0.016 0.094-0.063-0.016-0.031-0.047 0.016-0.094z"></path>
<path fill="#2fc0d2" style="fill: var(--color8, #2fc0d2)" d="M5.266 16.953h0.016l-0.016 0.203-0.078 0.453h-0.016v-0.172l0.078-0.438z"></path>
<path fill="#0cc8f0" style="fill: var(--color34, #0cc8f0)" d="M15.828 12.688l0.063 0.031 0.047 0.063 0.031 0.063 0.047 0.031v0.031h0.031l0.047 0.109 0.047 0.031v0.031h0.031v0.047l-0.063-0.031-0.219-0.297-0.063-0.078z"></path>
<path fill="#28c1d7" style="fill: var(--color35, #28c1d7)" d="M2.281 16.984l0.047 0.016 0.047 0.219-0.063-0.016-0.078-0.125 0.031-0.063z"></path>
<path fill="#2cc0d4" style="fill: var(--color29, #2cc0d4)" d="M20.188 11.734l0.016 0.031 0.031 0.016-0.016 0.063-0.047 0.109-0.047-0.016-0.047 0.031 0.016-0.094z"></path>
<path fill="#0ec7ee" style="fill: var(--color17, #0ec7ee)" d="M18.172 13.625l0.063 0.031 0.125 0.094v0.031l0.078 0.031 0.016 0.031-0.094-0.031-0.141-0.109-0.047-0.047z"></path>
<path fill="#2fc0d2" style="fill: var(--color8, #2fc0d2)" d="M20.219 12.344l0.031 0.016v0.031l0.063 0.031 0.031 0.031-0.078 0.047-0.063-0.063z"></path>
<path fill="#05c9f6" style="fill: var(--color36, #05c9f6)" d="M20.969 12.141h0.031l0.016 0.141-0.047 0.047-0.031-0.031 0.016-0.109z"></path>
<path fill="#5a7d83" style="fill: var(--color37, #5a7d83)" d="M11.797 19.594l0.234 0.016v0.031h-0.203v-0.031z"></path>
<path fill="#04caf6" style="fill: var(--color38, #04caf6)" d="M20.859 12.359l0.078 0.016-0.031 0.063-0.063 0.031v-0.047z"></path>
<path fill="#2fc0d2" style="fill: var(--color8, #2fc0d2)" d="M4.875 14.078h0.031v0.125h-0.016z"></path>
<path fill="#2fc0d2" style="fill: var(--color8, #2fc0d2)" d="M4.594 21.734h0.031l-0.016 0.094h-0.016z"></path>
</symbol>
<symbol id="icon-plane" viewBox="0 0 32 32">
<path d="M26.98 7.020h0.34l0.48 0.060 1.32 0.28 0.56 0.14 0.3 0.12 0.36 0.2 0.2 0.16 0.080 0.1 0.080 0.16 0.020 0.080v0.16l-0.1 0.28-0.16 0.28-0.14 0.2-0.14 0.18-0.14 0.14-0.14 0.16-0.18 0.16-0.1 0.1-0.16 0.14-0.22 0.18-0.22 0.16-0.32 0.22-0.68 0.4-0.32 0.18-0.44 0.24-0.24 0.14-0.32 0.16-0.52 0.28-0.34 0.18-0.4 0.22-0.24 0.12-0.36 0.2-0.32 0.16-0.48 0.26-0.32 0.18-0.22 0.12-0.54 0.28-0.2 0.12-0.32 0.16-0.28 0.16-0.42 0.22-0.14 0.080-0.46 0.24-0.36 0.2-0.24 0.12-1.32 0.72-0.68 0.36-0.44 0.24-0.38 0.2-0.24 0.14-0.32 0.16-0.46 0.24-0.5 0.22-0.52 0.16-1.080 0.24-2.88 0.58-0.86 0.18-0.98 0.2-1.5 0.3-1.82 0.38-1.82 0.34-0.3 0.040h-0.12l-0.16-0.14-0.22-0.28-0.22-0.3-0.22-0.32-0.2-0.32-0.1-0.18v-0.16l0.080-0.1 0.66-0.32-0.12-0.16-0.22-0.22-0.16-0.14-0.28-0.26-0.16-0.14-0.72-0.66-0.16-0.14-0.2-0.18-0.16-0.16-0.060-0.040v-0.040l-0.080-0.040-0.26-0.26-0.12-0.18 0.040-0.12 0.14-0.16 0.3-0.16 0.54-0.24 0.44-0.18 0.32-0.12h0.2l0.28 0.080 0.78 0.38 0.34 0.16 0.38 0.2 0.32 0.16 0.58 0.28 0.64 0.32 0.38 0.2 0.36 0.16 0.18 0.1 0.24-0.040 0.52-0.2 1.44-0.62 0.68-0.3 0.72-0.3 0.6-0.24 0.42-0.18 0.28-0.14 0.22-0.12v-0.080h-0.14l-0.040-0.020v-0.040h-0.040v-0.040l-0.24-0.040-0.16-0.080-0.18-0.12-0.080-0.1-0.060-0.18 0.020-0.1 0.1-0.1 0.1-0.060h0.16l0.44 0.16 0.7 0.26 0.3 0.1 0.66 0.26 0.78 0.3 0.54 0.22 0.62 0.24 0.38 0.16 0.12 0.080 0.080 0.12 0.020 0.18-0.040 0.14-0.16 0.1h-0.28l-0.3-0.12-0.2-0.060-0.46-0.2-0.56-0.2-0.4-0.16-0.38-0.14-0.1-0.020-0.12-0.060h-0.16l-0.22 0.080-0.34 0.16-0.32 0.12-0.3 0.14-0.58 0.24-0.62 0.26-0.7 0.3-0.78 0.32-0.5 0.2-0.52 0.22-0.54 0.22-0.64 0.28-0.74 0.32-0.78 0.32-1.62 0.68-0.2 0.080h-0.040v0.1l0.22 0.28 0.22 0.38v0.040l0.36-0.040 0.48-0.1 0.76-0.14 1.56-0.32 0.94-0.2 6.040-1.22 0.72-0.16 0.5-0.14 0.7-0.32 0.48-0.24 0.32-0.18 0.5-0.28 0.38-0.2 0.36-0.2 0.88-0.48 0.34-0.18 0.32-0.16 0.44-0.24 0.52-0.28 0.38-0.2 0.48-0.26 0.64-0.34 0.2-0.12 0.28-0.14 1.1-0.58 0.44-0.24 0.52-0.28 0.44-0.24 0.92-0.5 0.6-0.32 0.32-0.18 0.36-0.2 0.34-0.2 0.32-0.2 0.32-0.22 0.22-0.18 0.26-0.2 0.12-0.12h0.040v-0.040l0.16-0.14 0.14-0.14 0.2-0.28 0.060-0.16-0.020-0.14-0.040-0.1-0.36-0.18-0.2-0.060-0.3-0.020-0.22 0.080-0.56 0.28-0.36 0.2-0.44 0.24-0.34 0.18-0.38 0.16-0.32 0.080-0.14-0.020-0.1-0.060-0.18-0.2-0.080-0.16-0.020-0.18 0.060-0.28 0.12-0.18 0.24-0.26 0.26-0.14 0.020-0.080-0.22 0.060-0.12 0.080-0.040 0.1-0.14-0.020-0.32 0.1-0.6 0.26-0.5 0.24-0.38 0.2-1.12 0.6-0.32 0.18-0.32 0.16-0.26 0.14-0.36 0.2-0.46 0.26-0.2 0.12-0.52 0.22-0.2 0.1-0.020 0.040 0.22 0.080 0.3 0.060 1.22 0.18 0.48 0.080 0.18 0.040 0.1 0.080 0.040 0.060 0.020 0.16-0.080 0.22-0.14 0.1h-0.34l-0.060-0.020-0.54-0.060-0.7-0.080-0.74-0.1-0.7-0.1-0.72-0.12-1-0.16-1.4-0.2-0.94-0.14-8.22-1.18h-0.3l-0.52 0.24-0.44 0.24-0.48 0.22-0.080 0.040 0.1 0.1 0.32 0.16 0.52 0.22 0.36 0.16 0.26 0.14 0.080 0.14 0.040 0.1-0.020 0.1-0.16 0.22-0.2-0.020-0.3-0.080-0.5-0.18-0.78-0.3-0.7-0.32-0.18-0.12-0.060-0.080 0.020-0.12 0.080-0.14 0.18-0.16 0.28-0.16 0.32-0.18 0.5-0.28 0.52-0.28 0.36-0.2 0.28-0.12 0.18-0.040h0.2l1.14 0.14 1.46 0.2 1.64 0.24 0.9 0.14 1.54 0.22 3.46 0.5 1.62 0.22 0.22 0.020 0.24-0.12 0.24-0.14 0.32-0.16 0.48-0.26 0.46-0.26 0.52-0.28 0.58-0.32 0.56-0.3 0.5-0.26 0.36-0.2 0.5-0.26 0.38-0.2 0.52-0.26 0.7-0.3 0.3-0.1 0.56-0.14zM27.76 7.74l-0.26 0.040-0.26 0.1-0.38 0.16-0.36 0.22-0.16 0.14-0.060 0.16v0.32l0.060 0.040h0.28l0.26-0.1 0.48-0.24 0.32-0.18 0.3-0.16 0.28-0.24 0.040-0.080-0.020-0.080-0.32-0.080zM2.96 14.8l-0.26 0.12-0.38 0.12-0.080 0.040 0.020 0.1 0.18 0.18 0.22 0.18 0.22 0.2 0.22 0.18 0.66 0.62 0.48 0.44 0.2 0.18 0.18 0.18 0.22-0.040 0.62-0.24 0.52-0.22 0.6-0.26 0.14-0.080-0.060-0.080-0.36-0.16-0.42-0.18-0.38-0.2-0.46-0.22-0.84-0.42-0.46-0.22-0.42-0.18-0.18-0.040z"></path>
<path d="M6.46 24.3l24.78 0.040 0.080 0.060 0.020 0.2-0.040 0.24-0.080 0.060-1.5 0.020-7.74 0.020h-13.5l-1.7-0.020-0.34-0.020-0.040-0.12v-0.3l0.020-0.14z"></path>
<path d="M9.52 11.22h0.16l0.16 0.060 0.080 0.12 0.020 0.14-0.060 0.12-0.14 0.12-0.4 0.22-0.32 0.16-0.54 0.28-0.52 0.24-0.26 0.080h-0.18l-0.080-0.040-0.1-0.18 0.020-0.18 0.080-0.12 0.16-0.12 1.52-0.76z"></path>
<path d="M11.42 11.84h0.2l0.12 0.060 0.080 0.1 0.040 0.080v0.12l-0.080 0.12-0.1 0.080-0.26 0.14-0.38 0.2-1.080 0.54-0.3 0.1-0.22 0.020-0.1-0.080-0.080-0.12v-0.14l0.080-0.16 0.2-0.14 1.56-0.8 0.24-0.1z"></path>
<path d="M2.6 24.36h2.1l0.060 0.040 0.020 0.080v0.22l-0.040 0.16-0.020 0.020-1.38 0.020h-0.7l-0.060-0.040-0.020-0.3 0.020-0.18z"></path>
<path d="M21.58 12.14h0.18l0.020 0.020-0.020 0.18-0.18 0.14-0.48 0.28-0.32 0.16-0.18 0.12-0.2 0.1-1.32 0.72-0.32 0.16-0.2 0.040-0.060-0.060v-0.12l0.1-0.1 0.3-0.16 0.34-0.2 0.44-0.24 0.46-0.26 0.48-0.26 0.32-0.18 0.26-0.14 0.22-0.14z"></path>
<path d="M0.72 24.34h0.6l0.5 0.020 0.060 0.060 0.020 0.1v0.24l-0.040 0.1-0.040 0.020h-1.080l-0.060-0.040-0.020-0.060v-0.16l0.040-0.24z"></path>
<path d="M18 14.1h0.28l0.020 0.1-0.18 0.2-0.24 0.14-0.2 0.1-0.2 0.040h-0.1l-0.040-0.060v-0.1l0.080-0.060 0.2-0.1 0.22-0.16z"></path>
</symbol>
<symbol id="icon-customer-service" viewBox="0 0 32 32">
<path fill="#1e7482" style="fill: var(--color39, #1e7482)" d="M25.968 27.868l-1.196-3.584c-0.416-1.252-1.484-2.176-2.78-2.412l-3.452-0.628v-0.268c0.604-0.348 1.124-0.812 1.54-1.364h1.044c0.852 0 1.548-0.696 1.548-1.548v-6.196c0-3.7-3.012-6.708-6.712-6.708s-6.708 3.008-6.708 6.708v3.612c0 0.996 0.708 1.828 1.644 2.024 0.292 1.484 1.22 2.74 2.484 3.472v0.268l-3.448 0.628c-1.3 0.236-2.364 1.16-2.784 2.412l-0.204 0.62-1.76-1.76c-0.2-0.2-0.2-0.528 0-0.728l2.040-2.040-3.828-3.824-2.304 2.304c-0.68 0.68-1.056 1.588-1.056 2.552 0 0.968 0.376 1.872 1.056 2.556l6.976 6.976c0.684 0.68 1.592 1.060 2.556 1.060s1.872-0.38 2.54-1.044l2.512-2.304-0.784-0.784h11.076zM21.64 18.064c0 0.284-0.232 0.516-0.516 0.516h-0.436c0.152-0.344 0.264-0.704 0.336-1.076 0.22-0.048 0.424-0.136 0.616-0.244v0.804zM21.124 16.372v-1.78c0.304 0.18 0.516 0.508 0.516 0.888 0 0.384-0.212 0.712-0.516 0.892zM10.8 16.372c-0.308-0.18-0.516-0.508-0.516-0.892 0-0.38 0.208-0.708 0.516-0.888v1.78zM10.8 12.9v0.592c-0.184 0.048-0.356 0.12-0.516 0.212v-1.836c0-3.128 2.548-5.676 5.676-5.676 3.132 0 5.68 2.548 5.68 5.676v1.836c-0.16-0.092-0.332-0.164-0.516-0.212v-0.592h-0.516c-1.528 0-2.964-0.592-4.044-1.672l-0.604-0.604-0.604 0.604c-1.080 1.080-2.512 1.672-4.040 1.672h-0.516zM11.832 16.516v-2.604c1.552-0.116 2.996-0.756 4.128-1.832 1.136 1.076 2.58 1.716 4.132 1.832v2.604c0 0.752-0.208 1.456-0.56 2.064h-3.572v1.032h2.724c-0.728 0.64-1.68 1.032-2.724 1.032-2.276 0-4.128-1.852-4.128-4.128zM17.508 21.436v0.024l-1.548 1.552-1.548-1.552v-0.024c0.492 0.156 1.008 0.24 1.548 0.24s1.060-0.084 1.548-0.24zM8.128 24.612c0.3-0.896 1.060-1.556 1.988-1.724l3.608-0.656 2.236 2.236 2.24-2.236 3.608 0.656c0.924 0.168 1.688 0.828 1.984 1.724l0.744 2.224h-10.676l-2.012-2.008-2.232 2.020c-0.196 0.196-0.536 0.196-0.728 0l-1.128-1.128 0.368-1.108zM3.396 18.012l2.368 2.364-0.56 0.56-2.368-2.364 0.56-0.56zM12.448 30.212c-0.488 0.484-1.136 0.752-1.824 0.752-0.692 0-1.34-0.268-1.828-0.756l-6.972-6.972c-0.488-0.488-0.756-1.136-0.756-1.824 0-0.692 0.268-1.34 0.756-1.828l0.284-0.284 2.364 2.368-0.016 0.020c-0.604 0.604-0.604 1.584 0 2.188l3.7 3.7c0.292 0.292 0.68 0.456 1.096 0.456 0.412 0 0.8-0.16 1.076-0.436l0.036-0.036 2.38 2.38-0.296 0.272zM13.504 29.24l-2.372-2.372 0.684-0.616 2.368 2.368-0.68 0.62z"></path>
<path fill="#1e7482" style="fill: var(--color39, #1e7482)" d="M30.412 0h-7.224c-0.856 0-1.548 0.692-1.548 1.548v4.128c0 0.852 0.692 1.548 1.548 1.548h1.376l-0.532 3.112 4.98-3.112h1.4c0.856 0 1.548-0.696 1.548-1.548v-4.128c0-0.856-0.692-1.548-1.548-1.548zM30.928 5.676c0 0.284-0.232 0.516-0.516 0.516h-1.696l-3.276 2.048 0.348-2.048h-2.6c-0.284 0-0.516-0.232-0.516-0.516v-4.128c0-0.284 0.232-0.516 0.516-0.516h7.224c0.284 0 0.516 0.232 0.516 0.516v4.128z"></path>
<path fill="#1e7482" style="fill: var(--color39, #1e7482)" d="M23.704 2.064h6.192v1.032h-6.192v-1.032z"></path>
<path fill="#1e7482" style="fill: var(--color39, #1e7482)" d="M23.704 4.128h4.128v1.032h-4.128v-1.032z"></path>
<path fill="#1e7482" style="fill: var(--color39, #1e7482)" d="M28.864 4.128h1.032v1.032h-1.032v-1.032z"></path>
<path fill="#1e7482" style="fill: var(--color39, #1e7482)" d="M15.96 1.548c-6.744 0-12.552 4.664-14.060 11.172l-0.98-1.632-0.884 0.532 1.812 3.020 3.024-1.812-0.532-0.884-1.396 0.836c1.46-5.952 6.812-10.2 13.016-10.2 1.356 0 2.696 0.2 3.976 0.596l0.308-0.984c-1.384-0.428-2.824-0.644-4.284-0.644z"></path>
<path fill="#1e7482" style="fill: var(--color39, #1e7482)" d="M31.712 11.428l-3.024-1.816-1.816 3.024 0.888 0.532 0.904-1.508c0.472 1.392 0.716 2.848 0.716 4.34 0 3.068-1.064 6.068-2.992 8.448l0.8 0.648c2.080-2.56 3.224-5.792 3.224-9.096 0-1.58-0.252-3.124-0.748-4.6l1.516 0.912 0.532-0.884z"></path>
</symbol>
<symbol id="icon-list" viewBox="0 0 32 32">
<path fill="#1e7482" style="fill: var(--color39, #1e7482)" d="M9.136 25.712c0-0.304 0.12-0.592 0.336-0.808s0.504-0.336 0.808-0.336h20.568c0.304 0 0.6 0.12 0.816 0.336 0.208 0.216 0.328 0.504 0.328 0.808s-0.12 0.592-0.328 0.808c-0.216 0.216-0.512 0.336-0.816 0.336h-20.568c-0.304 0-0.592-0.12-0.808-0.336s-0.336-0.504-0.336-0.808zM9.136 16.568c0-0.304 0.12-0.592 0.336-0.808s0.504-0.336 0.808-0.336h20.568c0.304 0 0.6 0.12 0.816 0.336 0.208 0.216 0.328 0.504 0.328 0.808s-0.12 0.592-0.328 0.808c-0.216 0.216-0.512 0.336-0.816 0.336h-20.568c-0.304 0-0.592-0.12-0.808-0.336s-0.336-0.504-0.336-0.808zM9.136 7.424c0-0.304 0.12-0.592 0.336-0.808s0.504-0.336 0.808-0.336h20.568c0.304 0 0.6 0.12 0.816 0.336 0.208 0.216 0.328 0.504 0.328 0.808s-0.12 0.6-0.328 0.808c-0.216 0.216-0.512 0.336-0.816 0.336h-20.568c-0.304 0-0.592-0.12-0.808-0.336-0.216-0.208-0.336-0.504-0.336-0.808zM6.52 4.328c0.104 0.112 0.192 0.232 0.248 0.376 0.056 0.136 0.088 0.288 0.088 0.44 0 0.144-0.032 0.296-0.088 0.432-0.056 0.144-0.144 0.264-0.248 0.376l-3.424 3.424c-0.112 0.112-0.24 0.192-0.376 0.248-0.136 0.064-0.288 0.088-0.44 0.088-0.144 0-0.296-0.024-0.432-0.088-0.144-0.056-0.264-0.136-0.376-0.248l-1.144-1.144c-0.104-0.104-0.184-0.232-0.248-0.368-0.056-0.136-0.080-0.288-0.080-0.44 0-0.144 0.024-0.296 0.080-0.432 0.064-0.144 0.144-0.272 0.248-0.376 0.112-0.104 0.232-0.192 0.376-0.248 0.136-0.056 0.288-0.088 0.44-0.088 0.144 0 0.296 0.032 0.432 0.088 0.144 0.056 0.264 0.144 0.376 0.248l0.328 0.336 2.624-2.624c0.104-0.104 0.232-0.184 0.368-0.248 0.144-0.056 0.288-0.080 0.44-0.080s0.296 0.024 0.44 0.080c0.136 0.064 0.264 0.144 0.368 0.248zM6.52 13.472c0.104 0.112 0.192 0.232 0.248 0.376 0.056 0.136 0.088 0.288 0.088 0.432 0 0.152-0.032 0.304-0.088 0.44s-0.144 0.264-0.248 0.368l-3.424 3.432c-0.112 0.104-0.24 0.192-0.376 0.248s-0.288 0.088-0.44 0.088c-0.144 0-0.296-0.032-0.432-0.088-0.144-0.056-0.264-0.144-0.376-0.248l-1.144-1.144c-0.208-0.216-0.328-0.504-0.328-0.808s0.12-0.592 0.328-0.808c0.216-0.216 0.512-0.336 0.816-0.336 0.296 0 0.592 0.12 0.808 0.336l0.328 0.336 2.624-2.624c0.104-0.104 0.232-0.192 0.368-0.248 0.144-0.056 0.288-0.088 0.44-0.088s0.296 0.032 0.44 0.088c0.136 0.056 0.264 0.144 0.368 0.248zM6.52 22.616c0.104 0.104 0.192 0.232 0.248 0.368 0.056 0.144 0.088 0.288 0.088 0.44s-0.032 0.304-0.088 0.44c-0.056 0.136-0.144 0.264-0.248 0.368l-3.424 3.432c-0.112 0.104-0.24 0.192-0.376 0.248s-0.288 0.088-0.44 0.088c-0.144 0-0.296-0.032-0.432-0.088-0.144-0.056-0.264-0.144-0.376-0.248l-1.144-1.144c-0.208-0.216-0.328-0.504-0.328-0.808s0.12-0.592 0.328-0.808c0.216-0.216 0.512-0.336 0.816-0.336 0.296 0 0.592 0.12 0.808 0.336l0.328 0.336 2.624-2.624c0.104-0.104 0.232-0.192 0.368-0.248 0.144-0.056 0.288-0.088 0.44-0.088s0.296 0.032 0.44 0.088c0.136 0.056 0.264 0.144 0.368 0.248z"></path>
</symbol>
<symbol id="icon-certificate" viewBox="0 0 32 32">
<path fill="#1e7482" style="fill: var(--color39, #1e7482)" d="M30.407 12.54l-6.693-2.873v-5.667c0-0.133-0.053-0.26-0.147-0.36l-2.5-2.5c-0.093-0.093-0.22-0.14-0.353-0.14h-18.5c-0.4 0-0.78 0.153-1.060 0.433-0.287 0.287-0.44 0.667-0.44 1.067v27c0 0.393 0.153 0.773 0.44 1.060 0.28 0.28 0.66 0.44 1.060 0.44h20c0.393 0 0.78-0.16 1.060-0.44 0.28-0.287 0.44-0.667 0.44-1.060v-1.247l2.6-1.86c1.36-0.967 2.467-2.253 3.233-3.74s1.16-3.133 1.167-4.8v-4.853c0-0.1-0.033-0.2-0.087-0.28s-0.127-0.147-0.22-0.18zM22.713 4.207v0.293h-2.5v-2.5h0.293l2.207 2.207zM22.213 30h-20c-0.133 0-0.26-0.053-0.353-0.147-0.093-0.1-0.147-0.227-0.147-0.353v-27c0-0.133 0.053-0.26 0.147-0.36 0.093-0.093 0.22-0.14 0.353-0.14h17v3c0 0.127 0.053 0.253 0.147 0.353 0.093 0.093 0.22 0.147 0.353 0.147h3v4.167l-6.7 2.873c-0.087 0.033-0.167 0.1-0.22 0.18s-0.080 0.18-0.080 0.28v4.853c0 1.667 0.4 3.313 1.16 4.8 0.767 1.487 1.873 2.773 3.233 3.74l2.607 1.86v1.247c0 0.127-0.053 0.253-0.147 0.353-0.093 0.093-0.22 0.147-0.353 0.147zM29.713 17.853c-0.007 1.507-0.367 3-1.060 4.34-0.687 1.347-1.693 2.507-2.92 3.387l-2.52 1.8-2.527-1.8c-1.227-0.88-2.227-2.040-2.92-3.38-0.693-1.347-1.053-2.84-1.053-4.347v-4.527l6.5-2.787 6.5 2.787v4.527z"></path>
<path fill="#1e7482" style="fill: var(--color39, #1e7482)" d="M23.027 12.033l-5 2c-0.093 0.033-0.173 0.1-0.227 0.18-0.060 0.087-0.087 0.187-0.087 0.287v3.153c-0.007 1.273 0.28 2.533 0.833 3.68 0.553 1.153 1.36 2.16 2.353 2.953l2 1.6c0.087 0.073 0.2 0.113 0.313 0.113s0.22-0.040 0.313-0.113l1.993-1.6c1-0.793 1.807-1.8 2.353-2.953 0.553-1.147 0.84-2.407 0.84-3.68v-3.153c0-0.1-0.033-0.2-0.087-0.287-0.060-0.080-0.14-0.147-0.227-0.18l-5-2c-0.12-0.047-0.253-0.047-0.373 0zM27.713 14.833v2.82c0 1.127-0.253 2.233-0.74 3.247s-1.193 1.907-2.080 2.607l-1.68 1.353-1.687-1.353c-0.88-0.7-1.593-1.593-2.080-2.607s-0.74-2.127-0.733-3.247v-2.82l4.5-1.8 4.5 1.8z"></path>
<path fill="#1e7482" style="fill: var(--color39, #1e7482)" d="M3.213 10h14c0.133 0 0.26-0.053 0.353-0.147 0.093-0.1 0.147-0.227 0.147-0.353v-6c0-0.133-0.053-0.26-0.147-0.36-0.093-0.093-0.22-0.14-0.353-0.14h-14c-0.133 0-0.26 0.047-0.353 0.14-0.093 0.1-0.147 0.227-0.147 0.36v6c0 0.127 0.053 0.253 0.147 0.353 0.093 0.093 0.22 0.147 0.353 0.147zM3.713 4h13v5h-13v-5z"></path>
<path fill="#1e7482" style="fill: var(--color39, #1e7482)" d="M14.213 22h-11c-0.133 0-0.26 0.047-0.353 0.14-0.093 0.1-0.147 0.227-0.147 0.36v6c0 0.127 0.053 0.253 0.147 0.353 0.093 0.093 0.22 0.147 0.353 0.147h11c0.133 0 0.26-0.053 0.353-0.147 0.093-0.1 0.147-0.227 0.147-0.353v-6c0-0.133-0.053-0.26-0.147-0.36-0.093-0.093-0.22-0.14-0.353-0.14zM13.713 28h-10v-5h10v5z"></path>
<path fill="#1e7482" style="fill: var(--color39, #1e7482)" d="M2.713 12.5h12v1h-12v-1z"></path>
<path fill="#1e7482" style="fill: var(--color39, #1e7482)" d="M2.713 15.5h12v1h-12v-1z"></path>
<path fill="#1e7482" style="fill: var(--color39, #1e7482)" d="M2.713 18.5h12v1h-12v-1z"></path>
</symbol>
<symbol id="icon-profi" viewBox="0 0 32 32">
<path fill="#1e7482" style="fill: var(--color39, #1e7482)" d="M27.987 32c-0.127 0-0.26-0.040-0.373-0.12l-4.567-3.107-4.573 3.107c-0.227 0.16-0.527 0.153-0.753 0-0.233-0.16-0.333-0.447-0.267-0.713l1.413-5.58-4.253-3.64c-0.207-0.173-0.287-0.46-0.2-0.72 0.087-0.253 0.32-0.433 0.593-0.447l5.447-0.313 1.967-5.367c0.193-0.52 1.060-0.52 1.253 0l1.967 5.367 5.447 0.313c0.267 0.013 0.507 0.193 0.593 0.447 0.087 0.26 0.007 0.547-0.2 0.72l-4.26 3.64 1.42 5.58c0.067 0.267-0.040 0.553-0.267 0.713-0.12 0.080-0.253 0.12-0.387 0.12zM23.047 27.3c0.127 0 0.26 0.040 0.373 0.113l3.493 2.38-1.087-4.287c-0.060-0.24 0.020-0.507 0.213-0.667l3.307-2.827-4.22-0.24c-0.267-0.013-0.5-0.187-0.587-0.44l-1.493-4.067-1.493 4.067c-0.093 0.253-0.327 0.427-0.593 0.44l-4.22 0.24 3.307 2.827c0.193 0.16 0.28 0.427 0.213 0.667l-1.080 4.287 3.487-2.38c0.113-0.073 0.247-0.113 0.38-0.113z"></path>
<path fill="#1e7482" style="fill: var(--color39, #1e7482)" d="M13.713 26.667h-13.333c-0.373 0-0.667-0.3-0.667-0.667v-5.333c0-2.573 2.093-4.667 4.667-4.667h13.333c0.367 0 0.667 0.293 0.667 0.667 0 0.367-0.3 0.667-0.667 0.667h-13.333c-1.84 0-3.333 1.493-3.333 3.333v4.667h12.667c0.367 0 0.667 0.293 0.667 0.667 0 0.367-0.3 0.667-0.667 0.667z"></path>
<path fill="#1e7482" style="fill: var(--color39, #1e7482)" d="M10.38 13.333c-2.573 0-4.667-2.093-4.667-4.667 0-0.373 0.293-0.667 0.667-0.667 2.287 0 3.333-1.733 3.333-3.333 0-0.373 0.293-0.667 0.667-0.667 0.367 0 0.667 0.293 0.667 0.667 0 1.6 1.040 3.333 3.333 3.333 0.367 0 0.667 0.293 0.667 0.667 0 2.573-2.093 4.667-4.667 4.667zM7.1 9.287c0.293 1.54 1.653 2.713 3.28 2.713 1.62 0 2.98-1.173 3.273-2.713-1.533-0.2-2.633-1.040-3.273-2.133-0.647 1.093-1.747 1.933-3.28 2.133z"></path>
<path fill="#1e7482" style="fill: var(--color39, #1e7482)" d="M15.713 13.333h-10.667c-1.107 0-2-0.9-2-2v-4c0-4.047 3.287-7.333 7.333-7.333 4.040 0 7.333 3.287 7.333 7.333v4c0 1.1-0.9 2-2 2zM10.38 1.333c-3.313 0-6 2.687-6 6v4c0 0.367 0.293 0.667 0.667 0.667h10.667c0.367 0 0.667-0.3 0.667-0.667v-4c0-3.313-2.693-6-6-6z"></path>
</symbol>
<symbol id="icon-gear" viewBox="0 0 32 32">
<path fill="#1e7482" style="fill: var(--color39, #1e7482)" d="M31.7 14.22c-0.007-1.060-0.853-1.967-1.993-1.967h-0.013c-0.080-0.007-0.153-0.060-0.173-0.14-0.313-1.12-0.767-2.193-1.34-3.2-0.047-0.087-0.033-0.193 0.033-0.26 0 0 0 0 0 0 0.367-0.367 0.573-0.853 0.573-1.38s-0.213-1.047-0.587-1.413l-2.44-2.42c0 0 0 0 0 0-0.767-0.767-2.027-0.787-2.793 0-0.007 0.013-0.020 0.020-0.033 0.033-0.047 0.047-0.133 0.053-0.207 0.013-1.013-0.573-2.1-1.013-3.227-1.327-0.080-0.020-0.14-0.093-0.14-0.167v-0.027c-0.007-1.087-0.9-1.967-1.987-1.967 0 0-0.007 0-0.007 0l-3.44 0.007c-0.533 0.007-1.027 0.213-1.4 0.587-0.367 0.38-0.567 0.88-0.56 1.4v0.020c0 0.080-0.060 0.153-0.14 0.18-1.127 0.313-2.207 0.767-3.22 1.347-0.073 0.040-0.153 0.033-0.207-0.013-0.013-0.013-0.027-0.027-0.033-0.033-0.367-0.373-0.853-0.573-1.373-0.573-0.007 0-0.007 0-0.007 0-0.527 0-1.040 0.213-1.413 0.587l-2.42 2.44c-0.76 0.76-0.78 2.027 0 2.793 0.007 0.007 0.127 0.1 0.047 0.247-0.573 1.013-1.013 2.1-1.32 3.22-0.027 0.080-0.093 0.14-0.2 0.14-1.087 0.007-1.973 0.9-1.967 1.993l0.007 3.427c0.007 1.093 0.887 1.973 1.987 1.973h0.007c0.007 0.007 0.147-0.007 0.193 0.14 0.313 1.127 0.767 2.207 1.34 3.22 0.087 0.14-0.040 0.24-0.040 0.24-0.787 0.78-0.74 2.047 0.013 2.793l2.44 2.42c0.767 0.76 2.027 0.787 2.793 0 0.067-0.067 0.14-0.107 0.24-0.047 1.013 0.573 2.1 1.013 3.227 1.32 0.087 0.027 0.14 0.093 0.14 0.173 0.007 0.027-0.047 0.787 0.587 1.42 0.373 0.373 0.867 0.573 1.393 0.573h0.007l3.42-0.007c1.093-0.007 1.98-0.893 1.993-1.987v-0.020c0-0.080 0.053-0.153 0.14-0.18 1.12-0.313 2.2-0.767 3.213-1.347 0.073-0.040 0.16-0.033 0.213 0.013 0.907 0.84 2.073 0.773 2.827 0.020l2.413-2.44c0.76-0.76 0.78-2.033 0-2.793v0c-0.067-0.067-0.087-0.173-0.040-0.253 0.573-1.013 1.013-2.093 1.32-3.213 0.020-0.080 0.093-0.14 0.173-0.14 0.020-0.007 0.8 0.053 1.44-0.607 0.36-0.38 0.553-0.893 0.553-1.42l-0.013-3.4zM29.693 18.707c-0.487 0.013-0.92 0.353-1.053 0.833-0.32 1.173-0.74 2.193-1.367 3.24-0.207 0.34-0.073 0.72 0.34 1.147 0.393 0.413 0.38 1.067-0.007 1.46l-2.42 2.44c-0.34 0.34-0.76 0.313-0.753 0.307-0.387 0-0.587-0.18-0.773-0.353-0.353-0.327-0.88-0.38-1.307-0.14-0.947 0.54-1.96 0.967-3.007 1.26-0.48 0.133-0.82 0.573-0.827 1.060-0.013 0.667-0.513 1.087-1.053 1.087l-3.427 0.013c-0.533-0.007-1.027-0.393-1.040-1.080-0.013-0.487-0.353-0.927-0.833-1.053-1.047-0.287-2.067-0.707-3.013-1.24-0.413-0.233-0.96-0.213-1.373 0.213-0.4 0.413-1.060 0.387-1.46-0.013l-2.433-2.413c-0.373-0.373-0.46-1.013 0.007-1.493 0.347-0.36 0.42-0.913 0.173-1.347-0.54-0.947-0.967-1.953-1.26-3.007-0.127-0.453-0.54-0.82-1.1-0.82-0.573 0-1.047-0.46-1.047-1.040l-0.013-3.427c0-0.58 0.467-1.047 1.040-1.053 0 0 0.007 0 0.007 0 0.507 0 0.953-0.347 1.087-0.833 0.287-1.047 0.7-2.060 1.233-3.007 0.24-0.427 0.193-0.993-0.207-1.38-0.407-0.393-0.38-1.067 0.013-1.46l2.413-2.44c0.2-0.193 0.473-0.313 0.753-0.313v0c0.273 0.007 0.527 0.107 0.713 0.3 0.020 0.020 0.040 0.040 0.060 0.060 0.353 0.327 0.88 0.38 1.313 0.14 0.947-0.54 1.953-0.967 3.007-1.26 0.473-0.133 0.813-0.573 0.82-1.067v-0.040c0-0.273 0.107-0.533 0.3-0.733s0.473-0.307 0.753-0.307l3.433-0.013c0.573 0 1.033 0.467 1.033 1.047 0 0.007 0 0.020 0 0.033 0.013 0.487 0.353 0.927 0.833 1.053 1.053 0.287 2.067 0.707 3.013 1.24 0.427 0.233 0.973 0.2 1.373-0.213 0.4-0.407 1.060-0.387 1.46 0.013v0l2.44 2.413c0.193 0.2 0.307 0.473 0.307 0.753 0 0.273-0.1 0.527-0.287 0.707-0.087 0.087-0.167 0.18-0.233 0.28-0.207 0.293-0.213 0.68-0.033 0.987 0.6 1 1.007 1.987 1.32 3.12 0.133 0.473 0.573 0.813 1.060 0.82 0.693 0.013 1.087 0.507 1.087 1.033l0.013 3.44c0 0.533-0.393 1.033-1.080 1.047z"></path>
<path fill="#1e7482" style="fill: var(--color39, #1e7482)" d="M15.713 6.347c-5.327 0-9.653 4.327-9.653 9.653 0 5.32 4.327 9.647 9.653 9.647 5.32 0 9.647-4.327 9.647-9.647 0-5.327-4.327-9.653-9.647-9.653zM15.713 24.713c-4.807 0-8.713-3.913-8.713-8.713 0-4.807 3.907-8.72 8.713-8.72 4.8 0 8.713 3.913 8.713 8.72 0 4.8-3.913 8.713-8.713 8.713z"></path>
<path fill="#1e7482" style="fill: var(--color39, #1e7482)" d="M21.093 11.147c-0.347-0.287-0.78-0.42-1.227-0.38s-0.853 0.247-1.14 0.593l-4.993 5.98-1.707-1.76c-0.313-0.32-0.733-0.5-1.18-0.507s-0.873 0.16-1.193 0.473c-0.32 0.313-0.5 0.727-0.507 1.18-0.007 0.447 0.16 0.867 0.473 1.193l3.007 3.093c0.313 0.32 0.753 0.507 1.2 0.507 0.020 0 0.047 0 0.067 0 0.473-0.020 0.92-0.24 1.227-0.607l6.18-7.4c0.593-0.713 0.5-1.773-0.207-2.367zM20.587 12.907l-6.187 7.407c-0.14 0.16-0.333 0.26-0.54 0.267-0.213 0.007-0.413-0.073-0.56-0.22l-3.007-3.093c-0.14-0.147-0.213-0.333-0.213-0.527 0.007-0.2 0.087-0.387 0.227-0.52 0.14-0.14 0.32-0.213 0.513-0.213 0.007 0 0.013 0 0.013 0 0.2 0.007 0.38 0.087 0.52 0.227l2.073 2.127c0.093 0.1 0.22 0.147 0.353 0.147 0.133-0.007 0.253-0.067 0.34-0.167l5.327-6.38c0.127-0.153 0.307-0.247 0.5-0.26 0.2-0.020 0.393 0.040 0.547 0.167 0.307 0.26 0.353 0.727 0.093 1.040z"></path>
<path fill="#1e7482" style="fill: var(--color39, #1e7482)" d="M22.533 24.307c-1.913 1.573-4.34 2.44-6.82 2.44-5.927 0-10.753-4.82-10.753-10.747 0-2.487 0.867-4.913 2.44-6.827 0.167-0.2 0.14-0.493-0.060-0.66-0.2-0.16-0.5-0.133-0.66 0.067-1.713 2.080-2.653 4.713-2.653 7.42 0 6.44 5.24 11.687 11.687 11.687 2.7 0 5.333-0.947 7.413-2.66 0.2-0.16 0.233-0.46 0.067-0.66s-0.46-0.227-0.66-0.060z"></path>
<path fill="#1e7482" style="fill: var(--color39, #1e7482)" d="M15.713 4.307c-2.707 0-5.34 0.947-7.42 2.66-0.2 0.16-0.227 0.46-0.067 0.66 0.167 0.2 0.46 0.227 0.66 0.060 1.913-1.573 4.34-2.44 6.827-2.44 5.927 0 10.747 4.82 10.747 10.753 0 2.48-0.867 4.907-2.44 6.82-0.167 0.2-0.133 0.493 0.067 0.66 0.087 0.073 0.187 0.107 0.293 0.107 0.133 0 0.273-0.060 0.36-0.173 1.713-2.080 2.66-4.713 2.66-7.413 0-6.447-5.247-11.693-11.687-11.693z"></path>
</symbol>
<symbol id="icon-diploma" viewBox="0 0 32 32">
<path fill="#1e7482" style="fill: var(--color39, #1e7482)" d="M28.367 5.333h-25.087c-0.473 0-0.933 0.187-1.267 0.52s-0.527 0.78-0.527 1.253v17.78c0 0.473 0.193 0.92 0.527 1.253s0.793 0.527 1.267 0.527h13.44l0.507-0.627 0.833-1.013-0.080-0.14h-14.7v-17.78h25.087v7.613c0.68 0.433 1.28 0.98 1.787 1.607v-9.22c0-0.473-0.187-0.92-0.52-1.253-0.34-0.333-0.793-0.52-1.267-0.52z"></path>
<path fill="#1e7482" style="fill: var(--color39, #1e7482)" d="M5.933 10.66h15.113v1.427h-15.113v-1.427z"></path>
<path fill="#1e7482" style="fill: var(--color39, #1e7482)" d="M5.933 14.22h9.78v1.42h-9.78v-1.42z"></path>
<path fill="#1e7482" style="fill: var(--color39, #1e7482)" d="M5.933 20.44h8.887v1.427h-8.887v-1.427z"></path>
<path fill="#1e7482" style="fill: var(--color39, #1e7482)" d="M24.12 15.313c-1.14-0.013-2.253 0.327-3.193 0.96-0.947 0.633-1.68 1.533-2.1 2.593-0.42 1.053-0.52 2.213-0.273 3.327 0.247 1.107 0.827 2.12 1.653 2.9l-1.72 2.107 0.8 3.207 3.253-3.967c1.027 0.307 2.127 0.307 3.153 0l3.253 3.967 0.8-3.207-1.727-2.107c0.833-0.78 1.407-1.793 1.653-2.9 0.247-1.113 0.153-2.273-0.267-3.327-0.427-1.060-1.153-1.96-2.1-2.593s-2.060-0.973-3.193-0.96h0.007zM24.12 24.807c-0.753-0.013-1.493-0.247-2.113-0.673-0.627-0.427-1.107-1.027-1.387-1.727-0.28-0.707-0.353-1.473-0.2-2.213s0.527-1.413 1.060-1.947c0.54-0.527 1.227-0.887 1.967-1.033s1.507-0.067 2.207 0.227c0.693 0.293 1.293 0.78 1.707 1.413 0.42 0.627 0.647 1.367 0.647 2.12-0.013 1.027-0.427 2-1.153 2.72-0.727 0.713-1.713 1.12-2.733 1.113z"></path>
</symbol>
<symbol id="icon-telegram" viewBox="0 0 32 32">
<path fill="#40b3e0" style="fill: var(--color40, #40b3e0)" d="M16 0.865c-7.883 0-14.27 6.387-14.27 14.27 0 7.879 6.387 14.27 14.27 14.27 7.879 0 14.27-6.391 14.27-14.27 0-7.883-6.391-14.27-14.27-14.27z"></path>
<path fill="#fff" style="fill: var(--color3, #fff)" d="M22.941 9.072l-2.547 12.852c0 0-0.359 0.891-1.336 0.463l-5.881-4.51-2.141-1.034-3.602-1.211c0 0-0.549-0.199-0.605-0.627-0.052-0.428 0.623-0.657 0.623-0.657l14.313-5.613c0 0 1.176-0.519 1.176 0.337v0z"></path>
<path fill="#d2e5f1" style="fill: var(--color41, #d2e5f1)" d="M12.722 21.777c0 0-0.173-0.017-0.385-0.692-0.216-0.679-1.302-4.242-1.302-4.242l8.644-5.492c0 0 0.497-0.303 0.48 0 0 0 0.091 0.056-0.177 0.303-0.268 0.251-6.789 6.115-6.789 6.115l-0.471 4.009z"></path>
<path fill="#b5cfe4" style="fill: var(--color42, #b5cfe4)" d="M15.429 19.607l-2.326 2.119c0 0-0.182 0.138-0.381 0.052l0.445-3.939 2.262 1.769z"></path>
</symbol>
<symbol id="icon-mesage" viewBox="0 0 32 32">
<path fill="#f3761b" style="fill: var(--color43, #f3761b)" d="M25.14 12.28c0-5.050-5.63-9.14-12.57-9.14-6.95 0-12.57 4.090-12.57 9.14 0 2.89 1.85 5.48 4.75 7.16-0.61 1.48-1.4 2.18-2.090 2.97-0.2 0.23-0.43 0.44-0.36 0.78 0.050 0.31 0.3 0.52 0.57 0.52 0.54-0.070 1.11-0.16 1.59-0.29 1.8-0.46 3.48-1.23 4.96-2.28 1 0.18 2.060 0.28 3.15 0.28 6.94 0 12.57-4.090 12.57-9.14zM32 16.85c0-2.98-1.97-5.62-4.99-7.28 0.27 0.87 0.41 1.78 0.41 2.71 0 3.2-1.64 6.14-4.62 8.32-2.77 2-6.39 3.11-10.23 3.11-0.52 0-1.060-0.040-1.57-0.070 2.23 1.46 5.19 2.36 8.42 2.36 1.090 0 2.15-0.11 3.15-0.29 1.48 1.050 3.16 1.82 4.96 2.29 0.48 0.12 1 0.21 1.54 0.28 0.28 0.040 0.55-0.2 0.62-0.52 0.070-0.34-0.16-0.55-0.36-0.78-0.69-0.79-1.48-1.48-2.080-2.97 2.89-1.68 4.75-4.25 4.75-7.16z"></path>
</symbol>
<symbol id="icon-check-mark" viewBox="0 0 32 32">
<path fill="#fff" style="fill: var(--color3, #fff)" d="M28.203 3.692l-17.434 17.434-7.182-7.182-3.588 3.594 10.769 10.769 21.022-21.028-3.588-3.588z"></path>
</symbol>
<symbol id="icon-verified" viewBox="0 0 32 32">
<path d="M28.729 5.181l-12.25-5.086c-0.307-0.127-0.652-0.127-0.959 0l-12.25 5.086c-0.467 0.194-0.771 0.649-0.771 1.155v6.182c0 8.514 5.146 16.171 13.028 19.388 0.303 0.123 0.642 0.123 0.944 0 7.882-3.217 13.028-10.874 13.028-19.388v-6.182c0-0.506-0.304-0.961-0.771-1.155zM27 12.518c0 7.237-4.25 13.9-11 16.873-6.57-2.894-11.001-9.44-11.001-16.873v-5.349l11.001-4.567 11 4.567v5.349zM14.618 16.731l5.373-5.372c0.488-0.488 1.279-0.488 1.767 0s0.488 1.28 0 1.768l-6.256 6.256c-0.488 0.488-1.279 0.487-1.767 0l-3.494-3.494c-0.488-0.488-0.488-1.28 0-1.768s1.279-0.488 1.767 0l2.609 2.609z"></path>
</symbol>
</defs>
</svg>
